adventprofmm_reg_it.ufo
<glyph name="exclam" format="1">
  <advance width="109"/>
  <unicode hex="0021"/>
  <outline>
    <contour>
      <point x="139" y="671" type="curve" smooth="yes"/>
      <point x="52" y="120" type="line"/>
      <point x="99" y="120" type="line"/>
      <point x="205" y="672" type="line" smooth="yes"/>
      <point x="209" y="696"/>
      <point x="200" y="708"/>
      <point x="178" y="708" type="curve" smooth="yes"/>
      <point x="156" y="708"/>
      <point x="143" y="696"/>
    </contour>
    <contour>
      <point x="65" y="67" type="curve" smooth="yes"/>
      <point x="46" y="67"/>
      <point x="30" y="52"/>
      <point x="26" y="34" type="curve" smooth="yes"/>
      <point x="23" y="15"/>
      <point x="35" y="0"/>
      <point x="54" y="0" type="curve" smooth="yes"/>
      <point x="73" y="0"/>
      <point x="89" y="15"/>
      <point x="92" y="34" type="curve" smooth="yes"/>
      <point x="96" y="52"/>
      <point x="84" y="67"/>
    </contour>
  </outline>
</glyph>
<glyph name="quotedbl" format="1">
  <advance width="240"/>
  <unicode hex="0022"/>
  <outline>
    <contour>
      <point x="276" y="701" type="curve"/>
      <point x="270" y="586" type="line"/>
      <point x="310" y="586" type="line"/>
      <point x="344" y="701" type="line"/>
      <point x="352" y="748"/>
      <point x="284" y="748"/>
    </contour>
    <contour>
      <point x="141" y="701" type="curve"/>
      <point x="135" y="586" type="line"/>
      <point x="174" y="586" type="line"/>
      <point x="209" y="701" type="line"/>
      <point x="217" y="748"/>
      <point x="149" y="748"/>
    </contour>
  </outline>
</glyph>
<glyph name="numbersign" format="1">
  <advance width="585"/>
  <unicode hex="0023"/>
  <outline>
    <contour>
      <point x="638" y="413" type="line"/>
      <point x="648" y="469" type="line"/>
      <point x="514" y="469" type="line"/>
      <point x="609" y="698" type="line"/>
      <point x="555" y="698" type="line"/>
      <point x="460" y="469" type="line"/>
      <point x="342" y="469" type="line"/>
      <point x="436" y="698" type="line"/>
      <point x="381" y="698" type="line"/>
      <point x="287" y="469" type="line"/>
      <point x="101" y="469" type="line"/>
      <point x="91" y="413" type="line"/>
      <point x="263" y="413" type="line"/>
      <point x="194" y="243" type="line"/>
      <point x="61" y="243" type="line"/>
      <point x="52" y="189" type="line"/>
      <point x="172" y="189" type="line"/>
      <point x="95" y="0" type="line"/>
      <point x="150" y="0" type="line"/>
      <point x="227" y="189" type="line"/>
      <point x="345" y="189" type="line"/>
      <point x="268" y="0" type="line"/>
      <point x="323" y="0" type="line"/>
      <point x="400" y="189" type="line"/>
      <point x="599" y="189" type="line"/>
      <point x="608" y="243" type="line"/>
      <point x="422" y="243" type="line"/>
      <point x="492" y="413" type="line"/>
    </contour>
    <contour>
      <point x="318" y="413" type="line"/>
      <point x="437" y="413" type="line"/>
      <point x="368" y="243" type="line"/>
      <point x="249" y="243" type="line"/>
    </contour>
  </outline>
</glyph>
<glyph name="dollar" format="1">
  <advance width="509"/>
  <unicode hex="0024"/>
  <outline>
    <contour>
      <point x="517" y="617" type="curve"/>
      <point x="544" y="669" type="line"/>
      <point x="503" y="694"/>
      <point x="445" y="707"/>
      <point x="388" y="707" type="curve" smooth="yes"/>
      <point x="333" y="706"/>
      <point x="277" y="693"/>
      <point x="233" y="664" type="curve" smooth="yes"/>
      <point x="190" y="638"/>
      <point x="159" y="599"/>
      <point x="148" y="547" type="curve" smooth="yes"/>
      <point x="124" y="447"/>
      <point x="190" y="402"/>
      <point x="268" y="365" type="curve" smooth="yes"/>
      <point x="298" y="351"/>
      <point x="330" y="338"/>
      <point x="358" y="323" type="curve" smooth="yes"/>
      <point x="425" y="291"/>
      <point x="476" y="253"/>
      <point x="460" y="177" type="curve" smooth="yes"/>
      <point x="451" y="140"/>
      <point x="433" y="111"/>
      <point x="409" y="90" type="curve" smooth="yes"/>
      <point x="368" y="55"/>
      <point x="311" y="41"/>
      <point x="256" y="41" type="curve" smooth="yes"/>
      <point x="200" y="41"/>
      <point x="158" y="62"/>
      <point x="135" y="82" type="curve" smooth="yes"/>
      <point x="93" y="119"/>
      <point x="90" y="159"/>
      <point x="90" y="159" type="curve"/>
      <point x="39" y="131" type="line"/>
      <point x="39" y="131"/>
      <point x="48" y="77"/>
      <point x="98" y="35" type="curve" smooth="yes"/>
      <point x="130" y="9"/>
      <point x="177" y="-13"/>
      <point x="250" y="-13" type="curve" smooth="yes"/>
      <point x="314" y="-13"/>
      <point x="382" y="3"/>
      <point x="435" y="42" type="curve" smooth="yes"/>
      <point x="475" y="73"/>
      <point x="506" y="117"/>
      <point x="519" y="178" type="curve" smooth="yes"/>
      <point x="542" y="280"/>
      <point x="474" y="333"/>
      <point x="394" y="372" type="curve" smooth="yes"/>
      <point x="362" y="388"/>
      <point x="328" y="403"/>
      <point x="297" y="417" type="curve" smooth="yes"/>
      <point x="235" y="446"/>
      <point x="190" y="479"/>
      <point x="204" y="540" type="curve" smooth="yes"/>
      <point x="213" y="579"/>
      <point x="235" y="606"/>
      <point x="265" y="625" type="curve"/>
      <point x="298" y="643"/>
      <point x="338" y="653"/>
      <point x="380" y="653" type="curve" smooth="yes"/>
      <point x="430" y="653"/>
      <point x="479" y="640"/>
    </contour>
    <contour>
      <point x="436" y="815" type="line"/>
      <point x="380" y="815" type="line"/>
      <point x="217" y="-113" type="line"/>
      <point x="273" y="-113" type="line"/>
    </contour>
  </outline>
</glyph>
<glyph name="percent" format="1">
  <advance width="684"/>
  <unicode hex="0025"/>
  <outline>
    <contour>
      <point x="758" y="698" type="line"/>
      <point x="694" y="698" type="line"/>
      <point x="34" y="0" type="line"/>
      <point x="101" y="0" type="line"/>
    </contour>
    <contour>
      <point x="286" y="712" type="curve" smooth="yes"/>
      <point x="205" y="712"/>
      <point x="129" y="647"/>
      <point x="114" y="566" type="curve" smooth="yes"/>
      <point x="100" y="486"/>
      <point x="154" y="421"/>
      <point x="235" y="421" type="curve" smooth="yes"/>
      <point x="315" y="421"/>
      <point x="391" y="486"/>
      <point x="405" y="566" type="curve" smooth="yes"/>
      <point x="420" y="647"/>
      <point x="366" y="712"/>
    </contour>
    <contour>
      <point x="277" y="661" type="curve" smooth="yes"/>
      <point x="328" y="661"/>
      <point x="363" y="618"/>
      <point x="354" y="566" type="curve" smooth="yes"/>
      <point x="345" y="515"/>
      <point x="295" y="472"/>
      <point x="244" y="472" type="curve" smooth="yes"/>
      <point x="192" y="472"/>
      <point x="156" y="515"/>
      <point x="165" y="566" type="curve" smooth="yes"/>
      <point x="174" y="618"/>
      <point x="225" y="661"/>
    </contour>
    <contour>
      <point x="568" y="276" type="curve" smooth="yes"/>
      <point x="489" y="276"/>
      <point x="413" y="211"/>
      <point x="399" y="131" type="curve" smooth="yes"/>
      <point x="384" y="51"/>
      <point x="438" y="-14"/>
      <point x="517" y="-14" type="curve" smooth="yes"/>
      <point x="598" y="-14"/>
      <point x="673" y="51"/>
      <point x="688" y="131" type="curve" smooth="yes"/>
      <point x="702" y="211"/>
      <point x="649" y="276"/>
    </contour>
    <contour>
      <point x="559" y="226" type="curve" smooth="yes"/>
      <point x="612" y="226"/>
      <point x="647" y="184"/>
      <point x="638" y="131" type="curve" smooth="yes"/>
      <point x="628" y="79"/>
      <point x="579" y="37"/>
      <point x="526" y="37" type="curve" smooth="yes"/>
      <point x="475" y="37"/>
      <point x="440" y="79"/>
      <point x="450" y="131" type="curve" smooth="yes"/>
      <point x="459" y="184"/>
      <point x="508" y="226"/>
    </contour>
  </outline>
</glyph>
<glyph name="ampersand" format="1">
  <advance width="503"/>
  <unicode hex="0026"/>
  <outline>
    <contour>
      <point x="480" y="651" type="curve"/>
      <point x="514" y="702" type="line"/>
      <point x="514" y="702"/>
      <point x="406" y="702"/>
      <point x="349" y="702" type="curve" smooth="yes"/>
      <point x="256" y="702"/>
      <point x="191" y="636"/>
      <point x="180" y="546" type="curve" smooth="yes"/>
      <point x="174" y="505"/>
      <point x="173" y="451"/>
      <point x="221" y="402" type="curve"/>
      <point x="218" y="402"/>
      <point x="215" y="403"/>
      <point x="212" y="402" type="curve"/>
      <point x="139" y="396"/>
      <point x="81" y="358"/>
      <point x="62" y="254" type="curve" smooth="yes"/>
      <point x="57" y="222"/>
      <point x="51" y="191"/>
      <point x="46" y="159" type="curve" smooth="yes"/>
      <point x="29" y="46"/>
      <point x="83" y="-6"/>
      <point x="193" y="-6" type="curve" smooth="yes"/>
      <point x="238" y="-6"/>
      <point x="311" y="14"/>
      <point x="360" y="62" type="curve"/>
      <point x="369" y="26"/>
      <point x="395" y="4"/>
      <point x="439" y="-9" type="curve"/>
      <point x="459" y="34" type="line"/>
      <point x="418" y="50"/>
      <point x="400" y="84"/>
      <point x="409" y="136" type="curve" smooth="yes"/>
      <point x="447" y="349" type="line"/>
      <point x="523" y="349" type="line"/>
      <point x="556" y="403" type="line"/>
      <point x="457" y="403" type="line"/>
      <point x="475" y="505" type="line"/>
      <point x="422" y="505" type="line"/>
      <point x="403" y="402" type="line"/>
      <point x="380" y="402"/>
      <point x="357" y="402"/>
      <point x="353" y="402" type="curve" smooth="yes"/>
      <point x="272" y="402"/>
      <point x="221" y="464"/>
      <point x="235" y="543" type="curve" smooth="yes"/>
      <point x="244" y="607"/>
      <point x="287" y="651"/>
      <point x="343" y="651" type="curve" smooth="yes"/>
      <point x="379" y="651"/>
      <point x="480" y="651"/>
    </contour>
    <contour>
      <point x="394" y="349" type="curve"/>
      <point x="364" y="176" type="line" smooth="yes"/>
      <point x="351" y="106"/>
      <point x="297" y="57"/>
      <point x="214" y="50" type="curve" smooth="yes"/>
      <point x="127" y="42"/>
      <point x="89" y="87"/>
      <point x="102" y="164" type="curve" smooth="yes"/>
      <point x="103" y="169"/>
      <point x="117" y="248"/>
      <point x="118" y="251" type="curve" smooth="yes"/>
      <point x="134" y="342"/>
      <point x="196" y="349"/>
      <point x="233" y="349" type="curve" smooth="yes"/>
      <point x="262" y="349"/>
      <point x="340" y="349"/>
    </contour>
  </outline>
</glyph>
<glyph name="quotesingle" format="1">
  <advance width="103"/>
  <unicode hex="0027"/>
  <outline>
    <contour>
      <point x="141" y="702" type="curve"/>
      <point x="134" y="587" type="line"/>
      <point x="174" y="587" type="line"/>
      <point x="208" y="702" type="line"/>
      <point x="216" y="748"/>
      <point x="149" y="748"/>
    </contour>
  </outline>
</glyph>
<glyph name="parenleft" format="1">
  <advance width="159"/>
  <unicode hex="0028"/>
  <outline>
    <contour>
      <point x="282" y="778" type="curve"/>
      <point x="270" y="815" type="line"/>
      <point x="194" y="777"/>
      <point x="149" y="725"/>
      <point x="132" y="625" type="curve" smooth="yes"/>
      <point x="34" y="70" type="line" smooth="yes"/>
      <point x="11" y="-58"/>
      <point x="61" y="-81"/>
      <point x="106" y="-119" type="curve"/>
      <point x="130" y="-81" type="line"/>
      <point x="91" y="-48"/>
      <point x="77" y="-1"/>
      <point x="88" y="62" type="curve" smooth="yes"/>
      <point x="122" y="253"/>
      <point x="156" y="443"/>
      <point x="189" y="635" type="curve" smooth="yes"/>
      <point x="200" y="697"/>
      <point x="231" y="745"/>
    </contour>
  </outline>
</glyph>
<glyph name="parenright" format="1">
  <advance width="161"/>
  <unicode hex="0029"/>
  <outline>
    <contour>
      <point x="151" y="778" type="curve"/>
      <point x="176" y="815" type="line"/>
      <point x="239" y="777"/>
      <point x="264" y="725"/>
      <point x="247" y="625" type="curve" smooth="yes"/>
      <point x="149" y="70" type="line" smooth="yes"/>
      <point x="126" y="-58"/>
      <point x="69" y="-81"/>
      <point x="12" y="-119" type="curve"/>
      <point x="0" y="-81" type="line"/>
      <point x="50" y="-48"/>
      <point x="80" y="-1"/>
      <point x="91" y="62" type="curve" smooth="yes"/>
      <point x="125" y="253"/>
      <point x="159" y="443"/>
      <point x="192" y="635" type="curve" smooth="yes"/>
      <point x="203" y="697"/>
      <point x="190" y="745"/>
    </contour>
  </outline>
</glyph>
<glyph name="asterisk" format="1">
  <advance width="335"/>
  <unicode hex="002A"/>
  <outline>
    <contour>
      <point x="216" y="539" type="line"/>
      <point x="135" y="449" type="line"/>
      <point x="174" y="418" type="line"/>
      <point x="256" y="514" type="line"/>
      <point x="308" y="418" type="line"/>
      <point x="355" y="449" type="line"/>
      <point x="305" y="539" type="line"/>
      <point x="420" y="577" type="line"/>
      <point x="408" y="625" type="line"/>
      <point x="294" y="585" type="line"/>
      <point x="314" y="698" type="line"/>
      <point x="260" y="698" type="line"/>
      <point x="240" y="585" type="line"/>
      <point x="143" y="625" type="line"/>
      <point x="116" y="577" type="line"/>
    </contour>
  </outline>
</glyph>
<glyph name="plus" format="1">
  <advance width="355"/>
  <unicode hex="002B"/>
  <outline>
    <contour>
      <point x="221" y="397" type="line"/>
      <point x="88" y="397" type="line"/>
      <point x="78" y="342" type="line"/>
      <point x="211" y="342" type="line"/>
      <point x="187" y="209" type="line"/>
      <point x="242" y="209" type="line"/>
      <point x="266" y="342" type="line"/>
      <point x="397" y="342" type="line"/>
      <point x="407" y="397" type="line"/>
      <point x="276" y="397" type="line"/>
      <point x="299" y="528" type="line"/>
      <point x="244" y="528" type="line"/>
    </contour>
  </outline>
</glyph>
<glyph name="comma" format="1">
  <advance width="108"/>
  <unicode hex="002C"/>
  <outline>
    <contour>
      <point x="4" y="-85" type="curve"/>
      <point x="18" y="-97" type="line"/>
      <point x="42" y="-79"/>
      <point x="80" y="-40"/>
      <point x="93" y="23" type="curve"/>
      <point x="95" y="43"/>
      <point x="83" y="56"/>
      <point x="64" y="56" type="curve" smooth="yes"/>
      <point x="45" y="56"/>
      <point x="29" y="42"/>
      <point x="26" y="23" type="curve" smooth="yes"/>
      <point x="23" y="7"/>
      <point x="32" y="-7"/>
      <point x="48" y="-10" type="curve"/>
      <point x="41" y="-31"/>
      <point x="29" y="-58"/>
    </contour>
  </outline>
</glyph>
<glyph name="hyphen" format="1">
  <advance width="361"/>
  <unicode hex="002D"/>
  <outline>
    <contour>
      <point x="411" y="413" type="line"/>
      <point x="92" y="413" type="line"/>
      <point x="82" y="355" type="line"/>
      <point x="401" y="355" type="line"/>
    </contour>
  </outline>
</glyph>
<glyph name="slash" format="1">
  <advance width="408"/>
  <unicode hex="002F"/>
  <outline>
    <contour>
      <point x="537" y="815" type="line"/>
      <point x="476" y="815" type="line"/>
      <point x="-5" y="-113" type="line"/>
      <point x="50" y="-113" type="line"/>
    </contour>
  </outline>
</glyph>
<glyph name="one" format="1">
  <advance width="195"/>
  <unicode hex="0031"/>
  <outline>
    <contour>
      <point x="102" y="620" type="curve"/>
      <point x="109" y="581" type="line"/>
      <point x="143" y="585"/>
      <point x="203" y="613"/>
      <point x="230" y="632" type="curve"/>
      <point x="119" y="0" type="line"/>
      <point x="172" y="0" type="line"/>
      <point x="295" y="698" type="line"/>
      <point x="241" y="698" type="line"/>
      <point x="184" y="641"/>
      <point x="102" y="620"/>
    </contour>
  </outline>
</glyph>
<glyph name="two" format="1">
  <advance width="377"/>
  <unicode hex="0032"/>
  <outline>
    <contour>
      <point x="128" y="588" type="curve"/>
      <point x="177" y="569" type="line"/>
      <point x="209" y="628"/>
      <point x="259" y="654"/>
      <point x="304" y="654" type="curve" smooth="yes"/>
      <point x="361" y="656"/>
      <point x="408" y="612"/>
      <point x="396" y="539" type="curve" smooth="yes"/>
      <point x="390" y="508"/>
      <point x="380" y="486"/>
      <point x="331" y="425" type="curve" smooth="yes"/>
      <point x="231" y="295"/>
      <point x="123" y="176"/>
      <point x="21" y="53" type="curve"/>
      <point x="12" y="0" type="line"/>
      <point x="361" y="0" type="line"/>
      <point x="370" y="53" type="line"/>
      <point x="86" y="53" type="line"/>
      <point x="182" y="166"/>
      <point x="278" y="280"/>
      <point x="374" y="394" type="curve"/>
      <point x="427" y="464"/>
      <point x="449" y="509"/>
      <point x="456" y="549" type="curve" smooth="yes"/>
      <point x="475" y="650"/>
      <point x="401" y="710"/>
      <point x="314" y="708" type="curve" smooth="yes"/>
      <point x="247" y="707"/>
      <point x="174" y="670"/>
    </contour>
  </outline>
</glyph>
<glyph name="three" format="1">
  <advance width="411"/>
  <unicode hex="0033"/>
  <outline>
    <contour>
      <point x="258" y="413" type="curve" smooth="yes"/>
      <point x="256" y="413" type="line"/>
      <point x="457" y="649" type="line"/>
      <point x="466" y="698" type="line"/>
      <point x="177" y="698" type="line"/>
      <point x="167" y="641" type="line"/>
      <point x="388" y="641" type="line"/>
      <point x="144" y="355" type="line"/>
      <point x="255" y="355" type="line" smooth="yes"/>
      <point x="296" y="355"/>
      <point x="328" y="339"/>
      <point x="353" y="307" type="curve" smooth="yes"/>
      <point x="376" y="277"/>
      <point x="384" y="242"/>
      <point x="377" y="199" type="curve" smooth="yes"/>
      <point x="369" y="156"/>
      <point x="349" y="121"/>
      <point x="312" y="90" type="curve" smooth="yes"/>
      <point x="276" y="58"/>
      <point x="236" y="44"/>
      <point x="193" y="44" type="curve" smooth="yes"/>
      <point x="137" y="44"/>
      <point x="98" y="67"/>
      <point x="75" y="112" type="curve"/>
      <point x="24" y="82" type="line"/>
      <point x="52" y="24"/>
      <point x="111" y="-12"/>
      <point x="183" y="-12" type="curve" smooth="yes"/>
      <point x="242" y="-12"/>
      <point x="297" y="9"/>
      <point x="345" y="50" type="curve" smooth="yes"/>
      <point x="392" y="90"/>
      <point x="422" y="141"/>
      <point x="433" y="199" type="curve" smooth="yes"/>
      <point x="443" y="258"/>
      <point x="431" y="309"/>
      <point x="398" y="350" type="curve" smooth="yes"/>
      <point x="364" y="391"/>
      <point x="317" y="413"/>
    </contour>
  </outline>
</glyph>
<glyph name="four" format="1">
  <advance width="453"/>
  <unicode hex="0034"/>
  <outline>
    <contour>
      <point x="432" y="355" type="line"/>
      <point x="484" y="355" type="line"/>
      <point x="514" y="413" type="line"/>
      <point x="442" y="413" type="line"/>
      <point x="493" y="698" type="line"/>
      <point x="436" y="698" type="line"/>
      <point x="385" y="413" type="line"/>
      <point x="166" y="413" type="line"/>
      <point x="373" y="698" type="line"/>
      <point x="314" y="698" type="line"/>
      <point x="60" y="355" type="line"/>
      <point x="375" y="355" type="line"/>
      <point x="313" y="0" type="line"/>
      <point x="370" y="0" type="line"/>
    </contour>
  </outline>
</glyph>
<glyph name="five" format="1">
  <advance width="408"/>
  <unicode hex="0035"/>
  <outline>
    <contour>
      <point x="172" y="411" type="curve"/>
      <point x="237" y="641" type="line"/>
      <point x="453" y="641" type="line"/>
      <point x="463" y="698" type="line"/>
      <point x="198" y="698" type="line"/>
      <point x="100" y="355" type="line"/>
      <point x="215" y="355" type="line" smooth="yes"/>
      <point x="336" y="355"/>
      <point x="389" y="287"/>
      <point x="374" y="200" type="curve" smooth="yes"/>
      <point x="357" y="105"/>
      <point x="269" y="44"/>
      <point x="189" y="44" type="curve" smooth="yes"/>
      <point x="101" y="44"/>
      <point x="48" y="89"/>
      <point x="48" y="89" type="curve"/>
      <point x="19" y="42" type="line"/>
      <point x="19" y="42"/>
      <point x="93" y="-12"/>
      <point x="182" y="-12" type="curve" smooth="yes"/>
      <point x="315" y="-12"/>
      <point x="411" y="96"/>
      <point x="429" y="198" type="curve" smooth="yes"/>
      <point x="455" y="343"/>
      <point x="356" y="411"/>
      <point x="225" y="411" type="curve" smooth="yes"/>
      <point x="214" y="411"/>
      <point x="183" y="411"/>
    </contour>
  </outline>
</glyph>
<glyph name="six" format="1">
  <advance width="450"/>
  <unicode hex="0036"/>
  <outline>
    <contour>
      <point x="367" y="646" type="curve" smooth="yes"/>
      <point x="406" y="646" type="line"/>
      <point x="416" y="698" type="line"/>
      <point x="381" y="698" type="line" smooth="yes"/>
      <point x="292" y="698"/>
      <point x="219" y="661"/>
      <point x="174" y="614" type="curve" smooth="yes"/>
      <point x="130" y="568"/>
      <point x="104" y="515"/>
      <point x="95" y="460" type="curve" smooth="yes"/>
      <point x="49" y="202" type="line" smooth="yes"/>
      <point x="39" y="143"/>
      <point x="51" y="92"/>
      <point x="86" y="52" type="curve" smooth="yes"/>
      <point x="119" y="11"/>
      <point x="166" y="-10"/>
      <point x="225" y="-10" type="curve" smooth="yes"/>
      <point x="284" y="-10"/>
      <point x="336" y="11"/>
      <point x="385" y="52" type="curve" smooth="yes"/>
      <point x="434" y="92"/>
      <point x="464" y="143"/>
      <point x="474" y="202" type="curve" smooth="yes"/>
      <point x="485" y="261"/>
      <point x="472" y="311"/>
      <point x="438" y="352" type="curve" smooth="yes"/>
      <point x="404" y="393"/>
      <point x="357" y="414"/>
      <point x="296" y="414" type="curve" smooth="yes"/>
      <point x="235" y="414"/>
      <point x="179" y="391"/>
      <point x="130" y="346" type="curve"/>
      <point x="148" y="453" type="line" smooth="yes"/>
      <point x="159" y="516"/>
      <point x="184" y="559"/>
      <point x="227" y="596" type="curve" smooth="yes"/>
      <point x="267" y="631"/>
      <point x="318" y="646"/>
    </contour>
    <contour>
      <point x="290" y="359" type="curve" smooth="yes"/>
      <point x="376" y="359"/>
      <point x="434" y="288"/>
      <point x="419" y="202" type="curve" smooth="yes"/>
      <point x="404" y="116"/>
      <point x="320" y="45"/>
      <point x="234" y="45" type="curve" smooth="yes"/>
      <point x="147" y="45"/>
      <point x="89" y="116"/>
      <point x="104" y="202" type="curve" smooth="yes"/>
      <point x="119" y="288"/>
      <point x="203" y="359"/>
    </contour>
  </outline>
</glyph>
<glyph name="seven" format="1">
  <advance width="399"/>
  <unicode hex="0037"/>
  <outline>
    <contour>
      <point x="523" y="698" type="line"/>
      <point x="132" y="698" type="line"/>
      <point x="122" y="641" type="line"/>
      <point x="450" y="641" type="line"/>
      <point x="20" y="0" type="line"/>
      <point x="82" y="0" type="line"/>
      <point x="513" y="643" type="line"/>
    </contour>
  </outline>
</glyph>
<glyph name="eight" format="1">
  <advance width="449"/>
  <unicode hex="0038"/>
  <outline>
    <contour>
      <point x="348" y="707" type="curve" smooth="yes"/>
      <point x="299" y="707"/>
      <point x="255" y="690"/>
      <point x="215" y="656" type="curve" smooth="yes"/>
      <point x="176" y="621"/>
      <point x="152" y="581"/>
      <point x="143" y="531" type="curve" smooth="yes"/>
      <point x="136" y="490"/>
      <point x="141" y="453"/>
      <point x="159" y="425" type="curve" smooth="yes"/>
      <point x="168" y="410"/>
      <point x="179" y="398"/>
      <point x="192" y="388" type="curve"/>
      <point x="164" y="374"/>
      <point x="138" y="355"/>
      <point x="116" y="333" type="curve" smooth="yes"/>
      <point x="81" y="297"/>
      <point x="55" y="251"/>
      <point x="46" y="200" type="curve" smooth="yes"/>
      <point x="36" y="142"/>
      <point x="47" y="90"/>
      <point x="81" y="50" type="curve" smooth="yes"/>
      <point x="114" y="9"/>
      <point x="161" y="-12"/>
      <point x="220" y="-12" type="curve" smooth="yes"/>
      <point x="279" y="-12"/>
      <point x="334" y="9"/>
      <point x="382" y="50" type="curve" smooth="yes"/>
      <point x="430" y="90"/>
      <point x="461" y="142"/>
      <point x="471" y="200" type="curve" smooth="yes"/>
      <point x="479" y="248"/>
      <point x="471" y="290"/>
      <point x="451" y="326" type="curve" smooth="yes"/>
      <point x="435" y="353"/>
      <point x="411" y="374"/>
      <point x="391" y="387" type="curve"/>
      <point x="409" y="397"/>
      <point x="425" y="410"/>
      <point x="438" y="424" type="curve" smooth="yes"/>
      <point x="466" y="452"/>
      <point x="485" y="488"/>
      <point x="492" y="531" type="curve" smooth="yes"/>
      <point x="501" y="581"/>
      <point x="492" y="621"/>
      <point x="464" y="656" type="curve" smooth="yes"/>
      <point x="436" y="690"/>
      <point x="397" y="707"/>
    </contour>
    <contour>
      <point x="295" y="411" type="curve" smooth="yes"/>
      <point x="259" y="411"/>
      <point x="229" y="428"/>
      <point x="211" y="453" type="curve" smooth="yes"/>
      <point x="196" y="474"/>
      <point x="190" y="503"/>
      <point x="195" y="532" type="curve" smooth="yes"/>
      <point x="207" y="599"/>
      <point x="271" y="654"/>
      <point x="338" y="654" type="curve" smooth="yes"/>
      <point x="405" y="654"/>
      <point x="449" y="599"/>
      <point x="437" y="532" type="curve" smooth="yes"/>
      <point x="432" y="503"/>
      <point x="416" y="474"/>
      <point x="394" y="453" type="curve" smooth="yes"/>
      <point x="368" y="428"/>
      <point x="332" y="411"/>
    </contour>
    <contour>
      <point x="230" y="44" type="curve" smooth="yes"/>
      <point x="143" y="44"/>
      <point x="87" y="114"/>
      <point x="102" y="200" type="curve" smooth="yes"/>
      <point x="108" y="238"/>
      <point x="128" y="273"/>
      <point x="154" y="299" type="curve" smooth="yes"/>
      <point x="189" y="334"/>
      <point x="237" y="356"/>
      <point x="285" y="356" type="curve" smooth="yes"/>
      <point x="337" y="356"/>
      <point x="379" y="332"/>
      <point x="401" y="294" type="curve" smooth="yes"/>
      <point x="416" y="267"/>
      <point x="421" y="235"/>
      <point x="415" y="200" type="curve" smooth="yes"/>
      <point x="400" y="114"/>
      <point x="317" y="44"/>
    </contour>
  </outline>
</glyph>
<glyph name="colon" format="1">
  <advance width="109"/>
  <unicode hex="003A"/>
  <outline>
    <contour>
      <point x="112" y="143" type="curve" smooth="yes"/>
      <point x="115" y="162"/>
      <point x="102" y="176"/>
      <point x="85" y="176" type="curve" smooth="yes"/>
      <point x="66" y="176"/>
      <point x="48" y="162"/>
      <point x="45" y="143" type="curve" smooth="yes"/>
      <point x="41" y="124"/>
      <point x="54" y="110"/>
      <point x="73" y="110" type="curve" smooth="yes"/>
      <point x="90" y="110"/>
      <point x="108" y="124"/>
    </contour>
    <contour>
      <point x="154" y="384" type="curve" smooth="yes"/>
      <point x="158" y="403"/>
      <point x="144" y="417"/>
      <point x="127" y="417" type="curve" smooth="yes"/>
      <point x="108" y="417"/>
      <point x="91" y="403"/>
      <point x="87" y="384" type="curve" smooth="yes"/>
      <point x="84" y="365"/>
      <point x="96" y="351"/>
      <point x="115" y="351" type="curve" smooth="yes"/>
      <point x="132" y="351"/>
      <point x="151" y="365"/>
    </contour>
  </outline>
</glyph>
<glyph name="semicolon" format="1">
  <advance width="113"/>
  <unicode hex="003B"/>
  <outline>
    <contour>
      <point x="26" y="35" type="curve"/>
      <point x="41" y="23" type="line"/>
      <point x="64" y="41"/>
      <point x="103" y="80"/>
      <point x="115" y="143" type="curve"/>
      <point x="117" y="163"/>
      <point x="106" y="176"/>
      <point x="87" y="176" type="curve" smooth="yes"/>
      <point x="68" y="176"/>
      <point x="51" y="162"/>
      <point x="48" y="143" type="curve" smooth="yes"/>
      <point x="45" y="127"/>
      <point x="54" y="112"/>
      <point x="70" y="110" type="curve"/>
      <point x="63" y="89"/>
      <point x="51" y="62"/>
    </contour>
    <contour>
      <point x="159" y="384" type="curve" smooth="yes"/>
      <point x="163" y="403"/>
      <point x="150" y="417"/>
      <point x="132" y="417" type="curve" smooth="yes"/>
      <point x="114" y="417"/>
      <point x="96" y="403"/>
      <point x="92" y="384" type="curve" smooth="yes"/>
      <point x="89" y="365"/>
      <point x="102" y="351"/>
      <point x="120" y="351" type="curve" smooth="yes"/>
      <point x="138" y="351"/>
      <point x="156" y="365"/>
    </contour>
  </outline>
</glyph>
<glyph name="less" format="1">
  <advance width="353"/>
  <unicode hex="003C"/>
  <outline>
    <contour>
      <point x="354" y="118" type="line"/>
      <point x="156" y="356" type="line"/>
      <point x="439" y="597" type="line"/>
      <point x="406" y="635" type="line"/>
      <point x="81" y="358" type="line"/>
      <point x="308" y="79" type="line"/>
    </contour>
  </outline>
</glyph>
<glyph name="equal" format="1">
  <advance width="362"/>
  <unicode hex="003D"/>
  <outline>
    <contour>
      <point x="412" y="411" type="line"/>
      <point x="93" y="411" type="line"/>
      <point x="83" y="356" type="line"/>
      <point x="402" y="356" type="line"/>
    </contour>
    <contour>
      <point x="394" y="307" type="line"/>
      <point x="75" y="307" type="line"/>
      <point x="65" y="252" type="line"/>
      <point x="384" y="252" type="line"/>
    </contour>
  </outline>
</glyph>
<glyph name="question" format="1">
  <advance width="384"/>
  <unicode hex="003F"/>
  <outline>
    <contour>
      <point x="109" y="530" type="curve"/>
      <point x="166" y="530" type="line"/>
      <point x="181" y="616"/>
      <point x="248" y="656"/>
      <point x="309" y="654" type="curve" smooth="yes"/>
      <point x="366" y="652"/>
      <point x="418" y="612"/>
      <point x="404" y="533" type="curve" smooth="yes"/>
      <point x="393" y="468"/>
      <point x="346" y="431"/>
      <point x="301" y="388" type="curve" smooth="yes"/>
      <point x="256" y="345"/>
      <point x="208" y="299"/>
      <point x="193" y="211" type="curve" smooth="yes"/>
      <point x="176" y="119" type="line"/>
      <point x="227" y="119" type="line"/>
      <point x="232" y="147"/>
      <point x="238" y="177"/>
      <point x="243" y="206" type="curve" smooth="yes"/>
      <point x="257" y="289"/>
      <point x="301" y="320"/>
      <point x="348" y="365" type="curve" smooth="yes"/>
      <point x="401" y="417"/>
      <point x="447" y="462"/>
      <point x="460" y="536" type="curve" smooth="yes"/>
      <point x="479" y="642"/>
      <point x="406" y="705"/>
      <point x="318" y="707" type="curve" smooth="yes"/>
      <point x="230" y="708"/>
      <point x="130" y="652"/>
    </contour>
    <contour>
      <point x="193" y="57" type="curve" smooth="yes"/>
      <point x="174" y="57"/>
      <point x="155" y="43"/>
      <point x="152" y="24" type="curve" smooth="yes"/>
      <point x="148" y="5"/>
      <point x="162" y="-9"/>
      <point x="181" y="-9" type="curve" smooth="yes"/>
      <point x="198" y="-9"/>
      <point x="216" y="5"/>
      <point x="220" y="24" type="curve" smooth="yes"/>
      <point x="223" y="43"/>
      <point x="210" y="57"/>
    </contour>
  </outline>
</glyph>
<glyph name="at" format="1">
  <advance width="693"/>
  <unicode hex="0040"/>
  <outline>
    <contour>
      <point x="754" y="450" type="curve"/>
      <point x="746" y="491" type="line"/>
      <point x="686" y="474"/>
      <point x="662" y="433"/>
      <point x="650" y="363" type="curve" smooth="yes"/>
      <point x="648" y="354"/>
      <point x="616" y="172"/>
      <point x="614" y="162" type="curve" smooth="yes"/>
      <point x="592" y="35"/>
      <point x="459" y="-11"/>
      <point x="333" y="-11" type="curve" smooth="yes"/>
      <point x="181" y="-11"/>
      <point x="85" y="44"/>
      <point x="111" y="189" type="curve" smooth="yes"/>
      <point x="120" y="240"/>
      <point x="129" y="290"/>
      <point x="138" y="341" type="curve" smooth="yes"/>
      <point x="159" y="465"/>
      <point x="255" y="529"/>
      <point x="367" y="529" type="curve" smooth="yes"/>
      <point x="460" y="529"/>
      <point x="518" y="496"/>
      <point x="526" y="442" type="curve"/>
      <point x="471" y="442"/>
      <point x="415" y="442"/>
      <point x="360" y="442" type="curve" smooth="yes"/>
      <point x="286" y="441"/>
      <point x="213" y="405"/>
      <point x="192" y="288" type="curve" smooth="yes"/>
      <point x="183" y="233" type="line" smooth="yes"/>
      <point x="156" y="84"/>
      <point x="250" y="58"/>
      <point x="345" y="61" type="curve" smooth="yes"/>
      <point x="393" y="63"/>
      <point x="513" y="69"/>
      <point x="513" y="69" type="curve"/>
      <point x="532" y="176"/>
      <point x="550" y="282"/>
      <point x="569" y="388" type="curve"/>
      <point x="619" y="388" type="line"/>
      <point x="641" y="442" type="line"/>
      <point x="574" y="442" type="line"/>
      <point x="571" y="515"/>
      <point x="515" y="577"/>
      <point x="372" y="577" type="curve" smooth="yes"/>
      <point x="210" y="577"/>
      <point x="102" y="477"/>
      <point x="77" y="338" type="curve" smooth="yes"/>
      <point x="69" y="290"/>
      <point x="61" y="239"/>
      <point x="51" y="183" type="curve" smooth="yes"/>
      <point x="20" y="11"/>
      <point x="158" y="-66"/>
      <point x="315" y="-66" type="curve" smooth="yes"/>
      <point x="478" y="-66"/>
      <point x="642" y="2"/>
      <point x="671" y="170" type="curve" smooth="yes"/>
      <point x="708" y="380" type="line" smooth="yes"/>
      <point x="714" y="417"/>
      <point x="729" y="440"/>
    </contour>
    <contour>
      <point x="348" y="388" type="curve" smooth="yes"/>
      <point x="407" y="388"/>
      <point x="464" y="388"/>
      <point x="522" y="388" type="curve"/>
      <point x="474" y="119" type="line"/>
      <point x="474" y="119"/>
      <point x="405" y="111"/>
      <point x="334" y="111" type="curve" smooth="yes"/>
      <point x="254" y="111"/>
      <point x="221" y="152"/>
      <point x="235" y="227" type="curve" smooth="yes"/>
      <point x="245" y="285" type="line" smooth="yes"/>
      <point x="262" y="383"/>
      <point x="317" y="388"/>
    </contour>
  </outline>
</glyph>
<glyph name="F" format="1">
  <advance width="353"/>
  <unicode hex="0046"/>
  <outline>
    <contour>
      <point x="22" y="0" type="line"/>
      <point x="78" y="0" type="line"/>
      <point x="140" y="356" type="line"/>
      <point x="308" y="356" type="line"/>
      <point x="341" y="411" type="line"/>
      <point x="150" y="411" type="line"/>
      <point x="191" y="645" type="line"/>
      <point x="468" y="645" type="line"/>
      <point x="478" y="698" type="line"/>
      <point x="145" y="698" type="line"/>
    </contour>
  </outline>
</glyph>
<glyph name="H" format="1">
  <advance width="474"/>
  <unicode hex="0048"/>
  <outline>
    <contour>
      <point x="201" y="698" type="line"/>
      <point x="145" y="698" type="line"/>
      <point x="22" y="0" type="line"/>
      <point x="78" y="0" type="line"/>
      <point x="140" y="356" type="line"/>
      <point x="457" y="356" type="line"/>
      <point x="395" y="0" type="line"/>
      <point x="451" y="0" type="line"/>
      <point x="574" y="698" type="line"/>
      <point x="518" y="698" type="line"/>
      <point x="467" y="411" type="line"/>
      <point x="150" y="411" type="line"/>
    </contour>
  </outline>
</glyph>
<glyph name="K" format="1">
  <advance width="421"/>
  <unicode hex="004B"/>
  <outline>
    <contour>
      <point x="145" y="698" type="line"/>
      <point x="22" y="0" type="line"/>
      <point x="78" y="0" type="line"/>
      <point x="125" y="268" type="line"/>
      <point x="185" y="344" type="line"/>
      <point x="351" y="0" type="line"/>
      <point x="418" y="0" type="line"/>
      <point x="232" y="397" type="line"/>
      <point x="489" y="698" type="line"/>
      <point x="424" y="698" type="line"/>
      <point x="142" y="366" type="line"/>
      <point x="201" y="698" type="line"/>
    </contour>
  </outline>
</glyph>
<glyph name="N" format="1">
  <advance width="536"/>
  <unicode hex="004E"/>
  <outline>
    <contour>
      <point x="474" y="102" type="line"/>
      <point x="201" y="698" type="line"/>
      <point x="145" y="698" type="line"/>
      <point x="22" y="0" type="line"/>
      <point x="78" y="0" type="line"/>
      <point x="182" y="595" type="line"/>
      <point x="457" y="0" type="line"/>
      <point x="513" y="0" type="line"/>
      <point x="636" y="698" type="line"/>
      <point x="580" y="698" type="line"/>
    </contour>
  </outline>
</glyph>
<glyph name="O" format="1">
  <advance width="452"/>
  <unicode hex="004F"/>
  <outline>
    <contour>
      <point x="104" y="506" type="curve" smooth="yes"/>
      <point x="47" y="185" type="line" smooth="yes"/>
      <point x="24" y="56"/>
      <point x="106" y="-11"/>
      <point x="224" y="-11" type="curve" smooth="yes"/>
      <point x="347" y="-11"/>
      <point x="446" y="64"/>
      <point x="467" y="185" type="curve" smooth="yes"/>
      <point x="524" y="505" type="line" smooth="yes"/>
      <point x="546" y="635"/>
      <point x="484" y="714"/>
      <point x="352" y="714" type="curve" smooth="yes"/>
      <point x="220" y="714"/>
      <point x="128" y="642"/>
    </contour>
    <contour>
      <point x="103" y="186" type="curve" smooth="yes"/>
      <point x="161" y="515" type="line" smooth="yes"/>
      <point x="178" y="612"/>
      <point x="248" y="661"/>
      <point x="340" y="661" type="curve" smooth="yes"/>
      <point x="434" y="661"/>
      <point x="487" y="612"/>
      <point x="470" y="515" type="curve" smooth="yes"/>
      <point x="412" y="186" type="line" smooth="yes"/>
      <point x="395" y="88"/>
      <point x="323" y="42"/>
      <point x="231" y="42" type="curve" smooth="yes"/>
      <point x="143" y="42"/>
      <point x="86" y="90"/>
    </contour>
  </outline>
</glyph>
<glyph name="Q" format="1">
  <advance width="452"/>
  <unicode hex="0051"/>
  <outline>
    <contour>
      <point x="104" y="506" type="curve" smooth="yes"/>
      <point x="47" y="185" type="line" smooth="yes"/>
      <point x="24" y="56"/>
      <point x="106" y="-11"/>
      <point x="224" y="-11" type="curve" smooth="yes"/>
      <point x="347" y="-11"/>
      <point x="446" y="64"/>
      <point x="467" y="185" type="curve" smooth="yes"/>
      <point x="524" y="505" type="line" smooth="yes"/>
      <point x="546" y="635"/>
      <point x="484" y="714"/>
      <point x="352" y="714" type="curve" smooth="yes"/>
      <point x="220" y="714"/>
      <point x="128" y="642"/>
    </contour>
    <contour>
      <point x="103" y="186" type="curve" smooth="yes"/>
      <point x="161" y="515" type="line" smooth="yes"/>
      <point x="178" y="612"/>
      <point x="248" y="661"/>
      <point x="340" y="661" type="curve" smooth="yes"/>
      <point x="434" y="661"/>
      <point x="487" y="612"/>
      <point x="470" y="515" type="curve" smooth="yes"/>
      <point x="412" y="186" type="line" smooth="yes"/>
      <point x="395" y="88"/>
      <point x="323" y="42"/>
      <point x="231" y="42" type="curve" smooth="yes"/>
      <point x="143" y="42"/>
      <point x="86" y="90"/>
    </contour>
    <contour>
      <point x="259" y="50" type="curve" smooth="yes"/>
      <point x="266" y="90"/>
      <point x="274" y="132"/>
      <point x="281" y="173" type="curve"/>
      <point x="225" y="173" type="line"/>
      <point x="218" y="132"/>
      <point x="211" y="91"/>
      <point x="203" y="51" type="curve" smooth="yes"/>
      <point x="184" y="-61"/>
      <point x="234" y="-107"/>
      <point x="351" y="-107" type="curve"/>
      <point x="365" y="-61" type="line"/>
      <point x="284" y="-62"/>
      <point x="245" y="-33"/>
    </contour>
  </outline>
</glyph>
<glyph name="R" format="1">
  <advance width="472"/>
  <unicode hex="0052"/>
  <outline>
    <contour>
      <point x="380" y="698" type="curve" smooth="yes"/>
      <point x="145" y="698" type="line"/>
      <point x="22" y="0" type="line"/>
      <point x="78" y="0" type="line"/>
      <point x="121" y="244" type="line"/>
      <point x="300" y="244" type="line" smooth="yes"/>
      <point x="320" y="244"/>
      <point x="339" y="245"/>
      <point x="355" y="249" type="curve"/>
      <point x="399" y="0" type="line"/>
      <point x="455" y="0" type="line"/>
      <point x="409" y="264" type="line"/>
      <point x="476" y="294"/>
      <point x="518" y="359"/>
      <point x="538" y="472" type="curve" smooth="yes"/>
      <point x="568" y="643"/>
      <point x="507" y="698"/>
    </contour>
    <contour>
      <point x="314" y="299" type="curve" smooth="yes"/>
      <point x="130" y="299" type="line"/>
      <point x="191" y="645" type="line"/>
      <point x="375" y="645" type="line" smooth="yes"/>
      <point x="453" y="645"/>
      <point x="507" y="613"/>
      <point x="482" y="472" type="curve" smooth="yes"/>
      <point x="455" y="320"/>
      <point x="390" y="299"/>
    </contour>
  </outline>
</glyph>
<glyph name="S" format="1">
  <advance width="496"/>
  <unicode hex="0053"/>
  <outline>
    <contour>
      <point x="511" y="618" type="curve"/>
      <point x="538" y="670" type="line"/>
      <point x="496" y="695"/>
      <point x="439" y="708"/>
      <point x="381" y="707" type="curve" smooth="yes"/>
      <point x="326" y="707"/>
      <point x="270" y="693"/>
      <point x="226" y="664" type="curve" smooth="yes"/>
      <point x="183" y="639"/>
      <point x="152" y="599"/>
      <point x="140" y="547" type="curve" smooth="yes"/>
      <point x="118" y="448"/>
      <point x="183" y="402"/>
      <point x="261" y="365" type="curve" smooth="yes"/>
      <point x="291" y="351"/>
      <point x="323" y="339"/>
      <point x="353" y="324" type="curve" smooth="yes"/>
      <point x="418" y="293"/>
      <point x="470" y="254"/>
      <point x="453" y="177" type="curve" smooth="yes"/>
      <point x="444" y="140"/>
      <point x="426" y="112"/>
      <point x="402" y="91" type="curve" smooth="yes"/>
      <point x="361" y="56"/>
      <point x="304" y="42"/>
      <point x="249" y="42" type="curve" smooth="yes"/>
      <point x="193" y="42"/>
      <point x="152" y="62"/>
      <point x="127" y="84" type="curve" smooth="yes"/>
      <point x="87" y="120"/>
      <point x="83" y="159"/>
      <point x="83" y="159" type="curve"/>
      <point x="33" y="132" type="line"/>
      <point x="33" y="132"/>
      <point x="41" y="77"/>
      <point x="92" y="35" type="curve" smooth="yes"/>
      <point x="123" y="9"/>
      <point x="171" y="-12"/>
      <point x="243" y="-12" type="curve" smooth="yes"/>
      <point x="307" y="-12"/>
      <point x="375" y="3"/>
      <point x="427" y="43" type="curve" smooth="yes"/>
      <point x="469" y="73"/>
      <point x="500" y="118"/>
      <point x="513" y="179" type="curve" smooth="yes"/>
      <point x="535" y="282"/>
      <point x="467" y="333"/>
      <point x="387" y="373" type="curve" smooth="yes"/>
      <point x="355" y="389"/>
      <point x="322" y="403"/>
      <point x="290" y="417" type="curve" smooth="yes"/>
      <point x="229" y="447"/>
      <point x="183" y="480"/>
      <point x="197" y="541" type="curve" smooth="yes"/>
      <point x="205" y="579"/>
      <point x="228" y="606"/>
      <point x="258" y="625" type="curve" smooth="yes"/>
      <point x="290" y="645"/>
      <point x="332" y="653"/>
      <point x="373" y="653" type="curve" smooth="yes"/>
      <point x="423" y="654"/>
      <point x="474" y="641"/>
    </contour>
  </outline>
</glyph>
<glyph name="T" format="1">
  <advance width="380"/>
  <unicode hex="0054"/>
  <outline>
    <contour>
      <point x="512" y="698" type="line"/>
      <point x="111" y="698" type="line"/>
      <point x="102" y="648" type="line"/>
      <point x="272" y="648" type="line"/>
      <point x="158" y="0" type="line"/>
      <point x="213" y="0" type="line"/>
      <point x="327" y="648" type="line"/>
      <point x="503" y="648" type="line"/>
    </contour>
  </outline>
</glyph>
<glyph name="W" format="1">
  <advance width="696"/>
  <unicode hex="0057"/>
  <outline>
    <contour>
      <point x="214" y="69" type="line"/>
      <point x="184" y="698" type="line"/>
      <point x="123" y="698" type="line"/>
      <point x="165" y="0" type="line"/>
      <point x="250" y="0" type="line"/>
      <point x="454" y="597" type="line"/>
      <point x="447" y="0" type="line"/>
      <point x="531" y="0" type="line"/>
      <point x="817" y="698" type="line"/>
      <point x="758" y="698" type="line"/>
      <point x="506" y="69" type="line"/>
      <point x="510" y="698" type="line"/>
      <point x="432" y="698" type="line"/>
    </contour>
  </outline>
</glyph>
<glyph name="X" format="1">
  <advance width="519"/>
  <unicode hex="0058"/>
  <outline>
    <contour>
      <point x="149" y="698" type="line"/>
      <point x="289" y="351" type="line"/>
      <point x="8" y="0" type="line"/>
      <point x="76" y="0" type="line"/>
      <point x="312" y="293" type="line"/>
      <point x="444" y="0" type="line"/>
      <point x="513" y="0" type="line"/>
      <point x="356" y="351" type="line"/>
      <point x="620" y="698" type="line"/>
      <point x="558" y="698" type="line"/>
      <point x="332" y="405" type="line"/>
      <point x="212" y="698" type="line"/>
    </contour>
  </outline>
</glyph>
<glyph name="Z" format="1">
  <advance width="510"/>
  <unicode hex="005A"/>
  <outline>
    <contour>
      <point x="138" y="647" type="line"/>
      <point x="534" y="647" type="line"/>
      <point x="20" y="50" type="line"/>
      <point x="12" y="0" type="line"/>
      <point x="497" y="0" type="line"/>
      <point x="505" y="51" type="line"/>
      <point x="90" y="51" type="line"/>
      <point x="606" y="648" type="line"/>
      <point x="615" y="698" type="line"/>
      <point x="147" y="698" type="line"/>
    </contour>
  </outline>
</glyph>
<glyph name="underscore" format="1">
  <advance width="358"/>
  <unicode hex="005F"/>
  <outline>
    <contour>
      <point x="339" y="0" type="line"/>
      <point x="20" y="0" type="line"/>
      <point x="10" y="-56" type="line"/>
      <point x="329" y="-56" type="line"/>
    </contour>
  </outline>
</glyph>
<glyph name="grave" format="1">
  <advance width="238"/>
  <unicode hex="0060"/>
  <outline>
    <contour>
      <point x="240" y="715" type="line"/>
      <point x="238" y="734"/>
      <point x="219" y="745"/>
      <point x="199" y="735" type="curve" smooth="yes"/>
      <point x="180" y="725"/>
      <point x="175" y="702"/>
      <point x="185" y="687" type="curve"/>
      <point x="224" y="608" type="line"/>
      <point x="260" y="608" type="line"/>
    </contour>
  </outline>
</glyph>
<glyph name="a" format="1">
  <advance width="409"/>
  <unicode hex="0061"/>
  <outline>
    <contour>
      <point x="398" y="349" type="curve"/>
      <point x="356" y="375"/>
      <point x="297" y="402"/>
      <point x="232" y="402" type="curve" smooth="yes"/>
      <point x="151" y="402"/>
      <point x="73" y="363"/>
      <point x="53" y="251" type="curve" smooth="yes"/>
      <point x="48" y="223"/>
      <point x="43" y="196"/>
      <point x="38" y="168" type="curve" smooth="yes"/>
      <point x="12" y="21"/>
      <point x="104" y="-14"/>
      <point x="233" y="-10" type="curve" smooth="yes"/>
      <point x="283" y="-9"/>
      <point x="393" y="0"/>
      <point x="393" y="0" type="curve"/>
      <point x="409" y="96"/>
      <point x="426" y="191"/>
      <point x="443" y="287" type="curve" smooth="yes"/>
      <point x="459" y="375"/>
      <point x="463" y="444"/>
      <point x="406" y="480" type="curve" smooth="yes"/>
      <point x="368" y="504"/>
      <point x="320" y="507"/>
      <point x="274" y="507" type="curve"/>
      <point x="264" y="464" type="line"/>
      <point x="301" y="464"/>
      <point x="335" y="461"/>
      <point x="358" y="449" type="curve" smooth="yes"/>
      <point x="392" y="432"/>
      <point x="408" y="404"/>
    </contour>
    <contour>
      <point x="390" y="302" type="curve"/>
      <point x="375" y="217"/>
      <point x="360" y="132"/>
      <point x="345" y="46" type="curve"/>
      <point x="345" y="46"/>
      <point x="303" y="42"/>
      <point x="237" y="38" type="curve" smooth="yes"/>
      <point x="103" y="33"/>
      <point x="78" y="80"/>
      <point x="94" y="175" type="curve" smooth="yes"/>
      <point x="98" y="195"/>
      <point x="103" y="226"/>
      <point x="107" y="249" type="curve" smooth="yes"/>
      <point x="123" y="339"/>
      <point x="183" y="354"/>
      <point x="219" y="354" type="curve" smooth="yes"/>
      <point x="283" y="354"/>
      <point x="340" y="329"/>
    </contour>
  </outline>
</glyph>
<glyph name="b" format="1">
  <advance width="420"/>
  <unicode hex="0062"/>
  <outline>
    <contour>
      <point x="161" y="471" type="curve"/>
      <point x="201" y="698" type="line"/>
      <point x="145" y="698" type="line"/>
      <point x="22" y="0" type="line"/>
      <point x="22" y="0"/>
      <point x="128" y="-9"/>
      <point x="177" y="-10" type="curve" smooth="yes"/>
      <point x="305" y="-14"/>
      <point x="409" y="21"/>
      <point x="435" y="168" type="curve" smooth="yes"/>
      <point x="446" y="231"/>
      <point x="458" y="295"/>
      <point x="469" y="358" type="curve" smooth="yes"/>
      <point x="488" y="470"/>
      <point x="409" y="508"/>
      <point x="329" y="508" type="curve" smooth="yes"/>
      <point x="264" y="508"/>
      <point x="209" y="491"/>
    </contour>
    <contour>
      <point x="86" y="46" type="curve"/>
      <point x="108" y="172"/>
      <point x="130" y="297"/>
      <point x="152" y="422" type="curve"/>
      <point x="210" y="444"/>
      <point x="261" y="461"/>
      <point x="325" y="461" type="curve" smooth="yes"/>
      <point x="363" y="461"/>
      <point x="429" y="446"/>
      <point x="413" y="354" type="curve" smooth="yes"/>
      <point x="409" y="332"/>
      <point x="385" y="195"/>
      <point x="381" y="175" type="curve" smooth="yes"/>
      <point x="365" y="80"/>
      <point x="322" y="33"/>
      <point x="190" y="38" type="curve" smooth="yes"/>
      <point x="126" y="42"/>
      <point x="86" y="46"/>
    </contour>
  </outline>
</glyph>
<glyph name="c" format="1">
  <advance width="344"/>
  <unicode hex="0063"/>
  <outline>
    <contour>
      <point x="390" y="430" type="curve"/>
      <point x="413" y="476" type="line"/>
      <point x="361" y="503"/>
      <point x="296" y="516"/>
      <point x="236" y="504" type="curve" smooth="yes"/>
      <point x="190" y="494"/>
      <point x="147" y="470"/>
      <point x="113" y="426" type="curve" smooth="yes"/>
      <point x="89" y="394"/>
      <point x="76" y="362"/>
      <point x="67" y="318" type="curve"/>
      <point x="41" y="173" type="line" smooth="yes"/>
      <point x="24" y="75"/>
      <point x="59" y="23"/>
      <point x="123" y="1" type="curve" smooth="yes"/>
      <point x="179" y="-18"/>
      <point x="262" y="-13"/>
      <point x="332" y="5" type="curve"/>
      <point x="330" y="55" type="line"/>
      <point x="330" y="55"/>
      <point x="203" y="26"/>
      <point x="144" y="52" type="curve" smooth="yes"/>
      <point x="94" y="71"/>
      <point x="86" y="119"/>
      <point x="98" y="185" type="curve" smooth="yes"/>
      <point x="119" y="305" type="line" smooth="yes"/>
      <point x="126" y="341"/>
      <point x="138" y="371"/>
      <point x="154" y="394" type="curve" smooth="yes"/>
      <point x="176" y="426"/>
      <point x="205" y="446"/>
      <point x="236" y="453" type="curve" smooth="yes"/>
      <point x="281" y="464"/>
      <point x="346" y="452"/>
    </contour>
  </outline>
</glyph>
<glyph name="d" format="1">
  <advance width="419"/>
  <unicode hex="0064"/>
  <outline>
    <contour>
      <point x="396" y="0" type="curve"/>
      <point x="519" y="698" type="line"/>
      <point x="464" y="698" type="line"/>
      <point x="424" y="471" type="line"/>
      <point x="381" y="491"/>
      <point x="332" y="508"/>
      <point x="267" y="508" type="curve" smooth="yes"/>
      <point x="187" y="508"/>
      <point x="94" y="470"/>
      <point x="75" y="358" type="curve" smooth="yes"/>
      <point x="64" y="295"/>
      <point x="52" y="231"/>
      <point x="41" y="168" type="curve" smooth="yes"/>
      <point x="15" y="21"/>
      <point x="108" y="-14"/>
      <point x="238" y="-10" type="curve" smooth="yes"/>
      <point x="286" y="-9"/>
      <point x="396" y="0"/>
    </contour>
    <contour>
      <point x="415" y="422" type="curve"/>
      <point x="393" y="297"/>
      <point x="371" y="172"/>
      <point x="349" y="46" type="curve"/>
      <point x="349" y="46"/>
      <point x="306" y="42"/>
      <point x="241" y="38" type="curve" smooth="yes"/>
      <point x="107" y="33"/>
      <point x="81" y="80"/>
      <point x="97" y="175" type="curve" smooth="yes"/>
      <point x="101" y="195"/>
      <point x="125" y="332"/>
      <point x="129" y="354" type="curve" smooth="yes"/>
      <point x="145" y="446"/>
      <point x="218" y="461"/>
      <point x="255" y="461" type="curve" smooth="yes"/>
      <point x="319" y="461"/>
      <point x="365" y="444"/>
    </contour>
  </outline>
</glyph>
<glyph name="f" format="1">
  <advance width="212"/>
  <unicode hex="0066"/>
  <outline>
    <contour>
      <point x="311" y="656" type="curve"/>
      <point x="329" y="705" type="line"/>
      <point x="318" y="708"/>
      <point x="306" y="708"/>
      <point x="293" y="708" type="curve" smooth="yes"/>
      <point x="228" y="710"/>
      <point x="139" y="673"/>
      <point x="117" y="548" type="curve" smooth="yes"/>
      <point x="21" y="0" type="line"/>
      <point x="77" y="0" type="line"/>
      <point x="155" y="446" type="line"/>
      <point x="246" y="446" type="line"/>
      <point x="278" y="498" type="line"/>
      <point x="164" y="498" type="line"/>
      <point x="167" y="515"/>
      <point x="170" y="531"/>
      <point x="173" y="548" type="curve" smooth="yes"/>
      <point x="186" y="621"/>
      <point x="225" y="658"/>
      <point x="286" y="658" type="curve" smooth="yes"/>
      <point x="294" y="658"/>
      <point x="302" y="657"/>
    </contour>
  </outline>
</glyph>
<glyph name="g" format="1">
  <advance width="400"/>
  <unicode hex="0067"/>
  <outline>
    <contour>
      <point x="369" y="-64" type="curve" smooth="yes"/>
      <point x="468" y="498" type="line"/>
      <point x="411" y="498" type="line"/>
      <point x="403" y="451" type="line"/>
      <point x="365" y="487"/>
      <point x="319" y="506"/>
      <point x="271" y="508" type="curve" smooth="yes"/>
      <point x="163" y="513"/>
      <point x="91" y="450"/>
      <point x="72" y="345" type="curve" smooth="yes"/>
      <point x="42" y="175" type="line" smooth="yes"/>
      <point x="21" y="53"/>
      <point x="68" y="-12"/>
      <point x="180" y="-12" type="curve" smooth="yes"/>
      <point x="240" y="-12"/>
      <point x="304" y="20"/>
      <point x="334" y="61" type="curve"/>
      <point x="312" y="-63" type="line" smooth="yes"/>
      <point x="303" y="-116"/>
      <point x="274" y="-150"/>
      <point x="227" y="-167" type="curve"/>
      <point x="235" y="-210" type="line"/>
      <point x="316" y="-186"/>
      <point x="355" y="-144"/>
    </contour>
    <contour>
      <point x="393" y="392" type="curve"/>
      <point x="354" y="173" type="line" smooth="yes"/>
      <point x="339" y="88"/>
      <point x="269" y="40"/>
      <point x="193" y="40" type="curve" smooth="yes"/>
      <point x="117" y="40"/>
      <point x="82" y="82"/>
      <point x="97" y="166" type="curve" smooth="yes"/>
      <point x="128" y="342" type="line" smooth="yes"/>
      <point x="144" y="432"/>
      <point x="212" y="463"/>
      <point x="274" y="458" type="curve" smooth="yes"/>
      <point x="318" y="454"/>
      <point x="371" y="433"/>
    </contour>
  </outline>
</glyph>
<glyph name="h" format="1">
  <advance width="407"/>
  <unicode hex="0068"/>
  <outline>
    <contour>
      <point x="159" y="465" type="curve"/>
      <point x="201" y="698" type="line"/>
      <point x="145" y="698" type="line"/>
      <point x="22" y="0" type="line"/>
      <point x="78" y="0" type="line"/>
      <point x="152" y="424" type="line"/>
      <point x="197" y="447"/>
      <point x="241" y="458"/>
      <point x="286" y="458" type="curve" smooth="yes"/>
      <point x="349" y="458"/>
      <point x="411" y="432"/>
      <point x="395" y="342" type="curve" smooth="yes"/>
      <point x="335" y="0" type="line"/>
      <point x="391" y="0" type="line"/>
      <point x="451" y="345" type="line" smooth="yes"/>
      <point x="470" y="450"/>
      <point x="416" y="508"/>
      <point x="306" y="508" type="curve" smooth="yes"/>
      <point x="256" y="508"/>
      <point x="203" y="492"/>
    </contour>
  </outline>
</glyph>
<glyph name="i" format="1">
  <advance width="108"/>
  <unicode hex="0069"/>
  <outline>
    <contour>
      <point x="168" y="499" type="line"/>
      <point x="112" y="499" type="line"/>
      <point x="25" y="0" type="line"/>
      <point x="81" y="0" type="line"/>
    </contour>
    <contour>
      <point x="178" y="708" type="curve" smooth="yes"/>
      <point x="159" y="708"/>
      <point x="142" y="693"/>
      <point x="138" y="674" type="curve" smooth="yes"/>
      <point x="135" y="656"/>
      <point x="148" y="641"/>
      <point x="167" y="641" type="curve" smooth="yes"/>
      <point x="184" y="641"/>
      <point x="202" y="656"/>
      <point x="205" y="674" type="curve" smooth="yes"/>
      <point x="209" y="693"/>
      <point x="195" y="708"/>
    </contour>
  </outline>
</glyph>
<glyph name="j" format="1">
  <advance width="158"/>
  <unicode hex="006A"/>
  <outline>
    <contour>
      <point x="119" y="-63" type="curve" smooth="yes"/>
      <point x="218" y="499" type="line"/>
      <point x="98" y="499" type="line"/>
      <point x="89" y="447" type="line"/>
      <point x="153" y="447" type="line"/>
      <point x="64" y="-62" type="line" smooth="yes"/>
      <point x="59" y="-90"/>
      <point x="49" y="-113"/>
      <point x="32" y="-131" type="curve" smooth="yes"/>
      <point x="19" y="-146"/>
      <point x="2" y="-158"/>
      <point x="-20" y="-166" type="curve"/>
      <point x="-11" y="-209" type="line"/>
      <point x="23" y="-198"/>
      <point x="48" y="-185"/>
      <point x="69" y="-166" type="curve" smooth="yes"/>
      <point x="97" y="-141"/>
      <point x="111" y="-108"/>
    </contour>
    <contour>
      <point x="257" y="674" type="curve" smooth="yes"/>
      <point x="261" y="693"/>
      <point x="247" y="707"/>
      <point x="229" y="707" type="curve" smooth="yes"/>
      <point x="210" y="707"/>
      <point x="193" y="693"/>
      <point x="189" y="674" type="curve" smooth="yes"/>
      <point x="186" y="656"/>
      <point x="199" y="641"/>
      <point x="218" y="641" type="curve" smooth="yes"/>
      <point x="236" y="641"/>
      <point x="254" y="656"/>
    </contour>
  </outline>
</glyph>
<glyph name="k" format="1">
  <advance width="392"/>
  <unicode hex="006B"/>
  <outline>
    <contour>
      <point x="231" y="351" type="curve"/>
      <point x="402" y="480" type="line"/>
      <point x="369" y="518" type="line"/>
      <point x="136" y="334" type="line"/>
      <point x="201" y="698" type="line"/>
      <point x="145" y="698" type="line"/>
      <point x="22" y="0" type="line"/>
      <point x="78" y="0" type="line"/>
      <point x="125" y="272" type="line"/>
      <point x="185" y="316" type="line"/>
      <point x="321" y="0" type="line"/>
      <point x="388" y="0" type="line"/>
      <point x="315" y="158"/>
      <point x="263" y="276"/>
    </contour>
  </outline>
</glyph>
<glyph name="m" format="1">
  <advance width="678"/>
  <unicode hex="006D"/>
  <outline>
    <contour>
      <point x="667" y="341" type="curve" smooth="yes"/>
      <point x="607" y="0" type="line"/>
      <point x="660" y="0" type="line"/>
      <point x="720" y="343" type="line" smooth="yes"/>
      <point x="739" y="449"/>
      <point x="696" y="507"/>
      <point x="585" y="507" type="curve" smooth="yes"/>
      <point x="542" y="507"/>
      <point x="480" y="492"/>
      <point x="418" y="451" type="curve"/>
      <point x="397" y="487"/>
      <point x="356" y="507"/>
      <point x="293" y="507" type="curve" smooth="yes"/>
      <point x="243" y="507"/>
      <point x="202" y="491"/>
      <point x="156" y="464" type="curve"/>
      <point x="162" y="498" type="line"/>
      <point x="106" y="498" type="line"/>
      <point x="19" y="0" type="line"/>
      <point x="75" y="0" type="line"/>
      <point x="149" y="422" type="line"/>
      <point x="194" y="446"/>
      <point x="228" y="457"/>
      <point x="274" y="457" type="curve" smooth="yes"/>
      <point x="337" y="457"/>
      <point x="390" y="431"/>
      <point x="375" y="341" type="curve" smooth="yes"/>
      <point x="315" y="0" type="line"/>
      <point x="367" y="0" type="line"/>
      <point x="427" y="343" type="line" smooth="yes"/>
      <point x="432" y="371"/>
      <point x="433" y="396"/>
      <point x="429" y="417" type="curve"/>
      <point x="482" y="446"/>
      <point x="527" y="457"/>
      <point x="566" y="457" type="curve" smooth="yes"/>
      <point x="630" y="457"/>
      <point x="682" y="431"/>
    </contour>
  </outline>
</glyph>
<glyph name="p" format="1">
  <advance width="404"/>
  <unicode hex="0070"/>
  <outline>
    <contour>
      <point x="419" y="175" type="curve" smooth="yes"/>
      <point x="449" y="345" type="line" smooth="yes"/>
      <point x="468" y="450"/>
      <point x="419" y="513"/>
      <point x="308" y="508" type="curve" smooth="yes"/>
      <point x="259" y="506"/>
      <point x="205" y="487"/>
      <point x="156" y="451" type="curve"/>
      <point x="164" y="498" type="line"/>
      <point x="107" y="498" type="line"/>
      <point x="-15" y="-199" type="line"/>
      <point x="39" y="-212" type="line"/>
      <point x="87" y="61" type="line"/>
      <point x="103" y="20"/>
      <point x="154" y="-12"/>
      <point x="216" y="-12" type="curve" smooth="yes"/>
      <point x="327" y="-12"/>
      <point x="398" y="53"/>
    </contour>
    <contour>
      <point x="392" y="342" type="curve" smooth="yes"/>
      <point x="361" y="166" type="line" smooth="yes"/>
      <point x="346" y="82"/>
      <point x="297" y="40"/>
      <point x="223" y="40" type="curve" smooth="yes"/>
      <point x="146" y="40"/>
      <point x="92" y="88"/>
      <point x="107" y="173" type="curve" smooth="yes"/>
      <point x="146" y="392" type="line"/>
      <point x="183" y="433"/>
      <point x="243" y="454"/>
      <point x="287" y="458" type="curve" smooth="yes"/>
      <point x="352" y="463"/>
      <point x="408" y="432"/>
    </contour>
  </outline>
</glyph>
<glyph name="q" format="1">
  <advance width="400"/>
  <unicode hex="0071"/>
  <outline>
    <contour>
      <point x="334" y="62" type="curve"/>
      <point x="289" y="-198" type="line"/>
      <point x="343" y="-211" type="line"/>
      <point x="468" y="498" type="line"/>
      <point x="411" y="498" type="line"/>
      <point x="403" y="452" type="line"/>
      <point x="366" y="488"/>
      <point x="319" y="507"/>
      <point x="271" y="509" type="curve" smooth="yes"/>
      <point x="163" y="514"/>
      <point x="91" y="451"/>
      <point x="72" y="345" type="curve" smooth="yes"/>
      <point x="43" y="176" type="line" smooth="yes"/>
      <point x="21" y="54"/>
      <point x="69" y="-11"/>
      <point x="181" y="-11" type="curve" smooth="yes"/>
      <point x="241" y="-11"/>
      <point x="304" y="21"/>
    </contour>
    <contour>
      <point x="393" y="393" type="curve"/>
      <point x="354" y="173" type="line" smooth="yes"/>
      <point x="339" y="88"/>
      <point x="269" y="41"/>
      <point x="193" y="41" type="curve" smooth="yes"/>
      <point x="117" y="41"/>
      <point x="82" y="84"/>
      <point x="97" y="167" type="curve" smooth="yes"/>
      <point x="128" y="343" type="line" smooth="yes"/>
      <point x="144" y="433"/>
      <point x="212" y="463"/>
      <point x="274" y="459" type="curve" smooth="yes"/>
      <point x="318" y="455"/>
      <point x="371" y="435"/>
    </contour>
  </outline>
</glyph>
<glyph name="r" format="1">
  <advance width="294"/>
  <unicode hex="0072"/>
  <outline>
    <contour>
      <point x="366" y="459" type="curve"/>
      <point x="379" y="507" type="line"/>
      <point x="379" y="507"/>
      <point x="359" y="512"/>
      <point x="334" y="510" type="curve" smooth="yes"/>
      <point x="262" y="507"/>
      <point x="210" y="488"/>
      <point x="157" y="466" type="curve"/>
      <point x="162" y="499" type="line"/>
      <point x="106" y="499" type="line"/>
      <point x="19" y="0" type="line"/>
      <point x="75" y="0" type="line"/>
      <point x="146" y="408" type="line"/>
      <point x="188" y="433"/>
      <point x="267" y="457"/>
      <point x="325" y="460" type="curve" smooth="yes"/>
      <point x="346" y="461"/>
      <point x="366" y="459"/>
    </contour>
  </outline>
</glyph>
<glyph name="t" format="1">
  <advance width="204"/>
  <unicode hex="0074"/>
  <outline>
    <contour>
      <point x="99" y="132" type="curve" smooth="yes"/>
      <point x="154" y="447" type="line"/>
      <point x="250" y="447" type="line"/>
      <point x="283" y="499" type="line"/>
      <point x="163" y="499" type="line"/>
      <point x="199" y="698" type="line"/>
      <point x="143" y="698" type="line"/>
      <point x="43" y="132" type="line" smooth="yes"/>
      <point x="29" y="53"/>
      <point x="52" y="8"/>
      <point x="122" y="-13" type="curve"/>
      <point x="147" y="30" type="line"/>
      <point x="105" y="45"/>
      <point x="89" y="79"/>
    </contour>
  </outline>
</glyph>
<glyph name="u" format="1">
  <advance width="404"/>
  <unicode hex="0075"/>
  <outline>
    <contour>
      <point x="336" y="48" type="curve"/>
      <point x="328" y="0" type="line"/>
      <point x="384" y="0" type="line"/>
      <point x="471" y="499" type="line"/>
      <point x="415" y="499" type="line"/>
      <point x="358" y="172" type="line" smooth="yes"/>
      <point x="345" y="101"/>
      <point x="279" y="44"/>
      <point x="208" y="44" type="curve" smooth="yes"/>
      <point x="144" y="44"/>
      <point x="82" y="68"/>
      <point x="99" y="159" type="curve" smooth="yes"/>
      <point x="158" y="499" type="line"/>
      <point x="102" y="499" type="line"/>
      <point x="42" y="156" type="line" smooth="yes"/>
      <point x="22" y="43"/>
      <point x="76" y="-10"/>
      <point x="187" y="-10" type="curve" smooth="yes"/>
      <point x="237" y="-10"/>
      <point x="295" y="9"/>
    </contour>
  </outline>
</glyph>
<glyph name="v" format="1">
  <advance width="391"/>
  <unicode hex="0076"/>
  <outline>
    <contour>
      <point x="230" y="0" type="line"/>
      <point x="472" y="499" type="line"/>
      <point x="413" y="499" type="line"/>
      <point x="203" y="58" type="line"/>
      <point x="146" y="499" type="line"/>
      <point x="88" y="499" type="line"/>
      <point x="153" y="0" type="line"/>
    </contour>
  </outline>
</glyph>
<glyph name="w" format="1">
  <advance width="671"/>
  <unicode hex="0077"/>
  <outline>
    <contour>
      <point x="203" y="57" type="line"/>
      <point x="146" y="498" type="line"/>
      <point x="88" y="498" type="line"/>
      <point x="153" y="0" type="line"/>
      <point x="230" y="0" type="line"/>
      <point x="403" y="404" type="line"/>
      <point x="432" y="0" type="line"/>
      <point x="509" y="0" type="line"/>
      <point x="751" y="498" type="line"/>
      <point x="692" y="498" type="line"/>
      <point x="482" y="57" type="line"/>
      <point x="449" y="498" type="line"/>
      <point x="392" y="498" type="line"/>
    </contour>
  </outline>
</glyph>
<glyph name="x" format="1">
  <advance width="400"/>
  <unicode hex="0078"/>
  <outline>
    <contour>
      <point x="99" y="498" type="line"/>
      <point x="211" y="248" type="line"/>
      <point x="12" y="0" type="line"/>
      <point x="78" y="0" type="line"/>
      <point x="235" y="197" type="line"/>
      <point x="323" y="0" type="line"/>
      <point x="389" y="0" type="line"/>
      <point x="276" y="248" type="line"/>
      <point x="476" y="498" type="line"/>
      <point x="414" y="498" type="line"/>
      <point x="253" y="299" type="line"/>
      <point x="163" y="498" type="line"/>
    </contour>
  </outline>
</glyph>
<glyph name="z" format="1">
  <advance width="391"/>
  <unicode hex="007A"/>
  <outline>
    <contour>
      <point x="101" y="449" type="line"/>
      <point x="366" y="449" type="line"/>
      <point x="21" y="50" type="line"/>
      <point x="13" y="0" type="line"/>
      <point x="380" y="0" type="line"/>
      <point x="388" y="51" type="line"/>
      <point x="90" y="51" type="line"/>
      <point x="438" y="450" type="line"/>
      <point x="446" y="499" type="line"/>
      <point x="109" y="499" type="line"/>
    </contour>
  </outline>
</glyph>
<glyph name="braceleft" format="1">
  <advance width="245"/>
  <unicode hex="007B"/>
  <outline>
    <contour>
      <point x="245" y="515" type="curve" smooth="yes"/>
      <point x="265" y="628" type="line" smooth="yes"/>
      <point x="281" y="717"/>
      <point x="333" y="757"/>
      <point x="366" y="772" type="curve"/>
      <point x="352" y="820" type="line"/>
      <point x="348" y="818"/>
      <point x="237" y="789"/>
      <point x="208" y="628" type="curve" smooth="yes"/>
      <point x="188" y="515" type="line" smooth="yes"/>
      <point x="178" y="459"/>
      <point x="163" y="408"/>
      <point x="92" y="360" type="curve" smooth="yes"/>
      <point x="80" y="352" type="line"/>
      <point x="89" y="344" type="line" smooth="yes"/>
      <point x="144" y="295"/>
      <point x="141" y="245"/>
      <point x="131" y="189" type="curve" smooth="yes"/>
      <point x="111" y="76" type="line" smooth="yes"/>
      <point x="83" y="-85"/>
      <point x="181" y="-114"/>
      <point x="187" y="-117" type="curve"/>
      <point x="219" y="-67" type="line"/>
      <point x="190" y="-52"/>
      <point x="152" y="-13"/>
      <point x="168" y="76" type="curve" smooth="yes"/>
      <point x="188" y="189" type="line" smooth="yes"/>
      <point x="198" y="245"/>
      <point x="202" y="300"/>
      <point x="150" y="352" type="curve"/>
      <point x="221" y="404"/>
      <point x="235" y="459"/>
    </contour>
  </outline>
</glyph>
<glyph name="braceright" format="1">
  <advance width="245"/>
  <unicode hex="007D"/>
  <outline>
    <contour>
      <point x="181" y="820" type="curve"/>
      <point x="151" y="772" type="line"/>
      <point x="177" y="757"/>
      <point x="216" y="717"/>
      <point x="200" y="628" type="curve" smooth="yes"/>
      <point x="180" y="515" type="line" smooth="yes"/>
      <point x="170" y="459"/>
      <point x="166" y="404"/>
      <point x="218" y="352" type="curve"/>
      <point x="147" y="300"/>
      <point x="133" y="245"/>
      <point x="123" y="189" type="curve" smooth="yes"/>
      <point x="103" y="76" type="line" smooth="yes"/>
      <point x="87" y="-13"/>
      <point x="34" y="-52"/>
      <point x="2" y="-67" type="curve"/>
      <point x="15" y="-117" type="line"/>
      <point x="21" y="-114"/>
      <point x="131" y="-85"/>
      <point x="159" y="76" type="curve" smooth="yes"/>
      <point x="179" y="189" type="line" smooth="yes"/>
      <point x="189" y="245"/>
      <point x="204" y="295"/>
      <point x="276" y="344" type="curve" smooth="yes"/>
      <point x="289" y="352" type="line"/>
      <point x="279" y="360" type="line" smooth="yes"/>
      <point x="223" y="408"/>
      <point x="226" y="459"/>
      <point x="236" y="515" type="curve" smooth="yes"/>
      <point x="256" y="628" type="line" smooth="yes"/>
      <point x="285" y="789"/>
      <point x="186" y="818"/>
    </contour>
  </outline>
</glyph>
<glyph name="asciitilde" format="1">
  <advance width="346"/>
  <unicode hex="007E"/>
  <outline>
    <contour>
      <point x="380" y="305" type="curve"/>
      <point x="363" y="346" type="line"/>
      <point x="344" y="329"/>
      <point x="322" y="318"/>
      <point x="296" y="317" type="curve" smooth="yes"/>
      <point x="249" y="316"/>
      <point x="212" y="353"/>
      <point x="162" y="353" type="curve" smooth="yes"/>
      <point x="136" y="353"/>
      <point x="107" y="343"/>
      <point x="73" y="312" type="curve"/>
      <point x="88" y="271" type="line"/>
      <point x="116" y="293"/>
      <point x="139" y="299"/>
      <point x="160" y="298" type="curve" smooth="yes"/>
      <point x="205" y="296"/>
      <point x="242" y="262"/>
      <point x="289" y="262" type="curve" smooth="yes"/>
      <point x="314" y="261"/>
      <point x="343" y="272"/>
    </contour>
  </outline>
</glyph>
<glyph name="exclamdown" format="1">
  <advance width="110"/>
  <unicode hex="00A1"/>
  <outline>
    <contour>
      <point x="94" y="36" type="curve" smooth="yes"/>
      <point x="182" y="588" type="line"/>
      <point x="135" y="588" type="line"/>
      <point x="28" y="37" type="line"/>
      <point x="24" y="12"/>
      <point x="33" y="0"/>
      <point x="55" y="0" type="curve" smooth="yes"/>
      <point x="77" y="0"/>
      <point x="90" y="12"/>
    </contour>
    <contour>
      <point x="206" y="674" type="curve" smooth="yes"/>
      <point x="210" y="693"/>
      <point x="198" y="707"/>
      <point x="179" y="707" type="curve" smooth="yes"/>
      <point x="160" y="707"/>
      <point x="143" y="693"/>
      <point x="139" y="674" type="curve" smooth="yes"/>
      <point x="136" y="656"/>
      <point x="149" y="641"/>
      <point x="168" y="641" type="curve" smooth="yes"/>
      <point x="187" y="641"/>
      <point x="203" y="656"/>
    </contour>
  </outline>
</glyph>
<glyph name="cent" format="1">
  <advance width="356"/>
  <unicode hex="00A2"/>
  <outline>
    <contour>
      <point x="396" y="430" type="curve"/>
      <point x="420" y="476" type="line"/>
      <point x="367" y="503"/>
      <point x="302" y="516"/>
      <point x="243" y="504" type="curve" smooth="yes"/>
      <point x="197" y="494"/>
      <point x="153" y="470"/>
      <point x="121" y="426" type="curve" smooth="yes"/>
      <point x="95" y="394"/>
      <point x="83" y="362"/>
      <point x="74" y="318" type="curve"/>
      <point x="48" y="173" type="line" smooth="yes"/>
      <point x="31" y="75"/>
      <point x="66" y="23"/>
      <point x="130" y="1" type="curve" smooth="yes"/>
      <point x="185" y="-18"/>
      <point x="269" y="-13"/>
      <point x="339" y="5" type="curve"/>
      <point x="337" y="55" type="line"/>
      <point x="337" y="55"/>
      <point x="210" y="26"/>
      <point x="151" y="52" type="curve" smooth="yes"/>
      <point x="101" y="71"/>
      <point x="93" y="119"/>
      <point x="105" y="185" type="curve" smooth="yes"/>
      <point x="126" y="305" type="line" smooth="yes"/>
      <point x="132" y="340"/>
      <point x="144" y="371"/>
      <point x="160" y="394" type="curve" smooth="yes"/>
      <point x="183" y="426"/>
      <point x="211" y="446"/>
      <point x="243" y="453" type="curve" smooth="yes"/>
      <point x="288" y="464"/>
      <point x="353" y="452"/>
    </contour>
    <contour>
      <point x="341" y="621" type="line"/>
      <point x="285" y="621" type="line"/>
      <point x="156" y="-113" type="line"/>
      <point x="212" y="-113" type="line"/>
    </contour>
  </outline>
</glyph>
<glyph name="sterling" format="1">
  <advance width="398"/>
  <unicode hex="00A3"/>
  <outline>
    <contour>
      <point x="108" y="53" type="curve" smooth="yes"/>
      <point x="29" y="53" type="line"/>
      <point x="20" y="0" type="line"/>
      <point x="378" y="0" type="line"/>
      <point x="387" y="53" type="line"/>
      <point x="265" y="53" type="line"/>
      <point x="284" y="64"/>
      <point x="299" y="77"/>
      <point x="313" y="94" type="curve" smooth="yes"/>
      <point x="375" y="167"/>
      <point x="378" y="254"/>
      <point x="332" y="324" type="curve"/>
      <point x="329" y="329"/>
      <point x="325" y="334"/>
      <point x="322" y="339" type="curve"/>
      <point x="437" y="339" type="line"/>
      <point x="447" y="396" type="line"/>
      <point x="281" y="396" type="line"/>
      <point x="264" y="419"/>
      <point x="249" y="441"/>
      <point x="241" y="453" type="curve" smooth="yes"/>
      <point x="206" y="506"/>
      <point x="188" y="559"/>
      <point x="224" y="605" type="curve" smooth="yes"/>
      <point x="247" y="637"/>
      <point x="279" y="651"/>
      <point x="313" y="654" type="curve" smooth="yes"/>
      <point x="355" y="659"/>
      <point x="398" y="645"/>
      <point x="436" y="620" type="curve"/>
      <point x="463" y="669" type="line"/>
      <point x="416" y="697"/>
      <point x="358" y="712"/>
      <point x="304" y="705" type="curve" smooth="yes"/>
      <point x="258" y="700"/>
      <point x="213" y="680"/>
      <point x="180" y="635" type="curve" smooth="yes"/>
      <point x="122" y="555"/>
      <point x="148" y="485"/>
      <point x="193" y="419" type="curve" smooth="yes"/>
      <point x="196" y="414"/>
      <point x="202" y="405"/>
      <point x="209" y="396" type="curve"/>
      <point x="89" y="396" type="line"/>
      <point x="79" y="339" type="line"/>
      <point x="250" y="339" type="line"/>
      <point x="262" y="323"/>
      <point x="273" y="307"/>
      <point x="284" y="291" type="curve" smooth="yes"/>
      <point x="324" y="234"/>
      <point x="312" y="168"/>
      <point x="266" y="118" type="curve" smooth="yes"/>
      <point x="217" y="61"/>
      <point x="155" y="53"/>
    </contour>
  </outline>
</glyph>
<glyph name="currency" format="1">
  <advance width="438"/>
  <unicode hex="00A4"/>
  <outline>
    <contour>
      <point x="401" y="365" type="curve"/>
      <point x="497" y="448" type="line"/>
      <point x="469" y="483" type="line"/>
      <point x="371" y="400" type="line"/>
      <point x="351" y="418"/>
      <point x="325" y="428"/>
      <point x="294" y="428" type="curve" smooth="yes"/>
      <point x="262" y="428"/>
      <point x="231" y="418"/>
      <point x="204" y="400" type="curve"/>
      <point x="138" y="483" type="line"/>
      <point x="96" y="448" type="line"/>
      <point x="163" y="365" type="line"/>
      <point x="142" y="342"/>
      <point x="129" y="313"/>
      <point x="123" y="283" type="curve" smooth="yes"/>
      <point x="118" y="251"/>
      <point x="123" y="222"/>
      <point x="135" y="199" type="curve"/>
      <point x="38" y="117" type="line"/>
      <point x="67" y="81" type="line"/>
      <point x="163" y="164" type="line"/>
      <point x="183" y="147"/>
      <point x="211" y="137"/>
      <point x="243" y="137" type="curve" smooth="yes"/>
      <point x="274" y="137"/>
      <point x="302" y="147"/>
      <point x="329" y="164" type="curve"/>
      <point x="398" y="81" type="line"/>
      <point x="439" y="117" type="line"/>
      <point x="372" y="199" type="line"/>
      <point x="392" y="222"/>
      <point x="407" y="251"/>
      <point x="412" y="283" type="curve" smooth="yes"/>
      <point x="418" y="313"/>
      <point x="413" y="342"/>
    </contour>
    <contour>
      <point x="252" y="188" type="curve" smooth="yes"/>
      <point x="199" y="188"/>
      <point x="164" y="230"/>
      <point x="173" y="283" type="curve" smooth="yes"/>
      <point x="182" y="334"/>
      <point x="232" y="376"/>
      <point x="285" y="376" type="curve" smooth="yes"/>
      <point x="337" y="376"/>
      <point x="370" y="334"/>
      <point x="361" y="283" type="curve" smooth="yes"/>
      <point x="352" y="230"/>
      <point x="304" y="188"/>
    </contour>
  </outline>
</glyph>
<glyph name="yen" format="1">
  <advance width="502"/>
  <unicode hex="00A5"/>
  <outline>
    <contour>
      <point x="249" y="148" type="line"/>
      <point x="117" y="148" type="line"/>
      <point x="107" y="94" type="line"/>
      <point x="239" y="94" type="line"/>
      <point x="223" y="0" type="line"/>
      <point x="279" y="0" type="line"/>
      <point x="295" y="94" type="line"/>
      <point x="426" y="94" type="line"/>
      <point x="436" y="148" type="line"/>
      <point x="305" y="148" type="line"/>
      <point x="313" y="198" type="line"/>
      <point x="444" y="198" type="line"/>
      <point x="454" y="253" type="line"/>
      <point x="323" y="253" type="line"/>
      <point x="339" y="341" type="line"/>
      <point x="609" y="698" type="line"/>
      <point x="547" y="698" type="line"/>
      <point x="321" y="405" type="line"/>
      <point x="202" y="698" type="line"/>
      <point x="138" y="698" type="line"/>
      <point x="282" y="339" type="line"/>
      <point x="267" y="253" type="line"/>
      <point x="135" y="253" type="line"/>
      <point x="125" y="198" type="line"/>
      <point x="257" y="198" type="line"/>
    </contour>
  </outline>
</glyph>
<glyph name="copyright" format="1">
  <advance width="668"/>
  <unicode hex="00A9"/>
  <outline>
    <contour>
      <point x="681" y="187" type="curve" smooth="yes"/>
      <point x="706" y="326" type="line" smooth="yes"/>
      <point x="736" y="496"/>
      <point x="619" y="581"/>
      <point x="435" y="582" type="curve" smooth="yes"/>
      <point x="252" y="581"/>
      <point x="105" y="496"/>
      <point x="75" y="326" type="curve" smooth="yes"/>
      <point x="50" y="187" type="line" smooth="yes"/>
      <point x="20" y="16"/>
      <point x="138" y="-68"/>
      <point x="320" y="-69" type="curve" smooth="yes"/>
      <point x="505" y="-68"/>
      <point x="651" y="16"/>
    </contour>
    <contour>
      <point x="643" y="301" type="curve" smooth="yes"/>
      <point x="627" y="211" type="line" smooth="yes"/>
      <point x="598" y="48"/>
      <point x="505" y="-13"/>
      <point x="330" y="-15" type="curve" smooth="yes"/>
      <point x="155" y="-13"/>
      <point x="85" y="48"/>
      <point x="114" y="211" type="curve" smooth="yes"/>
      <point x="130" y="301" type="line" smooth="yes"/>
      <point x="158" y="464"/>
      <point x="250" y="526"/>
      <point x="426" y="528" type="curve" smooth="yes"/>
      <point x="600" y="526"/>
      <point x="671" y="464"/>
    </contour>
    <contour>
      <point x="539" y="383" type="curve"/>
      <point x="562" y="420" type="line"/>
      <point x="523" y="442"/>
      <point x="476" y="453"/>
      <point x="425" y="453" type="curve" smooth="yes"/>
      <point x="385" y="453"/>
      <point x="347" y="446"/>
      <point x="315" y="428" type="curve" smooth="yes"/>
      <point x="251" y="393"/>
      <point x="212" y="337"/>
      <point x="196" y="249" type="curve" smooth="yes"/>
      <point x="182" y="165"/>
      <point x="205" y="110"/>
      <point x="248" y="82" type="curve"/>
      <point x="293" y="58"/>
      <point x="340" y="58"/>
      <point x="361" y="58" type="curve" smooth="yes"/>
      <point x="413" y="58"/>
      <point x="468" y="68"/>
      <point x="528" y="90" type="curve"/>
      <point x="525" y="137" type="line"/>
      <point x="464" y="118"/>
      <point x="415" y="108"/>
      <point x="375" y="108" type="curve" smooth="yes"/>
      <point x="329" y="108"/>
      <point x="298" y="117"/>
      <point x="278" y="133" type="curve" smooth="yes"/>
      <point x="248" y="158"/>
      <point x="245" y="202"/>
      <point x="254" y="254" type="curve" smooth="yes"/>
      <point x="264" y="310"/>
      <point x="289" y="352"/>
      <point x="327" y="376" type="curve" smooth="yes"/>
      <point x="355" y="394"/>
      <point x="391" y="404"/>
      <point x="435" y="404" type="curve" smooth="yes"/>
      <point x="469" y="404"/>
      <point x="504" y="396"/>
    </contour>
  </outline>
</glyph>
<glyph name="ordfeminine" format="1">
  <advance width="287"/>
  <unicode hex="00AA"/>
  <outline>
    <contour>
      <point x="340" y="389" type="curve"/>
      <point x="350" y="444"/>
      <point x="359" y="498"/>
      <point x="369" y="553" type="curve" smooth="yes"/>
      <point x="380" y="614"/>
      <point x="372" y="653"/>
      <point x="348" y="676" type="curve" smooth="yes"/>
      <point x="325" y="698"/>
      <point x="286" y="707"/>
      <point x="231" y="707" type="curve"/>
      <point x="220" y="664" type="line"/>
      <point x="257" y="664"/>
      <point x="288" y="661"/>
      <point x="303" y="649" type="curve" smooth="yes"/>
      <point x="323" y="635"/>
      <point x="328" y="614"/>
      <point x="324" y="591" type="curve"/>
      <point x="284" y="616"/>
      <point x="249" y="628"/>
      <point x="218" y="629" type="curve" smooth="yes"/>
      <point x="151" y="631"/>
      <point x="105" y="583"/>
      <point x="94" y="517" type="curve" smooth="yes"/>
      <point x="75" y="410"/>
      <point x="131" y="380"/>
      <point x="217" y="378" type="curve" smooth="yes"/>
      <point x="253" y="378"/>
      <point x="295" y="383"/>
    </contour>
    <contour>
      <point x="313" y="541" type="curve"/>
      <point x="293" y="428" type="line"/>
      <point x="293" y="428"/>
      <point x="209" y="416"/>
      <point x="174" y="432" type="curve" smooth="yes"/>
      <point x="144" y="447"/>
      <point x="133" y="472"/>
      <point x="140" y="512" type="curve" smooth="yes"/>
      <point x="149" y="563"/>
      <point x="173" y="582"/>
      <point x="205" y="582" type="curve" smooth="yes"/>
      <point x="237" y="582"/>
      <point x="277" y="565"/>
    </contour>
  </outline>
</glyph>
<glyph name="registered" format="1">
  <advance width="668"/>
  <unicode hex="00AE"/>
  <outline>
    <contour>
      <point x="681" y="187" type="curve" smooth="yes"/>
      <point x="706" y="326" type="line" smooth="yes"/>
      <point x="736" y="496"/>
      <point x="619" y="581"/>
      <point x="435" y="582" type="curve" smooth="yes"/>
      <point x="252" y="581"/>
      <point x="105" y="496"/>
      <point x="75" y="326" type="curve" smooth="yes"/>
      <point x="50" y="187" type="line" smooth="yes"/>
      <point x="20" y="16"/>
      <point x="138" y="-68"/>
      <point x="320" y="-69" type="curve" smooth="yes"/>
      <point x="505" y="-68"/>
      <point x="651" y="16"/>
    </contour>
    <contour>
      <point x="641" y="301" type="curve" smooth="yes"/>
      <point x="625" y="211" type="line" smooth="yes"/>
      <point x="596" y="48"/>
      <point x="505" y="-13"/>
      <point x="330" y="-15" type="curve" smooth="yes"/>
      <point x="155" y="-13"/>
      <point x="85" y="48"/>
      <point x="114" y="211" type="curve" smooth="yes"/>
      <point x="130" y="301" type="line" smooth="yes"/>
      <point x="158" y="464"/>
      <point x="250" y="526"/>
      <point x="426" y="528" type="curve" smooth="yes"/>
      <point x="600" y="526"/>
      <point x="669" y="464"/>
    </contour>
    <contour>
      <point x="244" y="442" type="line"/>
      <point x="177" y="59" type="line"/>
      <point x="230" y="59" type="line"/>
      <point x="251" y="176" type="line"/>
      <point x="400" y="176" type="line"/>
      <point x="436" y="59" type="line"/>
      <point x="500" y="59" type="line"/>
      <point x="459" y="185" type="line"/>
      <point x="500" y="197"/>
      <point x="542" y="229"/>
      <point x="555" y="311" type="curve" smooth="yes"/>
      <point x="574" y="430"/>
      <point x="501" y="442"/>
      <point x="448" y="442" type="curve" smooth="yes"/>
    </contour>
    <contour>
      <point x="414" y="232" type="curve" smooth="yes"/>
      <point x="260" y="232" type="line"/>
      <point x="288" y="388" type="line"/>
      <point x="442" y="388" type="line" smooth="yes"/>
      <point x="495" y="388"/>
      <point x="513" y="365"/>
      <point x="503" y="310" type="curve" smooth="yes"/>
      <point x="494" y="256"/>
      <point x="465" y="232"/>
    </contour>
  </outline>
</glyph>
<glyph name="degree" format="1">
  <advance width="324"/>
  <unicode hex="00B0"/>
  <outline>
    <contour>
      <point x="406" y="563" type="curve" smooth="yes"/>
      <point x="420" y="643"/>
      <point x="366" y="708"/>
      <point x="286" y="708" type="curve" smooth="yes"/>
      <point x="205" y="708"/>
      <point x="129" y="643"/>
      <point x="115" y="563" type="curve" smooth="yes"/>
      <point x="101" y="483"/>
      <point x="154" y="418"/>
      <point x="235" y="418" type="curve" smooth="yes"/>
      <point x="315" y="418"/>
      <point x="392" y="483"/>
    </contour>
    <contour>
      <point x="278" y="658" type="curve" smooth="yes"/>
      <point x="329" y="658"/>
      <point x="364" y="615"/>
      <point x="355" y="563" type="curve" smooth="yes"/>
      <point x="346" y="512"/>
      <point x="295" y="469"/>
      <point x="244" y="469" type="curve" smooth="yes"/>
      <point x="192" y="469"/>
      <point x="157" y="512"/>
      <point x="166" y="563" type="curve" smooth="yes"/>
      <point x="175" y="615"/>
      <point x="226" y="658"/>
    </contour>
  </outline>
</glyph>
<glyph name="plusminus" format="1">
  <advance width="358"/>
  <unicode hex="00B1"/>
  <outline>
    <contour>
      <point x="196" y="246" type="line"/>
      <point x="62" y="246" type="line"/>
      <point x="52" y="189" type="line"/>
      <point x="371" y="189" type="line"/>
      <point x="381" y="246" type="line"/>
      <point x="251" y="246" type="line"/>
      <point x="274" y="377" type="line"/>
      <point x="405" y="377" type="line"/>
      <point x="414" y="431" type="line"/>
      <point x="283" y="431" type="line"/>
      <point x="307" y="563" type="line"/>
      <point x="252" y="563" type="line"/>
      <point x="228" y="431" type="line"/>
      <point x="95" y="431" type="line"/>
      <point x="86" y="377" type="line"/>
      <point x="219" y="377" type="line"/>
    </contour>
  </outline>
</glyph>
<glyph name="guillemotright" format="1">
  <advance width="479"/>
  <unicode hex="00BB"/>
  <outline>
    <contour>
      <point x="67" y="79" type="line"/>
      <point x="287" y="266" type="line"/>
      <point x="133" y="453" type="line"/>
      <point x="91" y="416" type="line"/>
      <point x="213" y="266" type="line"/>
      <point x="39" y="113" type="line"/>
    </contour>
    <contour>
      <point x="287" y="79" type="line"/>
      <point x="506" y="266" type="line"/>
      <point x="353" y="453" type="line"/>
      <point x="310" y="416" type="line"/>
      <point x="432" y="266" type="line"/>
      <point x="258" y="113" type="line"/>
    </contour>
  </outline>
</glyph>
<glyph name="questiondown" format="1">
  <advance width="386"/>
  <unicode hex="00BF"/>
  <outline>
    <contour>
      <point x="395" y="161" type="curve"/>
      <point x="339" y="161" type="line"/>
      <point x="324" y="76"/>
      <point x="257" y="35"/>
      <point x="196" y="37" type="curve" smooth="yes"/>
      <point x="137" y="38"/>
      <point x="87" y="80"/>
      <point x="100" y="157" type="curve" smooth="yes"/>
      <point x="112" y="224"/>
      <point x="158" y="260"/>
      <point x="204" y="302" type="curve" smooth="yes"/>
      <point x="248" y="345"/>
      <point x="297" y="393"/>
      <point x="312" y="480" type="curve" smooth="yes"/>
      <point x="328" y="572" type="line"/>
      <point x="276" y="572" type="line"/>
      <point x="271" y="543"/>
      <point x="266" y="514"/>
      <point x="261" y="485" type="curve" smooth="yes"/>
      <point x="246" y="402"/>
      <point x="204" y="371"/>
      <point x="157" y="326" type="curve" smooth="yes"/>
      <point x="104" y="275"/>
      <point x="58" y="229"/>
      <point x="45" y="155" type="curve" smooth="yes"/>
      <point x="26" y="48"/>
      <point x="99" y="-14"/>
      <point x="187" y="-15" type="curve" smooth="yes"/>
      <point x="274" y="-18"/>
      <point x="373" y="38"/>
    </contour>
    <contour>
      <point x="324" y="701" type="curve" smooth="yes"/>
      <point x="306" y="701"/>
      <point x="288" y="685"/>
      <point x="285" y="667" type="curve" smooth="yes"/>
      <point x="282" y="648"/>
      <point x="294" y="634"/>
      <point x="312" y="634" type="curve" smooth="yes"/>
      <point x="331" y="634"/>
      <point x="349" y="648"/>
      <point x="352" y="667" type="curve" smooth="yes"/>
      <point x="355" y="685"/>
      <point x="343" y="701"/>
    </contour>
  </outline>
</glyph>
<glyph name="Aacute" format="1">
  <advance width="514"/>
  <unicode hex="00C1"/>
  <outline>
    <contour>
      <point x="352" y="698" type="line"/>
      <point x="5" y="0" type="line"/>
      <point x="65" y="0" type="line"/>
      <point x="186" y="244" type="line"/>
      <point x="413" y="244" type="line"/>
      <point x="450" y="0" type="line"/>
      <point x="509" y="0" type="line"/>
      <point x="405" y="698" type="line"/>
    </contour>
    <contour>
      <point x="407" y="299" type="line"/>
      <point x="210" y="299" type="line"/>
      <point x="362" y="612" type="line"/>
    </contour>
    <contour>
      <point x="429" y="857" type="curve"/>
      <point x="367" y="741" type="line"/>
      <point x="405" y="741" type="line"/>
      <point x="477" y="826" type="line"/>
      <point x="494" y="843"/>
      <point x="496" y="867"/>
      <point x="480" y="878" type="curve" smooth="yes"/>
      <point x="462" y="889"/>
      <point x="438" y="877"/>
    </contour>
  </outline>
</glyph>
<glyph name="Atilde" format="1">
  <advance width="514"/>
  <unicode hex="00C3"/>
  <outline>
    <contour>
      <point x="352" y="698" type="line"/>
      <point x="5" y="0" type="line"/>
      <point x="65" y="0" type="line"/>
      <point x="186" y="244" type="line"/>
      <point x="413" y="244" type="line"/>
      <point x="450" y="0" type="line"/>
      <point x="509" y="0" type="line"/>
      <point x="405" y="698" type="line"/>
    </contour>
    <contour>
      <point x="407" y="299" type="line"/>
      <point x="210" y="299" type="line"/>
      <point x="362" y="612" type="line"/>
    </contour>
    <contour>
      <point x="528" y="774" type="curve"/>
      <point x="515" y="822" type="line"/>
      <point x="502" y="811"/>
      <point x="479" y="802"/>
      <point x="460" y="802" type="curve" smooth="yes"/>
      <point x="446" y="802"/>
      <point x="403" y="827"/>
      <point x="355" y="827" type="curve" smooth="yes"/>
      <point x="329" y="827"/>
      <point x="299" y="820"/>
      <point x="272" y="795" type="curve"/>
      <point x="287" y="749" type="line"/>
      <point x="303" y="760"/>
      <point x="315" y="768"/>
      <point x="335" y="769" type="curve" smooth="yes"/>
      <point x="366" y="771"/>
      <point x="406" y="745"/>
      <point x="451" y="745" type="curve" smooth="yes"/>
      <point x="475" y="745"/>
      <point x="501" y="752"/>
    </contour>
  </outline>
</glyph>
<glyph name="Adieresis" format="1">
  <advance width="514"/>
  <unicode hex="00C4"/>
  <outline>
    <contour>
      <point x="352" y="698" type="line"/>
      <point x="5" y="0" type="line"/>
      <point x="65" y="0" type="line"/>
      <point x="186" y="244" type="line"/>
      <point x="413" y="244" type="line"/>
      <point x="450" y="0" type="line"/>
      <point x="509" y="0" type="line"/>
      <point x="405" y="698" type="line"/>
    </contour>
    <contour>
      <point x="407" y="299" type="line"/>
      <point x="210" y="299" type="line"/>
      <point x="362" y="612" type="line"/>
    </contour>
    <contour>
      <point x="488" y="834" type="curve" smooth="yes"/>
      <point x="469" y="834"/>
      <point x="452" y="818"/>
      <point x="449" y="801" type="curve" smooth="yes"/>
      <point x="445" y="782"/>
      <point x="457" y="767"/>
      <point x="476" y="767" type="curve" smooth="yes"/>
      <point x="495" y="767"/>
      <point x="511" y="782"/>
      <point x="515" y="801" type="curve" smooth="yes"/>
      <point x="518" y="818"/>
      <point x="507" y="834"/>
    </contour>
    <contour>
      <point x="358" y="801" type="curve" smooth="yes"/>
      <point x="361" y="818"/>
      <point x="348" y="834"/>
      <point x="331" y="834" type="curve" smooth="yes"/>
      <point x="312" y="834"/>
      <point x="294" y="818"/>
      <point x="291" y="801" type="curve" smooth="yes"/>
      <point x="287" y="782"/>
      <point x="300" y="767"/>
      <point x="319" y="767" type="curve" smooth="yes"/>
      <point x="336" y="767"/>
      <point x="354" y="782"/>
    </contour>
  </outline>
</glyph>
<glyph name="Aring" format="1">
  <advance width="515"/>
  <unicode hex="00C5"/>
  <outline>
    <contour>
      <point x="352" y="698" type="line"/>
      <point x="5" y="0" type="line"/>
      <point x="65" y="0" type="line"/>
      <point x="186" y="244" type="line"/>
      <point x="413" y="244" type="line"/>
      <point x="450" y="0" type="line"/>
      <point x="509" y="0" type="line"/>
      <point x="406" y="698" type="line"/>
    </contour>
    <contour>
      <point x="407" y="299" type="line"/>
      <point x="210" y="299" type="line"/>
      <point x="362" y="612" type="line"/>
    </contour>
    <contour>
      <point x="372" y="660" type="curve" smooth="yes"/>
      <point x="436" y="660"/>
      <point x="496" y="711"/>
      <point x="507" y="773" type="curve" smooth="yes"/>
      <point x="518" y="836"/>
      <point x="476" y="888"/>
      <point x="412" y="888" type="curve" smooth="yes"/>
      <point x="350" y="888"/>
      <point x="290" y="836"/>
      <point x="279" y="773" type="curve" smooth="yes"/>
      <point x="268" y="711"/>
      <point x="310" y="660"/>
    </contour>
    <contour>
      <point x="463" y="773" type="curve" smooth="yes"/>
      <point x="456" y="735"/>
      <point x="419" y="704"/>
      <point x="380" y="704" type="curve" smooth="yes"/>
      <point x="342" y="704"/>
      <point x="316" y="735"/>
      <point x="323" y="773" type="curve" smooth="yes"/>
      <point x="330" y="812"/>
      <point x="366" y="844"/>
      <point x="404" y="844" type="curve" smooth="yes"/>
      <point x="443" y="844"/>
      <point x="470" y="812"/>
    </contour>
  </outline>
</glyph>
<glyph name="AE" format="1">
  <advance width="716"/>
  <unicode hex="00C6"/>
  <outline>
    <contour>
      <point x="708" y="50" type="line"/>
      <point x="432" y="50" type="line"/>
      <point x="486" y="355" type="line"/>
      <point x="658" y="355" type="line"/>
      <point x="687" y="413" type="line"/>
      <point x="496" y="413" type="line"/>
      <point x="537" y="645" type="line"/>
      <point x="816" y="645" type="line"/>
      <point x="826" y="698" type="line"/>
      <point x="398" y="698" type="line"/>
      <point x="4" y="0" type="line"/>
      <point x="63" y="0" type="line"/>
      <point x="199" y="243" type="line"/>
      <point x="409" y="243" type="line"/>
      <point x="367" y="0" type="line"/>
      <point x="700" y="0" type="line"/>
    </contour>
    <contour>
      <point x="480" y="645" type="line"/>
      <point x="419" y="299" type="line"/>
      <point x="230" y="299" type="line"/>
      <point x="426" y="645" type="line"/>
    </contour>
  </outline>
</glyph>
<glyph name="Ccedilla" format="1">
  <advance width="387"/>
  <unicode hex="00C7"/>
  <outline>
    <contour>
      <point x="446" y="637" type="curve"/>
      <point x="470" y="675" type="line"/>
      <point x="430" y="697"/>
      <point x="384" y="708"/>
      <point x="333" y="708" type="curve" smooth="yes"/>
      <point x="292" y="708"/>
      <point x="255" y="700"/>
      <point x="222" y="683" type="curve" smooth="yes"/>
      <point x="158" y="647"/>
      <point x="119" y="590"/>
      <point x="103" y="503" type="curve" smooth="yes"/>
      <point x="47" y="183" type="line" smooth="yes"/>
      <point x="32" y="99"/>
      <point x="55" y="42"/>
      <point x="99" y="15" type="curve" smooth="yes"/>
      <point x="143" y="-10"/>
      <point x="192" y="-10"/>
      <point x="213" y="-10" type="curve" smooth="yes"/>
      <point x="263" y="-10"/>
      <point x="319" y="1"/>
      <point x="380" y="23" type="curve"/>
      <point x="376" y="69" type="line"/>
      <point x="315" y="50"/>
      <point x="265" y="40"/>
      <point x="226" y="40" type="curve" smooth="yes"/>
      <point x="180" y="40"/>
      <point x="149" y="48"/>
      <point x="129" y="65" type="curve" smooth="yes"/>
      <point x="97" y="90"/>
      <point x="94" y="132"/>
      <point x="103" y="185" type="curve" smooth="yes"/>
      <point x="161" y="512" type="line" smooth="yes"/>
      <point x="171" y="568"/>
      <point x="195" y="607"/>
      <point x="233" y="631" type="curve" smooth="yes"/>
      <point x="261" y="649"/>
      <point x="299" y="658"/>
      <point x="343" y="658" type="curve" smooth="yes"/>
      <point x="377" y="658"/>
      <point x="411" y="651"/>
    </contour>
    <contour>
      <point x="232" y="-48" type="curve" smooth="yes"/>
      <point x="223" y="-50"/>
      <point x="213" y="-50"/>
      <point x="204" y="-51" type="curve"/>
      <point x="238" y="-7" type="line"/>
      <point x="188" y="-7" type="line"/>
      <point x="136" y="-75" type="line"/>
      <point x="145" y="-105" type="line"/>
      <point x="172" y="-102"/>
      <point x="198" y="-98"/>
      <point x="220" y="-98" type="curve" smooth="yes"/>
      <point x="254" y="-97"/>
      <point x="277" y="-105"/>
      <point x="271" y="-139" type="curve" smooth="yes"/>
      <point x="264" y="-179"/>
      <point x="230" y="-190"/>
      <point x="190" y="-190" type="curve" smooth="yes"/>
      <point x="164" y="-190"/>
      <point x="135" y="-185"/>
      <point x="110" y="-178" type="curve"/>
      <point x="97" y="-208"/>
      <point x="100" y="-199"/>
      <point x="89" y="-227" type="curve"/>
      <point x="91" y="-228"/>
      <point x="141" y="-240"/>
      <point x="188" y="-240" type="curve" smooth="yes"/>
      <point x="267" y="-240"/>
      <point x="311" y="-190"/>
      <point x="319" y="-142" type="curve" smooth="yes"/>
      <point x="328" y="-91"/>
      <point x="299" y="-41"/>
    </contour>
  </outline>
</glyph>
<glyph name="Egrave" format="1">
  <advance width="367"/>
  <unicode hex="00C8"/>
  <outline>
    <contour>
      <point x="360" y="50" type="line"/>
      <point x="85" y="50" type="line"/>
      <point x="139" y="356" type="line"/>
      <point x="311" y="356" type="line"/>
      <point x="339" y="411" type="line"/>
      <point x="149" y="411" type="line"/>
      <point x="190" y="646" type="line"/>
      <point x="467" y="646" type="line"/>
      <point x="477" y="698" type="line"/>
      <point x="144" y="698" type="line"/>
      <point x="21" y="0" type="line"/>
      <point x="352" y="0" type="line"/>
    </contour>
    <contour>
      <point x="261" y="822" type="curve"/>
      <point x="300" y="743" type="line"/>
      <point x="336" y="743" type="line"/>
      <point x="316" y="849" type="line"/>
      <point x="315" y="868"/>
      <point x="295" y="879"/>
      <point x="276" y="869" type="curve" smooth="yes"/>
      <point x="257" y="859"/>
      <point x="252" y="836"/>
    </contour>
  </outline>
</glyph>
<glyph name="Eacute" format="1">
  <advance width="367"/>
  <unicode hex="00C9"/>
  <outline>
    <contour>
      <point x="360" y="50" type="line"/>
      <point x="85" y="50" type="line"/>
      <point x="139" y="356" type="line"/>
      <point x="311" y="356" type="line"/>
      <point x="339" y="411" type="line"/>
      <point x="149" y="411" type="line"/>
      <point x="190" y="646" type="line"/>
      <point x="467" y="646" type="line"/>
      <point x="477" y="698" type="line"/>
      <point x="144" y="698" type="line"/>
      <point x="21" y="0" type="line"/>
      <point x="352" y="0" type="line"/>
    </contour>
    <contour>
      <point x="360" y="858" type="curve" smooth="yes"/>
      <point x="299" y="743" type="line"/>
      <point x="338" y="743" type="line"/>
      <point x="409" y="828" type="line"/>
      <point x="425" y="844"/>
      <point x="429" y="869"/>
      <point x="411" y="880" type="curve" smooth="yes"/>
      <point x="394" y="890"/>
      <point x="370" y="879"/>
    </contour>
  </outline>
</glyph>
<glyph name="Ecircumflex" format="1">
  <advance width="369"/>
  <unicode hex="00CA"/>
  <outline>
    <contour>
      <point x="361" y="50" type="line"/>
      <point x="86" y="50" type="line"/>
      <point x="140" y="356" type="line"/>
      <point x="312" y="356" type="line"/>
      <point x="340" y="411" type="line"/>
      <point x="150" y="411" type="line"/>
      <point x="191" y="646" type="line"/>
      <point x="468" y="646" type="line"/>
      <point x="478" y="698" type="line"/>
      <point x="145" y="698" type="line"/>
      <point x="22" y="0" type="line"/>
      <point x="353" y="0" type="line"/>
    </contour>
    <contour>
      <point x="336" y="833" type="line"/>
      <point x="410" y="745" type="line"/>
      <point x="456" y="782" type="line"/>
      <point x="350" y="909" type="line"/>
      <point x="195" y="781" type="line"/>
      <point x="229" y="743" type="line"/>
    </contour>
  </outline>
</glyph>
<glyph name="Edieresis" format="1">
  <advance width="369"/>
  <unicode hex="00CB"/>
  <outline>
    <contour>
      <point x="361" y="50" type="line"/>
      <point x="86" y="50" type="line"/>
      <point x="140" y="356" type="line"/>
      <point x="312" y="356" type="line"/>
      <point x="340" y="411" type="line"/>
      <point x="150" y="411" type="line"/>
      <point x="191" y="646" type="line"/>
      <point x="468" y="646" type="line"/>
      <point x="478" y="698" type="line"/>
      <point x="145" y="698" type="line"/>
      <point x="22" y="0" type="line"/>
      <point x="353" y="0" type="line"/>
    </contour>
    <contour>
      <point x="442" y="802" type="curve" smooth="yes"/>
      <point x="445" y="821"/>
      <point x="433" y="835"/>
      <point x="414" y="835" type="curve" smooth="yes"/>
      <point x="397" y="835"/>
      <point x="378" y="821"/>
      <point x="375" y="802" type="curve" smooth="yes"/>
      <point x="372" y="783"/>
      <point x="385" y="768"/>
      <point x="402" y="768" type="curve" smooth="yes"/>
      <point x="421" y="768"/>
      <point x="439" y="783"/>
    </contour>
    <contour>
      <point x="284" y="802" type="curve" smooth="yes"/>
      <point x="287" y="821"/>
      <point x="276" y="835"/>
      <point x="257" y="835" type="curve" smooth="yes"/>
      <point x="238" y="835"/>
      <point x="220" y="821"/>
      <point x="217" y="802" type="curve" smooth="yes"/>
      <point x="214" y="783"/>
      <point x="226" y="768"/>
      <point x="245" y="768" type="curve" smooth="yes"/>
      <point x="264" y="768"/>
      <point x="281" y="783"/>
    </contour>
  </outline>
</glyph>
<glyph name="Igrave" format="1">
  <advance width="178"/>
  <unicode hex="00CC"/>
  <outline>
    <contour>
      <point x="69" y="0" type="line"/>
      <point x="125" y="0" type="line"/>
      <point x="248" y="698" type="line"/>
      <point x="125" y="698" type="line"/>
      <point x="116" y="649" type="line"/>
      <point x="183" y="647" type="line"/>
    </contour>
    <contour>
      <point x="265" y="847" type="curve"/>
      <point x="207" y="740" type="line"/>
      <point x="242" y="740" type="line"/>
      <point x="310" y="820" type="line"/>
      <point x="325" y="834"/>
      <point x="328" y="857"/>
      <point x="311" y="867" type="curve" smooth="yes"/>
      <point x="296" y="877"/>
      <point x="273" y="866"/>
    </contour>
  </outline>
</glyph>
<glyph name="Iacute" format="1">
  <advance width="179"/>
  <unicode hex="00CD"/>
  <outline>
    <contour>
      <point x="70" y="0" type="line"/>
      <point x="127" y="0" type="line"/>
      <point x="250" y="698" type="line"/>
      <point x="125" y="698" type="line"/>
      <point x="116" y="649" type="line"/>
      <point x="184" y="647" type="line"/>
    </contour>
    <contour>
      <point x="265" y="847" type="curve" smooth="yes"/>
      <point x="208" y="740" type="line"/>
      <point x="243" y="740" type="line"/>
      <point x="310" y="820" type="line"/>
      <point x="326" y="834"/>
      <point x="328" y="857"/>
      <point x="311" y="867" type="curve" smooth="yes"/>
      <point x="296" y="877"/>
      <point x="274" y="866"/>
    </contour>
  </outline>
</glyph>
<glyph name="Icircumflex" format="1">
  <advance width="234"/>
  <unicode hex="00CE"/>
  <outline>
    <contour>
      <point x="91" y="0" type="line"/>
      <point x="147" y="0" type="line"/>
      <point x="270" y="698" type="line"/>
      <point x="147" y="698" type="line"/>
      <point x="138" y="649" type="line"/>
      <point x="205" y="647" type="line"/>
    </contour>
    <contour>
      <point x="266" y="827" type="line"/>
      <point x="340" y="740" type="line"/>
      <point x="386" y="778" type="line"/>
      <point x="280" y="903" type="line"/>
      <point x="126" y="777" type="line"/>
      <point x="158" y="738" type="line"/>
    </contour>
  </outline>
</glyph>
<glyph name="Idieresis" format="1">
  <advance width="210"/>
  <unicode hex="00CF"/>
  <outline>
    <contour>
      <point x="100" y="0" type="line"/>
      <point x="155" y="0" type="line"/>
      <point x="278" y="698" type="line"/>
      <point x="155" y="698" type="line"/>
      <point x="146" y="649" type="line"/>
      <point x="214" y="647" type="line"/>
    </contour>
    <contour>
      <point x="323" y="834" type="curve" smooth="yes"/>
      <point x="304" y="834"/>
      <point x="287" y="818"/>
      <point x="284" y="800" type="curve" smooth="yes"/>
      <point x="280" y="782"/>
      <point x="292" y="767"/>
      <point x="311" y="767" type="curve" smooth="yes"/>
      <point x="330" y="767"/>
      <point x="347" y="782"/>
      <point x="351" y="800" type="curve" smooth="yes"/>
      <point x="354" y="818"/>
      <point x="342" y="834"/>
    </contour>
    <contour>
      <point x="166" y="834" type="curve" smooth="yes"/>
      <point x="147" y="834"/>
      <point x="129" y="818"/>
      <point x="126" y="800" type="curve" smooth="yes"/>
      <point x="122" y="782"/>
      <point x="135" y="767"/>
      <point x="154" y="767" type="curve" smooth="yes"/>
      <point x="171" y="767"/>
      <point x="189" y="782"/>
      <point x="193" y="800" type="curve" smooth="yes"/>
      <point x="196" y="818"/>
      <point x="183" y="834"/>
    </contour>
  </outline>
</glyph>
<glyph name="Eth" format="1">
  <advance width="458"/>
  <unicode hex="00D0"/>
  <outline>
    <contour>
      <point x="333" y="698" type="curve" smooth="yes"/>
      <point x="145" y="698" type="line"/>
      <point x="22" y="0" type="line"/>
      <point x="230" y="0" type="line" smooth="yes"/>
      <point x="371" y="0"/>
      <point x="452" y="67"/>
      <point x="476" y="199" type="curve" smooth="yes"/>
      <point x="524" y="473" type="line" smooth="yes"/>
      <point x="548" y="609"/>
      <point x="483" y="698"/>
    </contour>
    <contour>
      <point x="221" y="50" type="curve" smooth="yes"/>
      <point x="86" y="50" type="line"/>
      <point x="141" y="359" type="line"/>
      <point x="330" y="359" type="line"/>
      <point x="354" y="413" type="line"/>
      <point x="150" y="413" type="line"/>
      <point x="192" y="648" type="line"/>
      <point x="334" y="648" type="line" smooth="yes"/>
      <point x="451" y="648"/>
      <point x="486" y="574"/>
      <point x="471" y="488" type="curve" smooth="yes"/>
      <point x="418" y="189" type="line" smooth="yes"/>
      <point x="402" y="97"/>
      <point x="336" y="50"/>
    </contour>
  </outline>
</glyph>
<glyph name="Ntilde" format="1">
  <advance width="533"/>
  <unicode hex="00D1"/>
  <outline>
    <contour>
      <point x="472" y="102" type="line"/>
      <point x="200" y="698" type="line"/>
      <point x="144" y="698" type="line"/>
      <point x="21" y="0" type="line"/>
      <point x="77" y="0" type="line"/>
      <point x="181" y="595" type="line"/>
      <point x="455" y="0" type="line"/>
      <point x="512" y="0" type="line"/>
      <point x="635" y="698" type="line"/>
      <point x="578" y="698" type="line"/>
    </contour>
    <contour>
      <point x="533" y="782" type="curve"/>
      <point x="521" y="829" type="line"/>
      <point x="506" y="818"/>
      <point x="484" y="810"/>
      <point x="465" y="810" type="curve" smooth="yes"/>
      <point x="451" y="810"/>
      <point x="410" y="835"/>
      <point x="362" y="835" type="curve" smooth="yes"/>
      <point x="335" y="835"/>
      <point x="304" y="828"/>
      <point x="277" y="803" type="curve"/>
      <point x="292" y="757" type="line"/>
      <point x="309" y="769"/>
      <point x="321" y="776"/>
      <point x="342" y="777" type="curve" smooth="yes"/>
      <point x="372" y="779"/>
      <point x="411" y="752"/>
      <point x="456" y="752" type="curve" smooth="yes"/>
      <point x="481" y="752"/>
      <point x="507" y="760"/>
    </contour>
  </outline>
</glyph>
<glyph name="Oacute" format="1">
  <advance width="452"/>
  <unicode hex="00D3"/>
  <outline>
    <contour>
      <point x="104" y="506" type="curve" smooth="yes"/>
      <point x="47" y="185" type="line" smooth="yes"/>
      <point x="24" y="56"/>
      <point x="106" y="-11"/>
      <point x="224" y="-11" type="curve" smooth="yes"/>
      <point x="347" y="-11"/>
      <point x="446" y="64"/>
      <point x="467" y="185" type="curve" smooth="yes"/>
      <point x="524" y="505" type="line" smooth="yes"/>
      <point x="546" y="635"/>
      <point x="484" y="714"/>
      <point x="352" y="714" type="curve" smooth="yes"/>
      <point x="220" y="714"/>
      <point x="128" y="642"/>
    </contour>
    <contour>
      <point x="103" y="186" type="curve" smooth="yes"/>
      <point x="161" y="515" type="line" smooth="yes"/>
      <point x="178" y="612"/>
      <point x="248" y="661"/>
      <point x="340" y="661" type="curve" smooth="yes"/>
      <point x="434" y="661"/>
      <point x="487" y="612"/>
      <point x="470" y="515" type="curve" smooth="yes"/>
      <point x="412" y="186" type="line" smooth="yes"/>
      <point x="395" y="88"/>
      <point x="323" y="42"/>
      <point x="231" y="42" type="curve" smooth="yes"/>
      <point x="143" y="42"/>
      <point x="86" y="90"/>
    </contour>
    <contour>
      <point x="397" y="858" type="curve" smooth="yes"/>
      <point x="341" y="751" type="line"/>
      <point x="376" y="751" type="line"/>
      <point x="443" y="831" type="line"/>
      <point x="458" y="845"/>
      <point x="461" y="868"/>
      <point x="444" y="878" type="curve" smooth="yes"/>
      <point x="429" y="888"/>
      <point x="407" y="877"/>
    </contour>
  </outline>
</glyph>
<glyph name="Otilde" format="1">
  <advance width="452"/>
  <unicode hex="00D5"/>
  <outline>
    <contour>
      <point x="104" y="506" type="curve" smooth="yes"/>
      <point x="47" y="185" type="line" smooth="yes"/>
      <point x="24" y="56"/>
      <point x="106" y="-11"/>
      <point x="224" y="-11" type="curve" smooth="yes"/>
      <point x="347" y="-11"/>
      <point x="446" y="64"/>
      <point x="467" y="185" type="curve" smooth="yes"/>
      <point x="524" y="505" type="line" smooth="yes"/>
      <point x="546" y="635"/>
      <point x="484" y="714"/>
      <point x="352" y="714" type="curve" smooth="yes"/>
      <point x="220" y="714"/>
      <point x="128" y="642"/>
    </contour>
    <contour>
      <point x="103" y="186" type="curve" smooth="yes"/>
      <point x="161" y="515" type="line" smooth="yes"/>
      <point x="178" y="612"/>
      <point x="248" y="661"/>
      <point x="340" y="661" type="curve" smooth="yes"/>
      <point x="434" y="661"/>
      <point x="487" y="612"/>
      <point x="470" y="515" type="curve" smooth="yes"/>
      <point x="412" y="186" type="line" smooth="yes"/>
      <point x="395" y="88"/>
      <point x="323" y="42"/>
      <point x="231" y="42" type="curve" smooth="yes"/>
      <point x="143" y="42"/>
      <point x="86" y="90"/>
    </contour>
    <contour>
      <point x="490" y="774" type="curve"/>
      <point x="477" y="822" type="line"/>
      <point x="463" y="811"/>
      <point x="441" y="801"/>
      <point x="421" y="802" type="curve"/>
      <point x="408" y="801"/>
      <point x="366" y="827"/>
      <point x="318" y="827" type="curve" smooth="yes"/>
      <point x="290" y="827"/>
      <point x="262" y="820"/>
      <point x="235" y="795" type="curve"/>
      <point x="249" y="749" type="line"/>
      <point x="266" y="760"/>
      <point x="278" y="768"/>
      <point x="298" y="769" type="curve" smooth="yes"/>
      <point x="328" y="771"/>
      <point x="369" y="745"/>
      <point x="414" y="745" type="curve" smooth="yes"/>
      <point x="438" y="745"/>
      <point x="463" y="751"/>
    </contour>
  </outline>
</glyph>
<glyph name="Odieresis" format="1">
  <advance width="452"/>
  <unicode hex="00D6"/>
  <outline>
    <contour>
      <point x="104" y="506" type="curve" smooth="yes"/>
      <point x="47" y="185" type="line" smooth="yes"/>
      <point x="24" y="56"/>
      <point x="106" y="-11"/>
      <point x="224" y="-11" type="curve" smooth="yes"/>
      <point x="347" y="-11"/>
      <point x="446" y="64"/>
      <point x="467" y="185" type="curve" smooth="yes"/>
      <point x="524" y="505" type="line" smooth="yes"/>
      <point x="546" y="635"/>
      <point x="484" y="714"/>
      <point x="352" y="714" type="curve" smooth="yes"/>
      <point x="220" y="714"/>
      <point x="128" y="642"/>
    </contour>
    <contour>
      <point x="103" y="186" type="curve" smooth="yes"/>
      <point x="161" y="515" type="line" smooth="yes"/>
      <point x="178" y="612"/>
      <point x="248" y="661"/>
      <point x="340" y="661" type="curve" smooth="yes"/>
      <point x="434" y="661"/>
      <point x="487" y="612"/>
      <point x="470" y="515" type="curve" smooth="yes"/>
      <point x="412" y="186" type="line" smooth="yes"/>
      <point x="395" y="88"/>
      <point x="323" y="42"/>
      <point x="231" y="42" type="curve" smooth="yes"/>
      <point x="143" y="42"/>
      <point x="86" y="90"/>
    </contour>
    <contour>
      <point x="452" y="844" type="curve" smooth="yes"/>
      <point x="433" y="844"/>
      <point x="414" y="828"/>
      <point x="411" y="810" type="curve" smooth="yes"/>
      <point x="408" y="791"/>
      <point x="422" y="777"/>
      <point x="441" y="777" type="curve" smooth="yes"/>
      <point x="458" y="777"/>
      <point x="476" y="791"/>
      <point x="479" y="810" type="curve" smooth="yes"/>
      <point x="482" y="828"/>
      <point x="469" y="844"/>
    </contour>
    <contour>
      <point x="293" y="844" type="curve" smooth="yes"/>
      <point x="275" y="844"/>
      <point x="257" y="828"/>
      <point x="254" y="810" type="curve" smooth="yes"/>
      <point x="251" y="791"/>
      <point x="264" y="777"/>
      <point x="282" y="777" type="curve" smooth="yes"/>
      <point x="301" y="777"/>
      <point x="318" y="791"/>
      <point x="321" y="810" type="curve" smooth="yes"/>
      <point x="324" y="828"/>
      <point x="312" y="844"/>
    </contour>
  </outline>
</glyph>
<glyph name="multiply" format="1">
  <advance width="321"/>
  <unicode hex="00D7"/>
  <outline>
    <contour>
      <point x="100" y="461" type="line"/>
      <point x="182" y="332" type="line"/>
      <point x="55" y="205" type="line"/>
      <point x="90" y="167" type="line"/>
      <point x="211" y="289" type="line"/>
      <point x="290" y="167" type="line"/>
      <point x="338" y="205" type="line"/>
      <point x="254" y="332" type="line"/>
      <point x="383" y="461" type="line"/>
      <point x="348" y="495" type="line"/>
      <point x="226" y="374" type="line"/>
      <point x="146" y="495" type="line"/>
    </contour>
  </outline>
</glyph>
<glyph name="Ugrave" format="1">
  <advance width="455"/>
  <unicode hex="00D9"/>
  <outline>
    <contour>
      <point x="468" y="185" type="curve" smooth="yes"/>
      <point x="559" y="698" type="line"/>
      <point x="504" y="698" type="line"/>
      <point x="413" y="186" type="line" smooth="yes"/>
      <point x="405" y="140"/>
      <point x="384" y="106"/>
      <point x="356" y="81" type="curve" smooth="yes"/>
      <point x="324" y="54"/>
      <point x="282" y="42"/>
      <point x="234" y="42" type="curve" smooth="yes"/>
      <point x="192" y="42"/>
      <point x="156" y="53"/>
      <point x="134" y="74" type="curve" smooth="yes"/>
      <point x="107" y="98"/>
      <point x="96" y="135"/>
      <point x="105" y="186" type="curve" smooth="yes"/>
      <point x="196" y="698" type="line"/>
      <point x="141" y="698" type="line"/>
      <point x="50" y="185" type="line" smooth="yes"/>
      <point x="38" y="118"/>
      <point x="49" y="68"/>
      <point x="85" y="36" type="curve" smooth="yes"/>
      <point x="121" y="4"/>
      <point x="168" y="-11"/>
      <point x="226" y="-11" type="curve" smooth="yes"/>
      <point x="282" y="-11"/>
      <point x="333" y="4"/>
      <point x="380" y="36" type="curve" smooth="yes"/>
      <point x="426" y="68"/>
      <point x="456" y="118"/>
    </contour>
    <contour>
      <point x="302" y="822" type="curve"/>
      <point x="342" y="743" type="line"/>
      <point x="377" y="743" type="line"/>
      <point x="358" y="849" type="line" smooth="yes"/>
      <point x="355" y="868"/>
      <point x="337" y="879"/>
      <point x="318" y="869" type="curve" smooth="yes"/>
      <point x="298" y="859"/>
      <point x="292" y="836"/>
    </contour>
  </outline>
</glyph>
<glyph name="Ucircumflex" format="1">
  <advance width="457"/>
  <unicode hex="00DB"/>
  <outline>
    <contour>
      <point x="469" y="185" type="curve" smooth="yes"/>
      <point x="560" y="698" type="line"/>
      <point x="505" y="698" type="line"/>
      <point x="414" y="186" type="line" smooth="yes"/>
      <point x="406" y="140"/>
      <point x="385" y="106"/>
      <point x="357" y="81" type="curve" smooth="yes"/>
      <point x="325" y="54"/>
      <point x="283" y="42"/>
      <point x="235" y="42" type="curve" smooth="yes"/>
      <point x="193" y="42"/>
      <point x="157" y="53"/>
      <point x="135" y="74" type="curve" smooth="yes"/>
      <point x="108" y="98"/>
      <point x="97" y="135"/>
      <point x="106" y="186" type="curve" smooth="yes"/>
      <point x="197" y="698" type="line"/>
      <point x="142" y="698" type="line"/>
      <point x="51" y="185" type="line" smooth="yes"/>
      <point x="39" y="118"/>
      <point x="51" y="68"/>
      <point x="86" y="36" type="curve" smooth="yes"/>
      <point x="122" y="4"/>
      <point x="170" y="-11"/>
      <point x="227" y="-11" type="curve" smooth="yes"/>
      <point x="283" y="-11"/>
      <point x="334" y="4"/>
      <point x="381" y="36" type="curve" smooth="yes"/>
      <point x="427" y="68"/>
      <point x="457" y="118"/>
    </contour>
    <contour>
      <point x="376" y="833" type="line"/>
      <point x="450" y="745" type="line"/>
      <point x="496" y="783" type="line"/>
      <point x="390" y="909" type="line"/>
      <point x="235" y="781" type="line"/>
      <point x="267" y="744" type="line"/>
    </contour>
  </outline>
</glyph>
<glyph name="Udieresis" format="1">
  <advance width="455"/>
  <unicode hex="00DC"/>
  <outline>
    <contour>
      <point x="468" y="185" type="curve" smooth="yes"/>
      <point x="559" y="698" type="line"/>
      <point x="504" y="698" type="line"/>
      <point x="413" y="186" type="line" smooth="yes"/>
      <point x="405" y="140"/>
      <point x="384" y="106"/>
      <point x="356" y="81" type="curve" smooth="yes"/>
      <point x="324" y="54"/>
      <point x="282" y="42"/>
      <point x="234" y="42" type="curve" smooth="yes"/>
      <point x="192" y="42"/>
      <point x="156" y="53"/>
      <point x="134" y="74" type="curve" smooth="yes"/>
      <point x="107" y="98"/>
      <point x="96" y="135"/>
      <point x="105" y="186" type="curve" smooth="yes"/>
      <point x="196" y="698" type="line"/>
      <point x="141" y="698" type="line"/>
      <point x="50" y="185" type="line" smooth="yes"/>
      <point x="38" y="118"/>
      <point x="49" y="68"/>
      <point x="85" y="36" type="curve" smooth="yes"/>
      <point x="121" y="4"/>
      <point x="168" y="-11"/>
      <point x="226" y="-11" type="curve" smooth="yes"/>
      <point x="282" y="-11"/>
      <point x="333" y="4"/>
      <point x="380" y="36" type="curve" smooth="yes"/>
      <point x="426" y="68"/>
      <point x="456" y="118"/>
    </contour>
    <contour>
      <point x="480" y="803" type="curve" smooth="yes"/>
      <point x="483" y="822"/>
      <point x="470" y="836"/>
      <point x="453" y="836" type="curve" smooth="yes"/>
      <point x="434" y="836"/>
      <point x="416" y="822"/>
      <point x="413" y="803" type="curve" smooth="yes"/>
      <point x="410" y="784"/>
      <point x="422" y="769"/>
      <point x="441" y="769" type="curve" smooth="yes"/>
      <point x="458" y="769"/>
      <point x="477" y="784"/>
    </contour>
    <contour>
      <point x="323" y="803" type="curve" smooth="yes"/>
      <point x="326" y="822"/>
      <point x="313" y="836"/>
      <point x="294" y="836" type="curve" smooth="yes"/>
      <point x="276" y="836"/>
      <point x="258" y="822"/>
      <point x="255" y="803" type="curve" smooth="yes"/>
      <point x="252" y="784"/>
      <point x="264" y="769"/>
      <point x="282" y="769" type="curve" smooth="yes"/>
      <point x="301" y="769"/>
      <point x="320" y="784"/>
    </contour>
  </outline>
</glyph>
<glyph name="Yacute" format="1">
  <advance width="475"/>
  <unicode hex="00DD"/>
  <outline>
    <contour>
      <point x="481" y="155" type="curve" smooth="yes"/>
      <point x="577" y="698" type="line"/>
      <point x="521" y="698" type="line"/>
      <point x="472" y="422" type="line" smooth="yes"/>
      <point x="465" y="380"/>
      <point x="432" y="339"/>
      <point x="390" y="319" type="curve" smooth="yes"/>
      <point x="360" y="306"/>
      <point x="324" y="299"/>
      <point x="283" y="299" type="curve" smooth="yes"/>
      <point x="239" y="299"/>
      <point x="201" y="310"/>
      <point x="172" y="334" type="curve" smooth="yes"/>
      <point x="145" y="360"/>
      <point x="137" y="395"/>
      <point x="147" y="451" type="curve" smooth="yes"/>
      <point x="191" y="698" type="line"/>
      <point x="135" y="698" type="line"/>
      <point x="93" y="462" type="line" smooth="yes"/>
      <point x="79" y="381"/>
      <point x="90" y="330"/>
      <point x="126" y="295" type="curve" smooth="yes"/>
      <point x="159" y="260"/>
      <point x="212" y="241"/>
      <point x="284" y="244" type="curve" smooth="yes"/>
      <point x="375" y="250"/>
      <point x="430" y="285"/>
      <point x="451" y="305" type="curve"/>
      <point x="424" y="152" type="line" smooth="yes"/>
      <point x="413" y="86"/>
      <point x="385" y="45"/>
      <point x="342" y="30" type="curve"/>
      <point x="348" y="-7" type="line"/>
      <point x="417" y="2"/>
      <point x="464" y="58"/>
    </contour>
    <contour>
      <point x="403" y="848" type="curve" smooth="yes"/>
      <point x="347" y="741" type="line"/>
      <point x="382" y="741" type="line"/>
      <point x="449" y="821" type="line"/>
      <point x="465" y="835"/>
      <point x="467" y="858"/>
      <point x="451" y="868" type="curve" smooth="yes"/>
      <point x="434" y="878"/>
      <point x="413" y="867"/>
    </contour>
  </outline>
</glyph>
<glyph name="Thorn" format="1">
  <advance width="394"/>
  <unicode hex="00DE"/>
  <outline>
    <contour>
      <point x="431" y="289" type="curve" smooth="yes"/>
      <point x="457" y="435" type="line" smooth="yes"/>
      <point x="464" y="479"/>
      <point x="461" y="510"/>
      <point x="448" y="542" type="curve" smooth="yes"/>
      <point x="431" y="586"/>
      <point x="395" y="610"/>
      <point x="353" y="620" type="curve" smooth="yes"/>
      <point x="304" y="631"/>
      <point x="240" y="621"/>
      <point x="183" y="599" type="curve"/>
      <point x="201" y="698" type="line"/>
      <point x="145" y="698" type="line"/>
      <point x="22" y="0" type="line"/>
      <point x="78" y="0" type="line"/>
      <point x="98" y="118" type="line"/>
      <point x="158" y="102"/>
      <point x="232" y="100"/>
      <point x="289" y="118" type="curve" smooth="yes"/>
      <point x="362" y="140"/>
      <point x="414" y="191"/>
    </contour>
    <contour>
      <point x="334" y="570" type="curve" smooth="yes"/>
      <point x="364" y="562"/>
      <point x="386" y="542"/>
      <point x="397" y="510" type="curve"/>
      <point x="404" y="486"/>
      <point x="407" y="457"/>
      <point x="401" y="420" type="curve" smooth="yes"/>
      <point x="380" y="301" type="line" smooth="yes"/>
      <point x="368" y="234"/>
      <point x="342" y="188"/>
      <point x="286" y="168" type="curve" smooth="yes"/>
      <point x="224" y="144"/>
      <point x="129" y="165"/>
      <point x="107" y="169" type="curve"/>
      <point x="174" y="547" type="line"/>
      <point x="224" y="568"/>
      <point x="295" y="581"/>
    </contour>
  </outline>
</glyph>
<glyph name="germandbls" format="1">
  <advance width="430"/>
  <unicode hex="00DF"/>
  <outline>
    <contour>
      <point x="76" y="0" type="curve"/>
      <point x="171" y="539" type="line" smooth="yes"/>
      <point x="183" y="610"/>
      <point x="218" y="645"/>
      <point x="272" y="645" type="curve" smooth="yes"/>
      <point x="315" y="645"/>
      <point x="334" y="610"/>
      <point x="331" y="575" type="curve" smooth="yes"/>
      <point x="328" y="540"/>
      <point x="304" y="506"/>
      <point x="259" y="506" type="curve"/>
      <point x="239" y="480"/>
      <point x="231" y="455"/>
      <point x="229" y="433" type="curve" smooth="yes"/>
      <point x="225" y="380"/>
      <point x="268" y="337"/>
      <point x="309" y="294" type="curve" smooth="yes"/>
      <point x="353" y="249"/>
      <point x="396" y="204"/>
      <point x="386" y="143" type="curve" smooth="yes"/>
      <point x="374" y="76"/>
      <point x="317" y="44"/>
      <point x="261" y="43" type="curve" smooth="yes"/>
      <point x="222" y="43"/>
      <point x="183" y="57"/>
      <point x="158" y="85" type="curve"/>
      <point x="145" y="68"/>
      <point x="133" y="53"/>
      <point x="120" y="36" type="curve"/>
      <point x="154" y="3"/>
      <point x="207" y="-13"/>
      <point x="261" y="-11" type="curve" smooth="yes"/>
      <point x="342" y="-8"/>
      <point x="426" y="40"/>
      <point x="443" y="141" type="curve" smooth="yes"/>
      <point x="457" y="219"/>
      <point x="411" y="275"/>
      <point x="364" y="323" type="curve" smooth="yes"/>
      <point x="325" y="365"/>
      <point x="285" y="400"/>
      <point x="287" y="439" type="curve" smooth="yes"/>
      <point x="288" y="451"/>
      <point x="292" y="463"/>
      <point x="302" y="475" type="curve"/>
      <point x="301" y="475"/>
      <point x="332" y="475"/>
      <point x="332" y="475" type="curve"/>
      <point x="362" y="497"/>
      <point x="380" y="533"/>
      <point x="385" y="570" type="curve" smooth="yes"/>
      <point x="394" y="635"/>
      <point x="360" y="703"/>
      <point x="277" y="698" type="curve"/>
      <point x="190" y="698"/>
      <point x="132" y="638"/>
      <point x="114" y="536" type="curve" smooth="yes"/>
      <point x="83" y="358"/>
      <point x="51" y="178"/>
      <point x="20" y="0" type="curve"/>
      <point x="38" y="0"/>
      <point x="57" y="0"/>
    </contour>
  </outline>
</glyph>
<glyph name="agrave" format="1">
  <advance width="410"/>
  <unicode hex="00E0"/>
  <outline>
    <contour>
      <point x="399" y="349" type="curve"/>
      <point x="357" y="375"/>
      <point x="298" y="402"/>
      <point x="233" y="402" type="curve" smooth="yes"/>
      <point x="152" y="402"/>
      <point x="74" y="363"/>
      <point x="54" y="251" type="curve" smooth="yes"/>
      <point x="49" y="223"/>
      <point x="44" y="196"/>
      <point x="39" y="168" type="curve" smooth="yes"/>
      <point x="13" y="21"/>
      <point x="105" y="-14"/>
      <point x="235" y="-10" type="curve" smooth="yes"/>
      <point x="284" y="-9"/>
      <point x="394" y="0"/>
      <point x="394" y="0" type="curve"/>
      <point x="410" y="96"/>
      <point x="427" y="191"/>
      <point x="444" y="287" type="curve" smooth="yes"/>
      <point x="460" y="375"/>
      <point x="464" y="444"/>
      <point x="407" y="480" type="curve" smooth="yes"/>
      <point x="370" y="504"/>
      <point x="321" y="507"/>
      <point x="275" y="507" type="curve"/>
      <point x="265" y="464" type="line"/>
      <point x="302" y="464"/>
      <point x="336" y="461"/>
      <point x="359" y="449" type="curve" smooth="yes"/>
      <point x="393" y="432"/>
      <point x="409" y="404"/>
    </contour>
    <contour>
      <point x="391" y="302" type="curve"/>
      <point x="376" y="217"/>
      <point x="361" y="132"/>
      <point x="346" y="46" type="curve"/>
      <point x="346" y="46"/>
      <point x="304" y="42"/>
      <point x="238" y="38" type="curve" smooth="yes"/>
      <point x="104" y="33"/>
      <point x="79" y="80"/>
      <point x="95" y="175" type="curve" smooth="yes"/>
      <point x="99" y="195"/>
      <point x="104" y="226"/>
      <point x="108" y="249" type="curve" smooth="yes"/>
      <point x="124" y="339"/>
      <point x="184" y="354"/>
      <point x="220" y="354" type="curve" smooth="yes"/>
      <point x="284" y="354"/>
      <point x="341" y="329"/>
    </contour>
    <contour>
      <point x="241" y="628" type="curve"/>
      <point x="280" y="550" type="line"/>
      <point x="315" y="550" type="line"/>
      <point x="297" y="657" type="line" smooth="yes"/>
      <point x="294" y="675"/>
      <point x="275" y="686"/>
      <point x="256" y="676" type="curve" smooth="yes"/>
      <point x="237" y="667"/>
      <point x="231" y="643"/>
    </contour>
  </outline>
</glyph>
<glyph name="atilde" format="1">
  <advance width="413"/>
  <unicode hex="00E3"/>
  <outline>
    <contour>
      <point x="400" y="349" type="curve"/>
      <point x="359" y="375"/>
      <point x="299" y="402"/>
      <point x="234" y="402" type="curve" smooth="yes"/>
      <point x="154" y="402"/>
      <point x="75" y="363"/>
      <point x="55" y="251" type="curve" smooth="yes"/>
      <point x="50" y="223"/>
      <point x="45" y="196"/>
      <point x="40" y="168" type="curve" smooth="yes"/>
      <point x="14" y="21"/>
      <point x="106" y="-14"/>
      <point x="236" y="-10" type="curve" smooth="yes"/>
      <point x="285" y="-9"/>
      <point x="395" y="0"/>
      <point x="395" y="0" type="curve"/>
      <point x="411" y="96"/>
      <point x="428" y="191"/>
      <point x="445" y="287" type="curve" smooth="yes"/>
      <point x="461" y="375"/>
      <point x="465" y="444"/>
      <point x="408" y="480" type="curve" smooth="yes"/>
      <point x="371" y="504"/>
      <point x="322" y="507"/>
      <point x="276" y="507" type="curve"/>
      <point x="266" y="464" type="line"/>
      <point x="303" y="464"/>
      <point x="337" y="461"/>
      <point x="361" y="449" type="curve" smooth="yes"/>
      <point x="394" y="432"/>
      <point x="410" y="404"/>
    </contour>
    <contour>
      <point x="392" y="302" type="curve"/>
      <point x="377" y="217"/>
      <point x="362" y="132"/>
      <point x="347" y="46" type="curve"/>
      <point x="347" y="46"/>
      <point x="305" y="42"/>
      <point x="239" y="38" type="curve" smooth="yes"/>
      <point x="105" y="33"/>
      <point x="80" y="80"/>
      <point x="96" y="175" type="curve" smooth="yes"/>
      <point x="100" y="195"/>
      <point x="105" y="226"/>
      <point x="109" y="249" type="curve" smooth="yes"/>
      <point x="125" y="339"/>
      <point x="185" y="354"/>
      <point x="221" y="354" type="curve" smooth="yes"/>
      <point x="285" y="354"/>
      <point x="342" y="329"/>
    </contour>
    <contour>
      <point x="435" y="583" type="curve"/>
      <point x="423" y="630" type="line"/>
      <point x="408" y="619"/>
      <point x="385" y="610"/>
      <point x="367" y="610" type="curve" smooth="yes"/>
      <point x="353" y="610"/>
      <point x="312" y="636"/>
      <point x="264" y="636" type="curve" smooth="yes"/>
      <point x="236" y="636"/>
      <point x="207" y="628"/>
      <point x="180" y="604" type="curve"/>
      <point x="194" y="558" type="line"/>
      <point x="210" y="570"/>
      <point x="223" y="576"/>
      <point x="242" y="577" type="curve" smooth="yes"/>
      <point x="274" y="580"/>
      <point x="313" y="553"/>
      <point x="359" y="553" type="curve" smooth="yes"/>
      <point x="383" y="553"/>
      <point x="408" y="561"/>
    </contour>
  </outline>
</glyph>
<glyph name="ae" format="1">
  <advance width="713"/>
  <unicode hex="00E6"/>
  <outline>
    <contour>
      <point x="419" y="133" type="curve" smooth="yes"/>
      <point x="430" y="195" type="line"/>
      <point x="737" y="211" type="line"/>
      <point x="760" y="341" type="line" smooth="yes"/>
      <point x="779" y="449"/>
      <point x="720" y="508"/>
      <point x="613" y="508" type="curve" smooth="yes"/>
      <point x="541" y="508"/>
      <point x="484" y="484"/>
      <point x="443" y="437" type="curve"/>
      <point x="416" y="498"/>
      <point x="338" y="507"/>
      <point x="274" y="507" type="curve"/>
      <point x="270" y="493"/>
      <point x="268" y="479"/>
      <point x="264" y="464" type="curve"/>
      <point x="354" y="464"/>
      <point x="414" y="442"/>
      <point x="398" y="349" type="curve"/>
      <point x="356" y="375"/>
      <point x="297" y="402"/>
      <point x="232" y="402" type="curve" smooth="yes"/>
      <point x="151" y="402"/>
      <point x="73" y="363"/>
      <point x="53" y="251" type="curve" smooth="yes"/>
      <point x="38" y="168" type="line" smooth="yes"/>
      <point x="16" y="40"/>
      <point x="84" y="-4"/>
      <point x="187" y="-10" type="curve" smooth="yes"/>
      <point x="210" y="-11"/>
      <point x="380" y="-3"/>
      <point x="393" y="0" type="curve"/>
      <point x="395" y="14" type="line"/>
      <point x="429" y="-11"/>
      <point x="479" y="-12"/>
      <point x="509" y="-12" type="curve" smooth="yes"/>
      <point x="560" y="-11"/>
      <point x="624" y="4"/>
      <point x="680" y="35" type="curve"/>
      <point x="665" y="78" type="line"/>
      <point x="610" y="51"/>
      <point x="566" y="36"/>
      <point x="513" y="36" type="curve" smooth="yes"/>
      <point x="481" y="36"/>
      <point x="402" y="38"/>
    </contour>
    <contour>
      <point x="390" y="302" type="curve"/>
      <point x="345" y="46" type="line"/>
      <point x="345" y="46"/>
      <point x="303" y="42"/>
      <point x="237" y="38" type="curve" smooth="yes"/>
      <point x="103" y="33"/>
      <point x="78" y="80"/>
      <point x="94" y="175" type="curve" smooth="yes"/>
      <point x="107" y="249" type="line" smooth="yes"/>
      <point x="123" y="339"/>
      <point x="183" y="354"/>
      <point x="219" y="354" type="curve" smooth="yes"/>
      <point x="283" y="354"/>
      <point x="340" y="329"/>
    </contour>
    <contour>
      <point x="704" y="348" type="curve" smooth="yes"/>
      <point x="689" y="261" type="line"/>
      <point x="440" y="250" type="line"/>
      <point x="450" y="308" type="line" smooth="yes"/>
      <point x="468" y="414"/>
      <point x="516" y="461"/>
      <point x="603" y="461" type="curve" smooth="yes"/>
      <point x="646" y="461"/>
      <point x="720" y="439"/>
    </contour>
  </outline>
</glyph>
<glyph name="ccedilla" format="1">
  <advance width="344"/>
  <unicode hex="00E7"/>
  <outline>
    <contour>
      <point x="390" y="430" type="curve"/>
      <point x="413" y="476" type="line"/>
      <point x="361" y="503"/>
      <point x="296" y="516"/>
      <point x="236" y="504" type="curve" smooth="yes"/>
      <point x="190" y="494"/>
      <point x="147" y="470"/>
      <point x="113" y="426" type="curve" smooth="yes"/>
      <point x="89" y="394"/>
      <point x="76" y="362"/>
      <point x="67" y="318" type="curve"/>
      <point x="41" y="173" type="line" smooth="yes"/>
      <point x="24" y="75"/>
      <point x="59" y="23"/>
      <point x="123" y="1" type="curve" smooth="yes"/>
      <point x="179" y="-18"/>
      <point x="262" y="-13"/>
      <point x="332" y="5" type="curve"/>
      <point x="330" y="55" type="line"/>
      <point x="330" y="55"/>
      <point x="203" y="26"/>
      <point x="144" y="52" type="curve" smooth="yes"/>
      <point x="94" y="71"/>
      <point x="86" y="119"/>
      <point x="98" y="185" type="curve" smooth="yes"/>
      <point x="119" y="305" type="line" smooth="yes"/>
      <point x="125" y="340"/>
      <point x="138" y="371"/>
      <point x="154" y="394" type="curve" smooth="yes"/>
      <point x="176" y="426"/>
      <point x="205" y="446"/>
      <point x="236" y="453" type="curve" smooth="yes"/>
      <point x="281" y="464"/>
      <point x="346" y="452"/>
    </contour>
    <contour>
      <point x="184" y="-39" type="curve" smooth="yes"/>
      <point x="175" y="-40"/>
      <point x="166" y="-40"/>
      <point x="157" y="-41" type="curve"/>
      <point x="191" y="3" type="line"/>
      <point x="142" y="3" type="line"/>
      <point x="89" y="-65" type="line"/>
      <point x="99" y="-95" type="line"/>
      <point x="125" y="-92"/>
      <point x="151" y="-88"/>
      <point x="173" y="-88" type="curve" smooth="yes"/>
      <point x="207" y="-87"/>
      <point x="231" y="-95"/>
      <point x="225" y="-129" type="curve" smooth="yes"/>
      <point x="218" y="-169"/>
      <point x="184" y="-180"/>
      <point x="144" y="-180" type="curve" smooth="yes"/>
      <point x="118" y="-180"/>
      <point x="89" y="-175"/>
      <point x="62" y="-168" type="curve"/>
      <point x="51" y="-198"/>
      <point x="54" y="-189"/>
      <point x="42" y="-217" type="curve"/>
      <point x="45" y="-218"/>
      <point x="94" y="-230"/>
      <point x="142" y="-230" type="curve" smooth="yes"/>
      <point x="221" y="-230"/>
      <point x="265" y="-180"/>
      <point x="273" y="-132" type="curve" smooth="yes"/>
      <point x="282" y="-81"/>
      <point x="252" y="-31"/>
    </contour>
  </outline>
</glyph>
<glyph name="eacute" format="1">
  <advance width="387"/>
  <unicode hex="00E9"/>
  <outline>
    <contour>
      <point x="92" y="133" type="curve" smooth="yes"/>
      <point x="103" y="195" type="line"/>
      <point x="410" y="211" type="line"/>
      <point x="433" y="341" type="line" smooth="yes"/>
      <point x="442" y="392"/>
      <point x="434" y="432"/>
      <point x="411" y="461" type="curve" smooth="yes"/>
      <point x="385" y="492"/>
      <point x="343" y="508"/>
      <point x="286" y="508" type="curve" smooth="yes"/>
      <point x="236" y="508"/>
      <point x="193" y="496"/>
      <point x="158" y="473" type="curve" smooth="yes"/>
      <point x="114" y="444"/>
      <point x="83" y="398"/>
      <point x="72" y="338" type="curve" smooth="yes"/>
      <point x="36" y="133" type="line" smooth="yes"/>
      <point x="27" y="80"/>
      <point x="38" y="46"/>
      <point x="58" y="24" type="curve" smooth="yes"/>
      <point x="92" y="-13"/>
      <point x="152" y="-12"/>
      <point x="182" y="-12" type="curve" smooth="yes"/>
      <point x="233" y="-11"/>
      <point x="297" y="4"/>
      <point x="354" y="35" type="curve"/>
      <point x="339" y="78" type="line"/>
      <point x="283" y="51"/>
      <point x="235" y="36"/>
      <point x="186" y="36" type="curve" smooth="yes"/>
      <point x="167" y="36"/>
      <point x="126" y="36"/>
      <point x="106" y="63" type="curve"/>
      <point x="92" y="77"/>
      <point x="86" y="99"/>
    </contour>
    <contour>
      <point x="378" y="348" type="curve" smooth="yes"/>
      <point x="373" y="319"/>
      <point x="367" y="289"/>
      <point x="363" y="261" type="curve"/>
      <point x="113" y="250" type="line"/>
      <point x="118" y="278"/>
      <point x="123" y="308"/>
      <point x="128" y="337" type="curve" smooth="yes"/>
      <point x="135" y="378"/>
      <point x="152" y="408"/>
      <point x="178" y="429" type="curve" smooth="yes"/>
      <point x="206" y="450"/>
      <point x="239" y="461"/>
      <point x="277" y="461" type="curve" smooth="yes"/>
      <point x="310" y="461"/>
      <point x="343" y="454"/>
      <point x="367" y="418" type="curve" smooth="yes"/>
      <point x="379" y="399"/>
      <point x="383" y="377"/>
    </contour>
    <contour>
      <point x="327" y="654" type="curve"/>
      <point x="270" y="548" type="line"/>
      <point x="306" y="548" type="line"/>
      <point x="373" y="627" type="line"/>
      <point x="388" y="641"/>
      <point x="391" y="664"/>
      <point x="374" y="674" type="curve" smooth="yes"/>
      <point x="359" y="684"/>
      <point x="336" y="673"/>
    </contour>
  </outline>
</glyph>
<glyph name="ecircumflex" format="1">
  <advance width="388"/>
  <unicode hex="00EA"/>
  <outline>
    <contour>
      <point x="93" y="133" type="curve" smooth="yes"/>
      <point x="104" y="195" type="line"/>
      <point x="411" y="211" type="line"/>
      <point x="434" y="341" type="line" smooth="yes"/>
      <point x="443" y="392"/>
      <point x="435" y="432"/>
      <point x="412" y="461" type="curve" smooth="yes"/>
      <point x="386" y="492"/>
      <point x="344" y="508"/>
      <point x="287" y="508" type="curve" smooth="yes"/>
      <point x="237" y="508"/>
      <point x="194" y="496"/>
      <point x="159" y="473" type="curve" smooth="yes"/>
      <point x="115" y="444"/>
      <point x="84" y="398"/>
      <point x="73" y="338" type="curve" smooth="yes"/>
      <point x="37" y="133" type="line" smooth="yes"/>
      <point x="28" y="80"/>
      <point x="39" y="46"/>
      <point x="59" y="24" type="curve" smooth="yes"/>
      <point x="93" y="-13"/>
      <point x="153" y="-12"/>
      <point x="183" y="-12" type="curve" smooth="yes"/>
      <point x="235" y="-11"/>
      <point x="298" y="4"/>
      <point x="355" y="35" type="curve"/>
      <point x="340" y="78" type="line"/>
      <point x="284" y="51"/>
      <point x="236" y="36"/>
      <point x="188" y="36" type="curve" smooth="yes"/>
      <point x="168" y="36"/>
      <point x="127" y="36"/>
      <point x="107" y="63" type="curve"/>
      <point x="93" y="77"/>
      <point x="87" y="99"/>
    </contour>
    <contour>
      <point x="379" y="348" type="curve" smooth="yes"/>
      <point x="374" y="319"/>
      <point x="368" y="289"/>
      <point x="364" y="261" type="curve"/>
      <point x="114" y="250" type="line"/>
      <point x="119" y="278"/>
      <point x="124" y="308"/>
      <point x="129" y="337" type="curve" smooth="yes"/>
      <point x="136" y="378"/>
      <point x="153" y="408"/>
      <point x="180" y="429" type="curve" smooth="yes"/>
      <point x="207" y="450"/>
      <point x="240" y="461"/>
      <point x="278" y="461" type="curve" smooth="yes"/>
      <point x="311" y="461"/>
      <point x="344" y="454"/>
      <point x="368" y="418" type="curve" smooth="yes"/>
      <point x="380" y="399"/>
      <point x="384" y="377"/>
    </contour>
    <contour>
      <point x="307" y="637" type="line"/>
      <point x="380" y="549" type="line"/>
      <point x="425" y="587" type="line"/>
      <point x="320" y="713" type="line"/>
      <point x="166" y="586" type="line"/>
      <point x="197" y="548" type="line"/>
    </contour>
  </outline>
</glyph>
<glyph name="igrave" format="1">
  <advance width="140"/>
  <unicode hex="00EC"/>
  <outline>
    <contour>
      <point x="207" y="499" type="line"/>
      <point x="152" y="499" type="line"/>
      <point x="65" y="0" type="line"/>
      <point x="120" y="0" type="line"/>
    </contour>
    <contour>
      <point x="124" y="623" type="curve"/>
      <point x="163" y="543" type="line"/>
      <point x="198" y="543" type="line"/>
      <point x="180" y="651" type="line" smooth="yes"/>
      <point x="176" y="669"/>
      <point x="159" y="680"/>
      <point x="140" y="671" type="curve" smooth="yes"/>
      <point x="120" y="661"/>
      <point x="114" y="638"/>
    </contour>
  </outline>
</glyph>
<glyph name="iacute" format="1">
  <advance width="139"/>
  <unicode hex="00ED"/>
  <outline>
    <contour>
      <point x="163" y="499" type="line"/>
      <point x="107" y="499" type="line"/>
      <point x="20" y="0" type="line"/>
      <point x="76" y="0" type="line"/>
    </contour>
    <contour>
      <point x="184" y="651" type="curve" smooth="yes"/>
      <point x="127" y="543" type="line"/>
      <point x="163" y="543" type="line"/>
      <point x="230" y="623" type="line"/>
      <point x="245" y="638"/>
      <point x="248" y="661"/>
      <point x="232" y="671" type="curve" smooth="yes"/>
      <point x="216" y="680"/>
      <point x="193" y="669"/>
    </contour>
  </outline>
</glyph>
<glyph name="icircumflex" format="1">
  <advance width="256"/>
  <unicode hex="00EE"/>
  <outline>
    <contour>
      <point x="241" y="499" type="line"/>
      <point x="185" y="499" type="line"/>
      <point x="98" y="0" type="line"/>
      <point x="154" y="0" type="line"/>
    </contour>
    <contour>
      <point x="239" y="634" type="line"/>
      <point x="313" y="546" type="line"/>
      <point x="358" y="583" type="line"/>
      <point x="252" y="708" type="line"/>
      <point x="99" y="582" type="line"/>
      <point x="130" y="543" type="line"/>
    </contour>
  </outline>
</glyph>
<glyph name="idieresis" format="1">
  <advance width="230"/>
  <unicode hex="00EF"/>
  <outline>
    <contour>
      <point x="228" y="499" type="line"/>
      <point x="172" y="499" type="line"/>
      <point x="85" y="0" type="line"/>
      <point x="141" y="0" type="line"/>
    </contour>
    <contour>
      <point x="332" y="603" type="curve" smooth="yes"/>
      <point x="335" y="620"/>
      <point x="322" y="636"/>
      <point x="303" y="636" type="curve" smooth="yes"/>
      <point x="285" y="636"/>
      <point x="267" y="620"/>
      <point x="264" y="603" type="curve" smooth="yes"/>
      <point x="260" y="584"/>
      <point x="273" y="569"/>
      <point x="291" y="569" type="curve" smooth="yes"/>
      <point x="310" y="569"/>
      <point x="328" y="584"/>
    </contour>
    <contour>
      <point x="173" y="603" type="curve" smooth="yes"/>
      <point x="176" y="620"/>
      <point x="164" y="636"/>
      <point x="146" y="636" type="curve" smooth="yes"/>
      <point x="127" y="636"/>
      <point x="109" y="620"/>
      <point x="106" y="603" type="curve" smooth="yes"/>
      <point x="102" y="584"/>
      <point x="115" y="569"/>
      <point x="134" y="569" type="curve" smooth="yes"/>
      <point x="152" y="569"/>
      <point x="169" y="584"/>
    </contour>
  </outline>
</glyph>
<glyph name="eth" format="1">
  <advance width="444"/>
  <unicode hex="00F0"/>
  <outline>
    <contour>
      <point x="341" y="707" type="curve" smooth="yes"/>
      <point x="281" y="707"/>
      <point x="228" y="686"/>
      <point x="180" y="646" type="curve" smooth="yes"/>
      <point x="132" y="605"/>
      <point x="102" y="554"/>
      <point x="92" y="495" type="curve" smooth="yes"/>
      <point x="82" y="437"/>
      <point x="94" y="386"/>
      <point x="127" y="345" type="curve" smooth="yes"/>
      <point x="161" y="305"/>
      <point x="208" y="284"/>
      <point x="270" y="284" type="curve" smooth="yes"/>
      <point x="330" y="284"/>
      <point x="386" y="307"/>
      <point x="436" y="352" type="curve"/>
      <point x="417" y="245" type="line" smooth="yes"/>
      <point x="406" y="182"/>
      <point x="379" y="135"/>
      <point x="336" y="102" type="curve" smooth="yes"/>
      <point x="295" y="70"/>
      <point x="249" y="54"/>
      <point x="198" y="54" type="curve" smooth="yes"/>
      <point x="160" y="54" type="line"/>
      <point x="150" y="-1" type="line"/>
      <point x="185" y="-1" type="line" smooth="yes"/>
      <point x="273" y="-1"/>
      <point x="348" y="34"/>
      <point x="392" y="84" type="curve" smooth="yes"/>
      <point x="436" y="131"/>
      <point x="461" y="183"/>
      <point x="470" y="238" type="curve" smooth="yes"/>
      <point x="516" y="495" type="line" smooth="yes"/>
      <point x="526" y="554"/>
      <point x="514" y="605"/>
      <point x="480" y="646" type="curve" smooth="yes"/>
      <point x="447" y="686"/>
      <point x="399" y="707"/>
    </contour>
    <contour>
      <point x="331" y="652" type="curve" smooth="yes"/>
      <point x="418" y="652"/>
      <point x="476" y="582"/>
      <point x="461" y="495" type="curve" smooth="yes"/>
      <point x="446" y="409"/>
      <point x="363" y="339"/>
      <point x="276" y="339" type="curve" smooth="yes"/>
      <point x="189" y="339"/>
      <point x="133" y="409"/>
      <point x="148" y="495" type="curve" smooth="yes"/>
      <point x="163" y="582"/>
      <point x="244" y="652"/>
    </contour>
  </outline>
</glyph>
<glyph name="ntilde" format="1">
  <advance width="405"/>
  <unicode hex="00F1"/>
  <outline>
    <contour>
      <point x="392" y="342" type="curve" smooth="yes"/>
      <point x="332" y="0" type="line"/>
      <point x="387" y="0" type="line"/>
      <point x="447" y="345" type="line" smooth="yes"/>
      <point x="466" y="450"/>
      <point x="412" y="508"/>
      <point x="302" y="508" type="curve" smooth="yes"/>
      <point x="253" y="508"/>
      <point x="199" y="492"/>
      <point x="156" y="465" type="curve"/>
      <point x="162" y="499" type="line"/>
      <point x="106" y="499" type="line"/>
      <point x="19" y="0" type="line"/>
      <point x="75" y="0" type="line"/>
      <point x="149" y="424" type="line"/>
      <point x="194" y="447"/>
      <point x="237" y="458"/>
      <point x="282" y="458" type="curve" smooth="yes"/>
      <point x="345" y="458"/>
      <point x="408" y="432"/>
    </contour>
    <contour>
      <point x="434" y="581" type="curve"/>
      <point x="422" y="628" type="line"/>
      <point x="407" y="617"/>
      <point x="385" y="607"/>
      <point x="367" y="608" type="curve"/>
      <point x="352" y="607"/>
      <point x="310" y="634"/>
      <point x="262" y="634" type="curve" smooth="yes"/>
      <point x="235" y="634"/>
      <point x="206" y="626"/>
      <point x="179" y="602" type="curve"/>
      <point x="193" y="555" type="line"/>
      <point x="209" y="566"/>
      <point x="222" y="574"/>
      <point x="242" y="575" type="curve" smooth="yes"/>
      <point x="273" y="577"/>
      <point x="313" y="551"/>
      <point x="358" y="551" type="curve" smooth="yes"/>
      <point x="382" y="551"/>
      <point x="407" y="558"/>
    </contour>
  </outline>
</glyph>
<glyph name="ocircumflex" format="1">
  <advance width="395"/>
  <unicode hex="00F4"/>
  <outline>
    <contour>
      <point x="413" y="184" type="curve" smooth="yes"/>
      <point x="436" y="315" type="line" smooth="yes"/>
      <point x="457" y="436"/>
      <point x="406" y="510"/>
      <point x="287" y="510" type="curve" smooth="yes"/>
      <point x="168" y="510"/>
      <point x="89" y="442"/>
      <point x="67" y="315" type="curve" smooth="yes"/>
      <point x="44" y="184" type="line" smooth="yes"/>
      <point x="25" y="75"/>
      <point x="74" y="-10"/>
      <point x="198" y="-10" type="curve" smooth="yes"/>
      <point x="321" y="-10"/>
      <point x="393" y="71"/>
    </contour>
    <contour>
      <point x="379" y="315" type="curve" smooth="yes"/>
      <point x="354" y="174" type="line" smooth="yes"/>
      <point x="340" y="92"/>
      <point x="290" y="40"/>
      <point x="207" y="40" type="curve" smooth="yes"/>
      <point x="126" y="40"/>
      <point x="84" y="94"/>
      <point x="98" y="174" type="curve" smooth="yes"/>
      <point x="123" y="315" type="line" smooth="yes"/>
      <point x="140" y="411"/>
      <point x="193" y="460"/>
      <point x="281" y="460" type="curve" smooth="yes"/>
      <point x="367" y="460"/>
      <point x="396" y="411"/>
    </contour>
    <contour>
      <point x="317" y="642" type="line"/>
      <point x="402" y="538" type="line"/>
      <point x="447" y="577" type="line"/>
      <point x="331" y="718" type="line"/>
      <point x="158" y="577" type="line"/>
      <point x="189" y="538" type="line"/>
    </contour>
  </outline>
</glyph>
<glyph name="otilde" format="1">
  <advance width="395"/>
  <unicode hex="00F5"/>
  <outline>
    <contour>
      <point x="413" y="184" type="curve" smooth="yes"/>
      <point x="436" y="315" type="line" smooth="yes"/>
      <point x="457" y="436"/>
      <point x="406" y="510"/>
      <point x="287" y="510" type="curve" smooth="yes"/>
      <point x="168" y="510"/>
      <point x="89" y="442"/>
      <point x="67" y="315" type="curve" smooth="yes"/>
      <point x="44" y="184" type="line" smooth="yes"/>
      <point x="25" y="75"/>
      <point x="74" y="-10"/>
      <point x="198" y="-10" type="curve" smooth="yes"/>
      <point x="321" y="-10"/>
      <point x="393" y="71"/>
    </contour>
    <contour>
      <point x="379" y="315" type="curve" smooth="yes"/>
      <point x="354" y="174" type="line" smooth="yes"/>
      <point x="340" y="92"/>
      <point x="290" y="40"/>
      <point x="207" y="40" type="curve" smooth="yes"/>
      <point x="126" y="40"/>
      <point x="84" y="94"/>
      <point x="98" y="174" type="curve" smooth="yes"/>
      <point x="123" y="315" type="line" smooth="yes"/>
      <point x="140" y="411"/>
      <point x="193" y="460"/>
      <point x="281" y="460" type="curve" smooth="yes"/>
      <point x="367" y="460"/>
      <point x="396" y="411"/>
    </contour>
    <contour>
      <point x="429" y="581" type="curve"/>
      <point x="416" y="628" type="line"/>
      <point x="401" y="617"/>
      <point x="379" y="608"/>
      <point x="360" y="608" type="curve" smooth="yes"/>
      <point x="347" y="608"/>
      <point x="305" y="634"/>
      <point x="256" y="634" type="curve" smooth="yes"/>
      <point x="229" y="634"/>
      <point x="200" y="626"/>
      <point x="173" y="602" type="curve"/>
      <point x="186" y="555" type="line"/>
      <point x="202" y="566"/>
      <point x="217" y="574"/>
      <point x="236" y="575" type="curve" smooth="yes"/>
      <point x="266" y="577"/>
      <point x="306" y="551"/>
      <point x="352" y="551" type="curve" smooth="yes"/>
      <point x="376" y="551"/>
      <point x="402" y="559"/>
    </contour>
  </outline>
</glyph>
<glyph name="odieresis" format="1">
  <advance width="395"/>
  <unicode hex="00F6"/>
  <outline>
    <contour>
      <point x="413" y="184" type="curve" smooth="yes"/>
      <point x="436" y="315" type="line" smooth="yes"/>
      <point x="457" y="436"/>
      <point x="406" y="510"/>
      <point x="287" y="510" type="curve" smooth="yes"/>
      <point x="168" y="510"/>
      <point x="89" y="442"/>
      <point x="67" y="315" type="curve" smooth="yes"/>
      <point x="44" y="184" type="line" smooth="yes"/>
      <point x="25" y="75"/>
      <point x="74" y="-10"/>
      <point x="198" y="-10" type="curve" smooth="yes"/>
      <point x="321" y="-10"/>
      <point x="393" y="71"/>
    </contour>
    <contour>
      <point x="379" y="315" type="curve" smooth="yes"/>
      <point x="354" y="174" type="line" smooth="yes"/>
      <point x="340" y="92"/>
      <point x="290" y="40"/>
      <point x="207" y="40" type="curve" smooth="yes"/>
      <point x="126" y="40"/>
      <point x="84" y="94"/>
      <point x="98" y="174" type="curve" smooth="yes"/>
      <point x="123" y="315" type="line" smooth="yes"/>
      <point x="140" y="411"/>
      <point x="193" y="460"/>
      <point x="281" y="460" type="curve" smooth="yes"/>
      <point x="367" y="460"/>
      <point x="396" y="411"/>
    </contour>
    <contour>
      <point x="411" y="606" type="curve" smooth="yes"/>
      <point x="415" y="625"/>
      <point x="402" y="639"/>
      <point x="384" y="639" type="curve" smooth="yes"/>
      <point x="365" y="639"/>
      <point x="348" y="625"/>
      <point x="344" y="606" type="curve" smooth="yes"/>
      <point x="341" y="587"/>
      <point x="353" y="572"/>
      <point x="372" y="572" type="curve" smooth="yes"/>
      <point x="390" y="572"/>
      <point x="408" y="587"/>
    </contour>
    <contour>
      <point x="253" y="606" type="curve" smooth="yes"/>
      <point x="257" y="625"/>
      <point x="244" y="639"/>
      <point x="225" y="639" type="curve" smooth="yes"/>
      <point x="208" y="639"/>
      <point x="190" y="625"/>
      <point x="186" y="606" type="curve" smooth="yes"/>
      <point x="183" y="587"/>
      <point x="196" y="572"/>
      <point x="213" y="572" type="curve" smooth="yes"/>
      <point x="232" y="572"/>
      <point x="250" y="587"/>
    </contour>
  </outline>
</glyph>
<glyph name="divide" format="1">
  <advance width="355"/>
  <unicode hex="00F7"/>
  <outline>
    <contour>
      <point x="409" y="409" type="line"/>
      <point x="90" y="409" type="line"/>
      <point x="80" y="355" type="line"/>
      <point x="399" y="355" type="line"/>
    </contour>
    <contour>
      <point x="273" y="544" type="curve" smooth="yes"/>
      <point x="254" y="544"/>
      <point x="238" y="529"/>
      <point x="234" y="510" type="curve" smooth="yes"/>
      <point x="231" y="492"/>
      <point x="243" y="477"/>
      <point x="262" y="477" type="curve" smooth="yes"/>
      <point x="281" y="477"/>
      <point x="298" y="492"/>
      <point x="301" y="510" type="curve" smooth="yes"/>
      <point x="305" y="529"/>
      <point x="292" y="544"/>
    </contour>
    <contour>
      <point x="228" y="287" type="curve" smooth="yes"/>
      <point x="209" y="287"/>
      <point x="193" y="273"/>
      <point x="189" y="254" type="curve" smooth="yes"/>
      <point x="186" y="235"/>
      <point x="197" y="221"/>
      <point x="216" y="221" type="curve" smooth="yes"/>
      <point x="235" y="221"/>
      <point x="253" y="235"/>
      <point x="256" y="254" type="curve" smooth="yes"/>
      <point x="260" y="273"/>
      <point x="247" y="287"/>
    </contour>
  </outline>
</glyph>
<glyph name="uacute" format="1">
  <advance width="402"/>
  <unicode hex="00FA"/>
  <outline>
    <contour>
      <point x="335" y="48" type="curve"/>
      <point x="327" y="0" type="line"/>
      <point x="383" y="0" type="line"/>
      <point x="470" y="499" type="line"/>
      <point x="414" y="499" type="line"/>
      <point x="357" y="172" type="line" smooth="yes"/>
      <point x="344" y="101"/>
      <point x="278" y="44"/>
      <point x="207" y="44" type="curve" smooth="yes"/>
      <point x="143" y="44"/>
      <point x="81" y="68"/>
      <point x="98" y="159" type="curve" smooth="yes"/>
      <point x="157" y="499" type="line"/>
      <point x="101" y="499" type="line"/>
      <point x="41" y="156" type="line" smooth="yes"/>
      <point x="21" y="43"/>
      <point x="75" y="-10"/>
      <point x="186" y="-10" type="curve" smooth="yes"/>
      <point x="236" y="-10"/>
      <point x="294" y="9"/>
    </contour>
    <contour>
      <point x="337" y="649" type="curve"/>
      <point x="281" y="542" type="line"/>
      <point x="316" y="542" type="line"/>
      <point x="383" y="621" type="line"/>
      <point x="398" y="636"/>
      <point x="401" y="659"/>
      <point x="384" y="669" type="curve" smooth="yes"/>
      <point x="369" y="679"/>
      <point x="346" y="668"/>
    </contour>
  </outline>
</glyph>
<glyph name="udieresis" format="1">
  <advance width="404"/>
  <unicode hex="00FC"/>
  <outline>
    <contour>
      <point x="336" y="48" type="curve"/>
      <point x="328" y="0" type="line"/>
      <point x="384" y="0" type="line"/>
      <point x="471" y="499" type="line"/>
      <point x="415" y="499" type="line"/>
      <point x="358" y="172" type="line" smooth="yes"/>
      <point x="345" y="101"/>
      <point x="279" y="44"/>
      <point x="208" y="44" type="curve" smooth="yes"/>
      <point x="144" y="44"/>
      <point x="82" y="68"/>
      <point x="99" y="159" type="curve" smooth="yes"/>
      <point x="158" y="499" type="line"/>
      <point x="102" y="499" type="line"/>
      <point x="42" y="156" type="line" smooth="yes"/>
      <point x="22" y="43"/>
      <point x="76" y="-10"/>
      <point x="187" y="-10" type="curve" smooth="yes"/>
      <point x="237" y="-10"/>
      <point x="295" y="9"/>
    </contour>
    <contour>
      <point x="391" y="636" type="curve" smooth="yes"/>
      <point x="373" y="636"/>
      <point x="354" y="620"/>
      <point x="351" y="602" type="curve" smooth="yes"/>
      <point x="347" y="583"/>
      <point x="361" y="569"/>
      <point x="379" y="569" type="curve" smooth="yes"/>
      <point x="397" y="569"/>
      <point x="414" y="583"/>
      <point x="418" y="602" type="curve" smooth="yes"/>
      <point x="421" y="620"/>
      <point x="409" y="636"/>
    </contour>
    <contour>
      <point x="233" y="636" type="curve" smooth="yes"/>
      <point x="214" y="636"/>
      <point x="197" y="620"/>
      <point x="194" y="602" type="curve" smooth="yes"/>
      <point x="190" y="583"/>
      <point x="202" y="569"/>
      <point x="221" y="569" type="curve" smooth="yes"/>
      <point x="240" y="569"/>
      <point x="256" y="583"/>
      <point x="260" y="602" type="curve" smooth="yes"/>
      <point x="263" y="620"/>
      <point x="252" y="636"/>
    </contour>
  </outline>
</glyph>
<glyph name="yacute" format="1">
  <advance width="428"/>
  <unicode hex="00FD"/>
  <outline>
    <contour>
      <point x="498" y="468" type="curve"/>
      <point x="485" y="510" type="line"/>
      <point x="435" y="494"/>
      <point x="406" y="453"/>
      <point x="398" y="408" type="curve" smooth="yes"/>
      <point x="357" y="173" type="line" smooth="yes"/>
      <point x="344" y="102"/>
      <point x="278" y="44"/>
      <point x="207" y="44" type="curve" smooth="yes"/>
      <point x="144" y="44"/>
      <point x="82" y="69"/>
      <point x="98" y="161" type="curve" smooth="yes"/>
      <point x="157" y="499" type="line"/>
      <point x="101" y="499" type="line"/>
      <point x="41" y="157" type="line" smooth="yes"/>
      <point x="21" y="44"/>
      <point x="76" y="-9"/>
      <point x="186" y="-9" type="curve" smooth="yes"/>
      <point x="236" y="-9"/>
      <point x="295" y="10"/>
      <point x="335" y="50" type="curve"/>
      <point x="316" y="-61" type="line" smooth="yes"/>
      <point x="311" y="-89"/>
      <point x="301" y="-112"/>
      <point x="285" y="-130" type="curve" smooth="yes"/>
      <point x="271" y="-145"/>
      <point x="254" y="-157"/>
      <point x="232" y="-165" type="curve"/>
      <point x="241" y="-208" type="line"/>
      <point x="275" y="-197"/>
      <point x="301" y="-184"/>
      <point x="322" y="-165" type="curve" smooth="yes"/>
      <point x="349" y="-140"/>
      <point x="364" y="-107"/>
      <point x="372" y="-62" type="curve" smooth="yes"/>
      <point x="454" y="407" type="line" smooth="yes"/>
      <point x="461" y="448"/>
      <point x="478" y="460"/>
    </contour>
    <contour>
      <point x="352" y="650" type="curve"/>
      <point x="294" y="543" type="line"/>
      <point x="329" y="543" type="line"/>
      <point x="397" y="621" type="line"/>
      <point x="412" y="637"/>
      <point x="415" y="660"/>
      <point x="400" y="670" type="curve" smooth="yes"/>
      <point x="383" y="680"/>
      <point x="360" y="669"/>
    </contour>
  </outline>
</glyph>
<glyph name="thorn" format="1">
  <advance width="409"/>
  <unicode hex="00FE"/>
  <outline>
    <contour>
      <point x="157" y="453" type="curve"/>
      <point x="201" y="698" type="line"/>
      <point x="145" y="698" type="line"/>
      <point x="22" y="0" type="line"/>
      <point x="78" y="0" type="line"/>
      <point x="110" y="185" type="line"/>
      <point x="130" y="142"/>
      <point x="185" y="116"/>
      <point x="233" y="116" type="curve" smooth="yes"/>
      <point x="344" y="116"/>
      <point x="432" y="190"/>
      <point x="453" y="310" type="curve" smooth="yes"/>
      <point x="473" y="422"/>
      <point x="416" y="507"/>
      <point x="306" y="507" type="curve" smooth="yes"/>
      <point x="248" y="507"/>
      <point x="202" y="490"/>
    </contour>
    <contour>
      <point x="292" y="457" type="curve" smooth="yes"/>
      <point x="365" y="457"/>
      <point x="416" y="416"/>
      <point x="398" y="316" type="curve" smooth="yes"/>
      <point x="381" y="217"/>
      <point x="319" y="169"/>
      <point x="240" y="169" type="curve" smooth="yes"/>
      <point x="162" y="169"/>
      <point x="117" y="220"/>
      <point x="135" y="323" type="curve" smooth="yes"/>
      <point x="157" y="415"/>
      <point x="222" y="457"/>
    </contour>
  </outline>
</glyph>
<glyph name="ydieresis" format="1">
  <advance width="429"/>
  <unicode hex="00FF"/>
  <outline>
    <contour>
      <point x="499" y="468" type="curve"/>
      <point x="486" y="510" type="line"/>
      <point x="436" y="494"/>
      <point x="407" y="453"/>
      <point x="399" y="408" type="curve" smooth="yes"/>
      <point x="358" y="173" type="line" smooth="yes"/>
      <point x="345" y="102"/>
      <point x="279" y="44"/>
      <point x="208" y="44" type="curve" smooth="yes"/>
      <point x="146" y="44"/>
      <point x="83" y="69"/>
      <point x="99" y="161" type="curve" smooth="yes"/>
      <point x="158" y="499" type="line"/>
      <point x="102" y="499" type="line"/>
      <point x="42" y="157" type="line" smooth="yes"/>
      <point x="22" y="44"/>
      <point x="77" y="-9"/>
      <point x="187" y="-9" type="curve" smooth="yes"/>
      <point x="237" y="-9"/>
      <point x="296" y="10"/>
      <point x="336" y="50" type="curve"/>
      <point x="317" y="-61" type="line" smooth="yes"/>
      <point x="312" y="-89"/>
      <point x="302" y="-112"/>
      <point x="286" y="-130" type="curve" smooth="yes"/>
      <point x="272" y="-145"/>
      <point x="255" y="-157"/>
      <point x="233" y="-165" type="curve"/>
      <point x="242" y="-208" type="line"/>
      <point x="276" y="-197"/>
      <point x="302" y="-184"/>
      <point x="323" y="-165" type="curve" smooth="yes"/>
      <point x="350" y="-140"/>
      <point x="365" y="-107"/>
      <point x="373" y="-62" type="curve" smooth="yes"/>
      <point x="455" y="407" type="line" smooth="yes"/>
      <point x="462" y="448"/>
      <point x="479" y="460"/>
    </contour>
    <contour>
      <point x="402" y="636" type="curve" smooth="yes"/>
      <point x="385" y="636"/>
      <point x="366" y="620"/>
      <point x="363" y="602" type="curve" smooth="yes"/>
      <point x="359" y="583"/>
      <point x="373" y="569"/>
      <point x="390" y="569" type="curve" smooth="yes"/>
      <point x="409" y="569"/>
      <point x="426" y="583"/>
      <point x="430" y="602" type="curve" smooth="yes"/>
      <point x="433" y="620"/>
      <point x="421" y="636"/>
    </contour>
    <contour>
      <point x="245" y="636" type="curve" smooth="yes"/>
      <point x="226" y="636"/>
      <point x="208" y="620"/>
      <point x="205" y="602" type="curve" smooth="yes"/>
      <point x="201" y="583"/>
      <point x="214" y="569"/>
      <point x="233" y="569" type="curve" smooth="yes"/>
      <point x="252" y="569"/>
      <point x="268" y="583"/>
      <point x="272" y="602" type="curve" smooth="yes"/>
      <point x="275" y="620"/>
      <point x="264" y="636"/>
    </contour>
  </outline>
</glyph>
<glyph name="amacron" format="1">
  <advance width="413"/>
  <unicode hex="0101"/>
  <outline>
    <contour>
      <point x="400" y="349" type="curve"/>
      <point x="359" y="375"/>
      <point x="299" y="402"/>
      <point x="234" y="402" type="curve" smooth="yes"/>
      <point x="154" y="402"/>
      <point x="75" y="363"/>
      <point x="55" y="251" type="curve" smooth="yes"/>
      <point x="50" y="223"/>
      <point x="45" y="196"/>
      <point x="40" y="168" type="curve" smooth="yes"/>
      <point x="14" y="21"/>
      <point x="106" y="-14"/>
      <point x="236" y="-10" type="curve" smooth="yes"/>
      <point x="285" y="-9"/>
      <point x="395" y="0"/>
      <point x="395" y="0" type="curve"/>
      <point x="411" y="96"/>
      <point x="428" y="191"/>
      <point x="445" y="287" type="curve" smooth="yes"/>
      <point x="461" y="375"/>
      <point x="465" y="444"/>
      <point x="408" y="480" type="curve" smooth="yes"/>
      <point x="371" y="504"/>
      <point x="322" y="507"/>
      <point x="276" y="507" type="curve"/>
      <point x="266" y="464" type="line"/>
      <point x="303" y="464"/>
      <point x="337" y="461"/>
      <point x="361" y="449" type="curve" smooth="yes"/>
      <point x="394" y="432"/>
      <point x="410" y="404"/>
    </contour>
    <contour>
      <point x="392" y="302" type="curve"/>
      <point x="377" y="217"/>
      <point x="362" y="132"/>
      <point x="347" y="46" type="curve"/>
      <point x="347" y="46"/>
      <point x="305" y="42"/>
      <point x="239" y="38" type="curve" smooth="yes"/>
      <point x="105" y="33"/>
      <point x="80" y="80"/>
      <point x="96" y="175" type="curve" smooth="yes"/>
      <point x="100" y="195"/>
      <point x="105" y="226"/>
      <point x="109" y="249" type="curve" smooth="yes"/>
      <point x="125" y="339"/>
      <point x="185" y="354"/>
      <point x="221" y="354" type="curve" smooth="yes"/>
      <point x="285" y="354"/>
      <point x="342" y="329"/>
    </contour>
    <contour>
      <point x="420" y="607" type="line"/>
      <point x="199" y="607" type="line"/>
      <point x="188" y="550" type="line"/>
      <point x="409" y="550" type="line"/>
    </contour>
  </outline>
</glyph>
<glyph name="Abreve" format="1">
  <advance width="514"/>
  <unicode hex="0102"/>
  <outline>
    <contour>
      <point x="352" y="698" type="line"/>
      <point x="5" y="0" type="line"/>
      <point x="65" y="0" type="line"/>
      <point x="186" y="244" type="line"/>
      <point x="413" y="244" type="line"/>
      <point x="450" y="0" type="line"/>
      <point x="509" y="0" type="line"/>
      <point x="405" y="698" type="line"/>
    </contour>
    <contour>
      <point x="407" y="299" type="line"/>
      <point x="210" y="299" type="line"/>
      <point x="362" y="612" type="line"/>
    </contour>
    <contour>
      <point x="341" y="855" type="curve" smooth="yes"/>
      <point x="342" y="861" type="line"/>
      <point x="296" y="861" type="line"/>
      <point x="295" y="855" type="line" smooth="yes"/>
      <point x="284" y="792"/>
      <point x="326" y="741"/>
      <point x="388" y="741" type="curve" smooth="yes"/>
      <point x="451" y="741"/>
      <point x="511" y="792"/>
      <point x="522" y="855" type="curve" smooth="yes"/>
      <point x="523" y="861" type="line"/>
      <point x="478" y="861" type="line"/>
      <point x="477" y="855" type="line" smooth="yes"/>
      <point x="471" y="817"/>
      <point x="434" y="787"/>
      <point x="396" y="787" type="curve" smooth="yes"/>
      <point x="359" y="787"/>
      <point x="335" y="817"/>
    </contour>
  </outline>
</glyph>
<glyph name="Aogonek" format="1">
  <advance width="566"/>
  <unicode hex="0104"/>
  <outline>
    <contour>
      <point x="352" y="698" type="line"/>
      <point x="5" y="0" type="line"/>
      <point x="65" y="0" type="line"/>
      <point x="186" y="244" type="line"/>
      <point x="413" y="244" type="line"/>
      <point x="450" y="0" type="line"/>
      <point x="509" y="0" type="line"/>
      <point x="405" y="698" type="line"/>
    </contour>
    <contour>
      <point x="407" y="299" type="line"/>
      <point x="210" y="299" type="line"/>
      <point x="362" y="612" type="line"/>
    </contour>
    <contour>
      <point x="407" y="-127" type="curve" smooth="yes"/>
      <point x="501" y="-2" type="line"/>
      <point x="503" y="7" type="line"/>
      <point x="458" y="3" type="line"/>
      <point x="457" y="-1" type="line"/>
      <point x="374" y="-112" type="line" smooth="yes"/>
      <point x="320" y="-185"/>
      <point x="357" y="-255"/>
      <point x="450" y="-230" type="curve" smooth="yes"/>
      <point x="469" y="-224"/>
      <point x="558" y="-195"/>
      <point x="560" y="-194" type="curve"/>
      <point x="548" y="-154" type="line"/>
      <point x="548" y="-154"/>
      <point x="505" y="-168"/>
      <point x="446" y="-188" type="curve" smooth="yes"/>
      <point x="394" y="-205"/>
      <point x="374" y="-173"/>
    </contour>
  </outline>
</glyph>
<glyph name="aogonek" format="1">
  <advance width="459"/>
  <unicode hex="0105"/>
  <outline>
    <contour>
      <point x="398" y="349" type="curve"/>
      <point x="356" y="375"/>
      <point x="297" y="402"/>
      <point x="232" y="402" type="curve" smooth="yes"/>
      <point x="151" y="402"/>
      <point x="73" y="363"/>
      <point x="53" y="251" type="curve" smooth="yes"/>
      <point x="48" y="223"/>
      <point x="43" y="196"/>
      <point x="38" y="168" type="curve" smooth="yes"/>
      <point x="12" y="21"/>
      <point x="104" y="-14"/>
      <point x="233" y="-10" type="curve" smooth="yes"/>
      <point x="283" y="-9"/>
      <point x="393" y="0"/>
      <point x="393" y="0" type="curve"/>
      <point x="409" y="96"/>
      <point x="426" y="191"/>
      <point x="443" y="287" type="curve" smooth="yes"/>
      <point x="459" y="375"/>
      <point x="463" y="444"/>
      <point x="406" y="480" type="curve" smooth="yes"/>
      <point x="368" y="504"/>
      <point x="320" y="507"/>
      <point x="274" y="507" type="curve"/>
      <point x="264" y="464" type="line"/>
      <point x="301" y="464"/>
      <point x="335" y="461"/>
      <point x="358" y="449" type="curve" smooth="yes"/>
      <point x="392" y="432"/>
      <point x="408" y="404"/>
    </contour>
    <contour>
      <point x="390" y="302" type="curve"/>
      <point x="375" y="217"/>
      <point x="360" y="132"/>
      <point x="345" y="46" type="curve"/>
      <point x="345" y="46"/>
      <point x="303" y="42"/>
      <point x="237" y="38" type="curve" smooth="yes"/>
      <point x="103" y="33"/>
      <point x="78" y="80"/>
      <point x="94" y="175" type="curve" smooth="yes"/>
      <point x="98" y="195"/>
      <point x="103" y="226"/>
      <point x="107" y="249" type="curve" smooth="yes"/>
      <point x="123" y="339"/>
      <point x="183" y="354"/>
      <point x="219" y="354" type="curve" smooth="yes"/>
      <point x="283" y="354"/>
      <point x="340" y="329"/>
    </contour>
    <contour>
      <point x="288" y="-132" type="curve" smooth="yes"/>
      <point x="321" y="-90"/>
      <point x="351" y="-50"/>
      <point x="382" y="-8" type="curve"/>
      <point x="384" y="1" type="line"/>
      <point x="370" y="0"/>
      <point x="353" y="-1"/>
      <point x="339" y="-2" type="curve"/>
      <point x="339" y="-3"/>
      <point x="338" y="-6"/>
      <point x="338" y="-7" type="curve"/>
      <point x="255" y="-118" type="line" smooth="yes"/>
      <point x="201" y="-189"/>
      <point x="238" y="-260"/>
      <point x="330" y="-234" type="curve" smooth="yes"/>
      <point x="350" y="-230"/>
      <point x="439" y="-200"/>
      <point x="440" y="-199" type="curve"/>
      <point x="430" y="-160" type="line"/>
      <point x="430" y="-160"/>
      <point x="386" y="-174"/>
      <point x="327" y="-193" type="curve" smooth="yes"/>
      <point x="274" y="-210"/>
      <point x="254" y="-178"/>
    </contour>
  </outline>
</glyph>
<glyph name="Cacute" format="1">
  <advance width="386"/>
  <unicode hex="0106"/>
  <outline>
    <contour>
      <point x="446" y="637" type="curve"/>
      <point x="470" y="675" type="line"/>
      <point x="430" y="697"/>
      <point x="384" y="708"/>
      <point x="333" y="708" type="curve" smooth="yes"/>
      <point x="292" y="708"/>
      <point x="255" y="700"/>
      <point x="222" y="683" type="curve" smooth="yes"/>
      <point x="158" y="647"/>
      <point x="119" y="590"/>
      <point x="103" y="503" type="curve" smooth="yes"/>
      <point x="47" y="183" type="line" smooth="yes"/>
      <point x="32" y="99"/>
      <point x="55" y="42"/>
      <point x="99" y="15" type="curve" smooth="yes"/>
      <point x="143" y="-10"/>
      <point x="192" y="-10"/>
      <point x="213" y="-10" type="curve" smooth="yes"/>
      <point x="263" y="-10"/>
      <point x="319" y="1"/>
      <point x="380" y="23" type="curve"/>
      <point x="376" y="69" type="line"/>
      <point x="315" y="50"/>
      <point x="265" y="40"/>
      <point x="226" y="40" type="curve" smooth="yes"/>
      <point x="180" y="40"/>
      <point x="149" y="48"/>
      <point x="129" y="65" type="curve" smooth="yes"/>
      <point x="97" y="90"/>
      <point x="94" y="132"/>
      <point x="103" y="185" type="curve" smooth="yes"/>
      <point x="161" y="512" type="line" smooth="yes"/>
      <point x="171" y="568"/>
      <point x="195" y="607"/>
      <point x="233" y="631" type="curve" smooth="yes"/>
      <point x="261" y="649"/>
      <point x="299" y="658"/>
      <point x="343" y="658" type="curve" smooth="yes"/>
      <point x="377" y="658"/>
      <point x="411" y="651"/>
    </contour>
    <contour>
      <point x="383" y="848" type="curve" smooth="yes"/>
      <point x="327" y="741" type="line"/>
      <point x="362" y="741" type="line"/>
      <point x="429" y="821" type="line"/>
      <point x="445" y="835"/>
      <point x="447" y="858"/>
      <point x="431" y="868" type="curve" smooth="yes"/>
      <point x="415" y="878"/>
      <point x="393" y="867"/>
    </contour>
  </outline>
</glyph>
<glyph name="cacute" format="1">
  <advance width="345"/>
  <unicode hex="0107"/>
  <outline>
    <contour>
      <point x="390" y="430" type="curve"/>
      <point x="413" y="476" type="line"/>
      <point x="361" y="503"/>
      <point x="296" y="516"/>
      <point x="236" y="504" type="curve" smooth="yes"/>
      <point x="190" y="494"/>
      <point x="147" y="470"/>
      <point x="115" y="426" type="curve" smooth="yes"/>
      <point x="89" y="394"/>
      <point x="76" y="362"/>
      <point x="67" y="318" type="curve"/>
      <point x="41" y="173" type="line" smooth="yes"/>
      <point x="24" y="75"/>
      <point x="59" y="23"/>
      <point x="123" y="1" type="curve" smooth="yes"/>
      <point x="179" y="-18"/>
      <point x="262" y="-13"/>
      <point x="332" y="5" type="curve"/>
      <point x="330" y="55" type="line"/>
      <point x="330" y="55"/>
      <point x="203" y="26"/>
      <point x="144" y="52" type="curve" smooth="yes"/>
      <point x="94" y="71"/>
      <point x="86" y="119"/>
      <point x="98" y="185" type="curve" smooth="yes"/>
      <point x="119" y="305" type="line" smooth="yes"/>
      <point x="125" y="340"/>
      <point x="138" y="371"/>
      <point x="154" y="394" type="curve" smooth="yes"/>
      <point x="176" y="426"/>
      <point x="205" y="446"/>
      <point x="236" y="453" type="curve" smooth="yes"/>
      <point x="281" y="464"/>
      <point x="346" y="452"/>
    </contour>
    <contour>
      <point x="326" y="654" type="curve"/>
      <point x="269" y="548" type="line"/>
      <point x="305" y="548" type="line"/>
      <point x="372" y="627" type="line"/>
      <point x="387" y="641"/>
      <point x="390" y="664"/>
      <point x="373" y="674" type="curve" smooth="yes"/>
      <point x="358" y="684"/>
      <point x="335" y="673"/>
    </contour>
  </outline>
</glyph>
<glyph name="Ccircumflex" format="1">
  <advance width="387"/>
  <unicode hex="0108"/>
  <outline>
    <contour>
      <point x="447" y="637" type="curve"/>
      <point x="471" y="675" type="line"/>
      <point x="431" y="697"/>
      <point x="385" y="708"/>
      <point x="334" y="708" type="curve" smooth="yes"/>
      <point x="293" y="708"/>
      <point x="256" y="700"/>
      <point x="223" y="683" type="curve" smooth="yes"/>
      <point x="159" y="647"/>
      <point x="120" y="590"/>
      <point x="104" y="503" type="curve" smooth="yes"/>
      <point x="48" y="183" type="line" smooth="yes"/>
      <point x="33" y="99"/>
      <point x="57" y="42"/>
      <point x="100" y="15" type="curve" smooth="yes"/>
      <point x="144" y="-10"/>
      <point x="193" y="-10"/>
      <point x="214" y="-10" type="curve" smooth="yes"/>
      <point x="264" y="-10"/>
      <point x="320" y="1"/>
      <point x="381" y="23" type="curve"/>
      <point x="377" y="69" type="line"/>
      <point x="316" y="50"/>
      <point x="267" y="40"/>
      <point x="227" y="40" type="curve" smooth="yes"/>
      <point x="181" y="40"/>
      <point x="150" y="48"/>
      <point x="130" y="65" type="curve" smooth="yes"/>
      <point x="99" y="90"/>
      <point x="96" y="132"/>
      <point x="105" y="185" type="curve" smooth="yes"/>
      <point x="163" y="512" type="line" smooth="yes"/>
      <point x="173" y="568"/>
      <point x="196" y="607"/>
      <point x="234" y="631" type="curve" smooth="yes"/>
      <point x="262" y="649"/>
      <point x="300" y="658"/>
      <point x="344" y="658" type="curve" smooth="yes"/>
      <point x="378" y="658"/>
      <point x="412" y="651"/>
    </contour>
    <contour>
      <point x="345" y="831" type="line"/>
      <point x="419" y="743" type="line"/>
      <point x="464" y="781" type="line"/>
      <point x="358" y="906" type="line"/>
      <point x="204" y="780" type="line"/>
      <point x="236" y="741" type="line"/>
    </contour>
  </outline>
</glyph>
<glyph name="ccircumflex" format="1">
  <advance width="349"/>
  <unicode hex="0109"/>
  <outline>
    <contour>
      <point x="391" y="430" type="curve"/>
      <point x="414" y="476" type="line"/>
      <point x="362" y="503"/>
      <point x="297" y="516"/>
      <point x="238" y="504" type="curve" smooth="yes"/>
      <point x="192" y="494"/>
      <point x="148" y="470"/>
      <point x="116" y="426" type="curve" smooth="yes"/>
      <point x="90" y="394"/>
      <point x="77" y="362"/>
      <point x="68" y="318" type="curve"/>
      <point x="42" y="173" type="line" smooth="yes"/>
      <point x="25" y="75"/>
      <point x="60" y="23"/>
      <point x="124" y="1" type="curve" smooth="yes"/>
      <point x="180" y="-18"/>
      <point x="263" y="-13"/>
      <point x="333" y="5" type="curve"/>
      <point x="331" y="55" type="line"/>
      <point x="331" y="55"/>
      <point x="204" y="26"/>
      <point x="145" y="52" type="curve" smooth="yes"/>
      <point x="96" y="71"/>
      <point x="87" y="119"/>
      <point x="99" y="185" type="curve" smooth="yes"/>
      <point x="120" y="305" type="line" smooth="yes"/>
      <point x="126" y="340"/>
      <point x="139" y="371"/>
      <point x="155" y="394" type="curve" smooth="yes"/>
      <point x="177" y="426"/>
      <point x="206" y="446"/>
      <point x="237" y="453" type="curve" smooth="yes"/>
      <point x="282" y="464"/>
      <point x="347" y="452"/>
    </contour>
    <contour>
      <point x="318" y="637" type="line"/>
      <point x="391" y="549" type="line"/>
      <point x="436" y="586" type="line"/>
      <point x="331" y="712" type="line"/>
      <point x="177" y="585" type="line"/>
      <point x="208" y="547" type="line"/>
    </contour>
  </outline>
</glyph>
<glyph name="cdotaccent" format="1">
  <advance width="345"/>
  <unicode hex="010B"/>
  <outline>
    <contour>
      <point x="390" y="430" type="curve"/>
      <point x="413" y="476" type="line"/>
      <point x="361" y="503"/>
      <point x="296" y="516"/>
      <point x="236" y="504" type="curve" smooth="yes"/>
      <point x="190" y="494"/>
      <point x="147" y="470"/>
      <point x="115" y="426" type="curve" smooth="yes"/>
      <point x="89" y="394"/>
      <point x="76" y="362"/>
      <point x="67" y="318" type="curve"/>
      <point x="41" y="173" type="line" smooth="yes"/>
      <point x="24" y="75"/>
      <point x="59" y="23"/>
      <point x="123" y="1" type="curve" smooth="yes"/>
      <point x="179" y="-18"/>
      <point x="262" y="-13"/>
      <point x="332" y="5" type="curve"/>
      <point x="330" y="55" type="line"/>
      <point x="330" y="55"/>
      <point x="203" y="26"/>
      <point x="144" y="52" type="curve" smooth="yes"/>
      <point x="94" y="71"/>
      <point x="86" y="119"/>
      <point x="98" y="185" type="curve" smooth="yes"/>
      <point x="119" y="305" type="line" smooth="yes"/>
      <point x="125" y="340"/>
      <point x="138" y="371"/>
      <point x="154" y="394" type="curve" smooth="yes"/>
      <point x="176" y="426"/>
      <point x="205" y="446"/>
      <point x="236" y="453" type="curve" smooth="yes"/>
      <point x="281" y="464"/>
      <point x="346" y="452"/>
    </contour>
    <contour>
      <point x="339" y="607" type="curve" smooth="yes"/>
      <point x="342" y="626"/>
      <point x="329" y="640"/>
      <point x="310" y="640" type="curve" smooth="yes"/>
      <point x="291" y="640"/>
      <point x="275" y="626"/>
      <point x="272" y="607" type="curve" smooth="yes"/>
      <point x="268" y="588"/>
      <point x="280" y="574"/>
      <point x="299" y="574" type="curve" smooth="yes"/>
      <point x="318" y="574"/>
      <point x="335" y="588"/>
    </contour>
  </outline>
</glyph>
<glyph name="ccaron" format="1">
  <advance width="349"/>
  <unicode hex="010D"/>
  <outline>
    <contour>
      <point x="391" y="430" type="curve"/>
      <point x="414" y="476" type="line"/>
      <point x="362" y="503"/>
      <point x="297" y="516"/>
      <point x="238" y="504" type="curve" smooth="yes"/>
      <point x="192" y="494"/>
      <point x="148" y="470"/>
      <point x="116" y="426" type="curve" smooth="yes"/>
      <point x="90" y="394"/>
      <point x="77" y="362"/>
      <point x="68" y="318" type="curve"/>
      <point x="42" y="173" type="line" smooth="yes"/>
      <point x="25" y="75"/>
      <point x="60" y="23"/>
      <point x="124" y="1" type="curve" smooth="yes"/>
      <point x="180" y="-18"/>
      <point x="263" y="-13"/>
      <point x="333" y="5" type="curve"/>
      <point x="331" y="55" type="line"/>
      <point x="331" y="55"/>
      <point x="204" y="26"/>
      <point x="145" y="52" type="curve" smooth="yes"/>
      <point x="96" y="71"/>
      <point x="87" y="119"/>
      <point x="99" y="185" type="curve" smooth="yes"/>
      <point x="120" y="305" type="line" smooth="yes"/>
      <point x="126" y="340"/>
      <point x="139" y="371"/>
      <point x="155" y="394" type="curve" smooth="yes"/>
      <point x="177" y="426"/>
      <point x="206" y="446"/>
      <point x="237" y="453" type="curve" smooth="yes"/>
      <point x="282" y="464"/>
      <point x="347" y="452"/>
    </contour>
    <contour>
      <point x="183" y="673" type="line"/>
      <point x="289" y="548" type="line"/>
      <point x="442" y="674" type="line"/>
      <point x="411" y="713" type="line"/>
      <point x="303" y="624" type="line"/>
      <point x="228" y="712" type="line"/>
    </contour>
  </outline>
</glyph>
<glyph name="Dcaron" format="1">
  <advance width="457"/>
  <unicode hex="010E"/>
  <outline>
    <contour>
      <point x="332" y="698" type="curve" smooth="yes"/>
      <point x="144" y="698" type="line"/>
      <point x="21" y="0" type="line"/>
      <point x="229" y="0" type="line" smooth="yes"/>
      <point x="370" y="0"/>
      <point x="451" y="67"/>
      <point x="475" y="199" type="curve" smooth="yes"/>
      <point x="523" y="473" type="line" smooth="yes"/>
      <point x="547" y="609"/>
      <point x="482" y="698"/>
    </contour>
    <contour>
      <point x="220" y="50" type="curve" smooth="yes"/>
      <point x="85" y="50" type="line"/>
      <point x="191" y="648" type="line"/>
      <point x="333" y="648" type="line" smooth="yes"/>
      <point x="449" y="648"/>
      <point x="485" y="574"/>
      <point x="470" y="488" type="curve" smooth="yes"/>
      <point x="417" y="189" type="line" smooth="yes"/>
      <point x="401" y="97"/>
      <point x="335" y="50"/>
    </contour>
    <contour>
      <point x="220" y="869" type="line"/>
      <point x="327" y="743" type="line"/>
      <point x="480" y="870" type="line"/>
      <point x="448" y="909" type="line"/>
      <point x="340" y="818" type="line"/>
      <point x="265" y="906" type="line"/>
    </contour>
  </outline>
</glyph>
<glyph name="dcaron" format="1">
  <advance width="507"/>
  <unicode hex="010F"/>
  <outline>
    <contour>
      <point x="396" y="0" type="curve"/>
      <point x="519" y="698" type="line"/>
      <point x="463" y="698" type="line"/>
      <point x="423" y="471" type="line"/>
      <point x="381" y="491"/>
      <point x="332" y="508"/>
      <point x="267" y="508" type="curve" smooth="yes"/>
      <point x="187" y="508"/>
      <point x="94" y="470"/>
      <point x="75" y="358" type="curve" smooth="yes"/>
      <point x="64" y="295"/>
      <point x="52" y="231"/>
      <point x="41" y="168" type="curve" smooth="yes"/>
      <point x="15" y="21"/>
      <point x="107" y="-14"/>
      <point x="237" y="-10" type="curve" smooth="yes"/>
      <point x="286" y="-9"/>
      <point x="396" y="0"/>
    </contour>
    <contour>
      <point x="414" y="422" type="curve"/>
      <point x="392" y="297"/>
      <point x="370" y="172"/>
      <point x="348" y="46" type="curve"/>
      <point x="348" y="46"/>
      <point x="306" y="42"/>
      <point x="241" y="38" type="curve" smooth="yes"/>
      <point x="106" y="33"/>
      <point x="81" y="80"/>
      <point x="97" y="175" type="curve" smooth="yes"/>
      <point x="101" y="195"/>
      <point x="125" y="332"/>
      <point x="129" y="354" type="curve" smooth="yes"/>
      <point x="145" y="446"/>
      <point x="218" y="461"/>
      <point x="255" y="461" type="curve" smooth="yes"/>
      <point x="319" y="461"/>
      <point x="364" y="444"/>
    </contour>
    <contour>
      <point x="530" y="543" type="curve"/>
      <point x="545" y="531" type="line"/>
      <point x="568" y="549"/>
      <point x="608" y="588"/>
      <point x="619" y="651" type="curve" smooth="yes"/>
      <point x="623" y="671"/>
      <point x="610" y="684"/>
      <point x="591" y="684" type="curve" smooth="yes"/>
      <point x="573" y="684"/>
      <point x="556" y="670"/>
      <point x="552" y="651" type="curve" smooth="yes"/>
      <point x="549" y="635"/>
      <point x="559" y="621"/>
      <point x="573" y="618" type="curve"/>
      <point x="568" y="597"/>
      <point x="555" y="570"/>
    </contour>
  </outline>
</glyph>
<glyph name="dslash" format="1">
  <advance width="453"/>
  <unicode hex="0111"/>
  <outline>
    <contour>
      <point x="396" y="0" type="curve"/>
      <point x="495" y="562" type="line"/>
      <point x="542" y="562" type="line"/>
      <point x="551" y="615" type="line"/>
      <point x="504" y="615" type="line"/>
      <point x="519" y="698" type="line"/>
      <point x="463" y="698" type="line"/>
      <point x="448" y="615" type="line"/>
      <point x="315" y="615" type="line"/>
      <point x="306" y="562" type="line"/>
      <point x="439" y="562" type="line"/>
      <point x="423" y="471" type="line"/>
      <point x="381" y="491"/>
      <point x="332" y="508"/>
      <point x="267" y="508" type="curve" smooth="yes"/>
      <point x="187" y="508"/>
      <point x="94" y="470"/>
      <point x="75" y="358" type="curve" smooth="yes"/>
      <point x="41" y="168" type="line" smooth="yes"/>
      <point x="15" y="21"/>
      <point x="107" y="-14"/>
      <point x="237" y="-10" type="curve" smooth="yes"/>
      <point x="286" y="-9"/>
      <point x="396" y="0"/>
    </contour>
    <contour>
      <point x="414" y="422" type="curve"/>
      <point x="348" y="46" type="line"/>
      <point x="348" y="46"/>
      <point x="306" y="42"/>
      <point x="241" y="38" type="curve" smooth="yes"/>
      <point x="106" y="33"/>
      <point x="81" y="80"/>
      <point x="97" y="175" type="curve" smooth="yes"/>
      <point x="129" y="354" type="line" smooth="yes"/>
      <point x="145" y="446"/>
      <point x="218" y="461"/>
      <point x="255" y="461" type="curve" smooth="yes"/>
      <point x="319" y="461"/>
      <point x="364" y="444"/>
    </contour>
  </outline>
</glyph>
<glyph name="Emacron" format="1">
  <advance width="367"/>
  <unicode hex="0112"/>
  <outline>
    <contour>
      <point x="360" y="50" type="line"/>
      <point x="85" y="50" type="line"/>
      <point x="139" y="356" type="line"/>
      <point x="311" y="356" type="line"/>
      <point x="339" y="411" type="line"/>
      <point x="149" y="411" type="line"/>
      <point x="190" y="646" type="line"/>
      <point x="467" y="646" type="line"/>
      <point x="477" y="698" type="line"/>
      <point x="144" y="698" type="line"/>
      <point x="21" y="0" type="line"/>
      <point x="352" y="0" type="line"/>
    </contour>
    <contour>
      <point x="439" y="801" type="line"/>
      <point x="219" y="801" type="line"/>
      <point x="209" y="744" type="line"/>
      <point x="429" y="744" type="line"/>
    </contour>
  </outline>
</glyph>
